<mxfile host="Electron" modified="2023-09-11T02:43:25.667Z" agent="Mozilla/5.0 (Windows NT 10.0; Win64; x64) AppleWebKit/537.36 (KHTML, like Gecko) draw.io/21.1.2 Chrome/106.0.5249.199 Electron/21.4.3 Safari/537.36" etag="81NUjQ3VsLSFudf2bA-Z" version="21.1.2" type="device" pages="4">
  <diagram id="zXQztj1buvM7SlyDZpPS" name="系统架构演进">
    <mxGraphModel dx="1434" dy="844" grid="1" gridSize="10" guides="1" tooltips="1" connect="1" arrows="1" fold="1" page="1" pageScale="1" pageWidth="850" pageHeight="1100" math="0" shadow="0">
      <root>
        <mxCell id="0" />
        <mxCell id="1" parent="0" />
        <mxCell id="vFdMtEJ3Pzj6Q_2_l0Lg-21" value="聚合 / 应用服务" style="rounded=1;whiteSpace=wrap;html=1;fillColor=#f5f5f5;fontSize=16;horizontal=1;verticalAlign=top;fontStyle=1;strokeColor=#666666;fontColor=#333333;" parent="1" vertex="1">
          <mxGeometry x="1224" y="490" width="480" height="110" as="geometry" />
        </mxCell>
        <mxCell id="vFdMtEJ3Pzj6Q_2_l0Lg-15" value="基础服务" style="rounded=1;whiteSpace=wrap;html=1;fillColor=#ffe6cc;horizontal=1;verticalAlign=top;fontStyle=1;fontSize=16;strokeColor=#d79b00;" parent="1" vertex="1">
          <mxGeometry x="1222" y="640" width="487" height="310" as="geometry" />
        </mxCell>
        <mxCell id="vFdMtEJ3Pzj6Q_2_l0Lg-1" value="&lt;span&gt;公司服务&lt;/span&gt;" style="rounded=1;whiteSpace=wrap;html=1;" parent="1" vertex="1">
          <mxGeometry x="1254" y="680" width="110" height="40" as="geometry" />
        </mxCell>
        <mxCell id="vFdMtEJ3Pzj6Q_2_l0Lg-2" value="&lt;span&gt;计划服务&lt;/span&gt;" style="rounded=1;whiteSpace=wrap;html=1;" parent="1" vertex="1">
          <mxGeometry x="1254" y="750" width="110" height="40" as="geometry" />
        </mxCell>
        <mxCell id="vFdMtEJ3Pzj6Q_2_l0Lg-3" value="&lt;span&gt;计税服务&lt;/span&gt;" style="rounded=1;whiteSpace=wrap;html=1;" parent="1" vertex="1">
          <mxGeometry x="1404" y="820" width="110" height="40" as="geometry" />
        </mxCell>
        <mxCell id="vFdMtEJ3Pzj6Q_2_l0Lg-4" value="&lt;span&gt;归属服务&lt;/span&gt;" style="rounded=1;whiteSpace=wrap;html=1;" parent="1" vertex="1">
          <mxGeometry x="1404" y="750" width="110" height="40" as="geometry" />
        </mxCell>
        <mxCell id="vFdMtEJ3Pzj6Q_2_l0Lg-5" value="&lt;span&gt;员工服务&lt;/span&gt;" style="rounded=1;whiteSpace=wrap;html=1;" parent="1" vertex="1">
          <mxGeometry x="1404" y="680" width="110" height="40" as="geometry" />
        </mxCell>
        <mxCell id="vFdMtEJ3Pzj6Q_2_l0Lg-6" value="&lt;span&gt;授予服务&lt;/span&gt;" style="rounded=1;whiteSpace=wrap;html=1;" parent="1" vertex="1">
          <mxGeometry x="1554" y="750" width="110" height="40" as="geometry" />
        </mxCell>
        <mxCell id="vFdMtEJ3Pzj6Q_2_l0Lg-7" value="&lt;span&gt;行权服务&lt;/span&gt;" style="rounded=1;whiteSpace=wrap;html=1;" parent="1" vertex="1">
          <mxGeometry x="1554" y="680" width="110" height="40" as="geometry" />
        </mxCell>
        <mxCell id="vFdMtEJ3Pzj6Q_2_l0Lg-9" value="&lt;span&gt;文件服务&lt;/span&gt;" style="rounded=1;whiteSpace=wrap;html=1;" parent="1" vertex="1">
          <mxGeometry x="1254" y="890" width="110" height="40" as="geometry" />
        </mxCell>
        <mxCell id="vFdMtEJ3Pzj6Q_2_l0Lg-10" value="&lt;span&gt;预览服务&lt;/span&gt;" style="rounded=1;whiteSpace=wrap;html=1;" parent="1" vertex="1">
          <mxGeometry x="1404" y="890" width="110" height="40" as="geometry" />
        </mxCell>
        <mxCell id="vFdMtEJ3Pzj6Q_2_l0Lg-11" value="&lt;span&gt;通知服务&lt;/span&gt;" style="rounded=1;whiteSpace=wrap;html=1;" parent="1" vertex="1">
          <mxGeometry x="1554" y="890" width="110" height="40" as="geometry" />
        </mxCell>
        <mxCell id="vFdMtEJ3Pzj6Q_2_l0Lg-12" value="&lt;span&gt;认证服务&lt;/span&gt;" style="rounded=1;whiteSpace=wrap;html=1;" parent="1" vertex="1">
          <mxGeometry x="1254" y="820" width="110" height="40" as="geometry" />
        </mxCell>
        <mxCell id="vFdMtEJ3Pzj6Q_2_l0Lg-17" value="Nacos" style="rounded=1;whiteSpace=wrap;html=1;fillColor=#dae8fc;fontSize=16;strokeColor=#6c8ebf;" parent="1" vertex="1">
          <mxGeometry x="1749" y="370" width="70" height="580" as="geometry" />
        </mxCell>
        <mxCell id="vFdMtEJ3Pzj6Q_2_l0Lg-18" value="管理系统" style="rounded=1;whiteSpace=wrap;html=1;fillColor=none;fontSize=16;" parent="1" vertex="1">
          <mxGeometry x="1244" y="530" width="120" height="44" as="geometry" />
        </mxCell>
        <mxCell id="vFdMtEJ3Pzj6Q_2_l0Lg-19" value="中台系统" style="rounded=1;whiteSpace=wrap;html=1;fillColor=none;fontSize=16;" parent="1" vertex="1">
          <mxGeometry x="1404" y="530" width="120" height="44" as="geometry" />
        </mxCell>
        <mxCell id="vFdMtEJ3Pzj6Q_2_l0Lg-20" value="员工端系统" style="rounded=1;whiteSpace=wrap;html=1;fillColor=none;fontSize=16;" parent="1" vertex="1">
          <mxGeometry x="1559" y="530" width="120" height="44" as="geometry" />
        </mxCell>
        <mxCell id="vFdMtEJ3Pzj6Q_2_l0Lg-22" value="GateWay" style="rounded=1;whiteSpace=wrap;html=1;fillColor=#f8cecc;fontSize=16;horizontal=1;verticalAlign=middle;fontStyle=1;strokeColor=#b85450;" parent="1" vertex="1">
          <mxGeometry x="1224" y="410" width="480" height="40" as="geometry" />
        </mxCell>
        <mxCell id="vFdMtEJ3Pzj6Q_2_l0Lg-24" value="" style="endArrow=classic;startArrow=classic;html=1;fontSize=16;exitX=1;exitY=0.5;exitDx=0;exitDy=0;" parent="1" source="vFdMtEJ3Pzj6Q_2_l0Lg-21" edge="1">
          <mxGeometry width="50" height="50" relative="1" as="geometry">
            <mxPoint x="1369" y="620" as="sourcePoint" />
            <mxPoint x="1746" y="545" as="targetPoint" />
          </mxGeometry>
        </mxCell>
        <mxCell id="vFdMtEJ3Pzj6Q_2_l0Lg-25" value="" style="endArrow=classic;startArrow=classic;html=1;fontSize=16;exitX=1;exitY=0.5;exitDx=0;exitDy=0;" parent="1" edge="1">
          <mxGeometry width="50" height="50" relative="1" as="geometry">
            <mxPoint x="1707" y="700" as="sourcePoint" />
            <mxPoint x="1749" y="700" as="targetPoint" />
          </mxGeometry>
        </mxCell>
        <mxCell id="vFdMtEJ3Pzj6Q_2_l0Lg-26" value="" style="endArrow=classic;startArrow=classic;html=1;fontSize=16;exitX=1;exitY=0.5;exitDx=0;exitDy=0;" parent="1" edge="1">
          <mxGeometry width="50" height="50" relative="1" as="geometry">
            <mxPoint x="1709" y="839" as="sourcePoint" />
            <mxPoint x="1751" y="839" as="targetPoint" />
          </mxGeometry>
        </mxCell>
        <mxCell id="vFdMtEJ3Pzj6Q_2_l0Lg-27" value="" style="endArrow=classic;startArrow=classic;html=1;fontSize=16;entryX=0.733;entryY=-0.006;entryDx=0;entryDy=0;entryPerimeter=0;" parent="1" target="vFdMtEJ3Pzj6Q_2_l0Lg-15" edge="1">
          <mxGeometry width="50" height="50" relative="1" as="geometry">
            <mxPoint x="1578" y="603" as="sourcePoint" />
            <mxPoint x="1587" y="640" as="targetPoint" />
          </mxGeometry>
        </mxCell>
        <mxCell id="vFdMtEJ3Pzj6Q_2_l0Lg-28" value="" style="endArrow=classic;startArrow=classic;html=1;fontSize=16;exitX=0.804;exitY=1.036;exitDx=0;exitDy=0;entryX=0.796;entryY=0.003;entryDx=0;entryDy=0;entryPerimeter=0;exitPerimeter=0;" parent="1" edge="1">
          <mxGeometry width="50" height="50" relative="1" as="geometry">
            <mxPoint x="1364.88" y="603.03" as="sourcePoint" />
            <mxPoint x="1364" y="640" as="targetPoint" />
          </mxGeometry>
        </mxCell>
        <mxCell id="vFdMtEJ3Pzj6Q_2_l0Lg-29" value="" style="endArrow=classic;startArrow=classic;html=1;fontSize=16;entryX=0.733;entryY=-0.006;entryDx=0;entryDy=0;entryPerimeter=0;" parent="1" edge="1">
          <mxGeometry width="50" height="50" relative="1" as="geometry">
            <mxPoint x="1579" y="451.86" as="sourcePoint" />
            <mxPoint x="1579.17" y="487.0000000000001" as="targetPoint" />
            <Array as="points" />
          </mxGeometry>
        </mxCell>
        <mxCell id="vFdMtEJ3Pzj6Q_2_l0Lg-30" value="" style="endArrow=classic;startArrow=classic;html=1;fontSize=16;entryX=0.29;entryY=-0.027;entryDx=0;entryDy=0;entryPerimeter=0;" parent="1" edge="1">
          <mxGeometry width="50" height="50" relative="1" as="geometry">
            <mxPoint x="1363" y="452" as="sourcePoint" />
            <mxPoint x="1363.2" y="489.03" as="targetPoint" />
            <Array as="points">
              <mxPoint x="1363" y="452" />
            </Array>
          </mxGeometry>
        </mxCell>
        <mxCell id="vFdMtEJ3Pzj6Q_2_l0Lg-31" value="" style="rounded=1;whiteSpace=wrap;html=1;fillColor=#f5f5f5;fontSize=16;strokeColor=#666666;fontColor=#333333;" parent="1" vertex="1">
          <mxGeometry x="1059" y="990" width="765" height="100" as="geometry" />
        </mxCell>
        <mxCell id="vFdMtEJ3Pzj6Q_2_l0Lg-32" value="mysql 集群" style="outlineConnect=0;dashed=0;verticalLabelPosition=bottom;verticalAlign=top;align=center;html=1;shape=mxgraph.aws3.mysql_db_instance;fillColor=#2E73B8;gradientColor=none;fontSize=12;fontStyle=0" parent="1" vertex="1">
          <mxGeometry x="1150" y="1013.92" width="50" height="47.25" as="geometry" />
        </mxCell>
        <mxCell id="vFdMtEJ3Pzj6Q_2_l0Lg-33" value="Redis 集群" style="aspect=fixed;html=1;points=[];align=center;image;fontSize=12;image=img/lib/mscae/Cache_Redis_Product.svg;fillColor=none;" parent="1" vertex="1">
          <mxGeometry x="1320" y="1013.92" width="54.76" height="46" as="geometry" />
        </mxCell>
        <mxCell id="vFdMtEJ3Pzj6Q_2_l0Lg-34" value="RocketMQ集群" style="outlineConnect=0;fontColor=#232F3E;gradientColor=#F34482;gradientDirection=north;fillColor=#BC1356;strokeColor=#ffffff;dashed=0;verticalLabelPosition=bottom;verticalAlign=top;align=center;html=1;fontSize=12;fontStyle=0;aspect=fixed;shape=mxgraph.aws4.resourceIcon;resIcon=mxgraph.aws4.mq;" parent="1" vertex="1">
          <mxGeometry x="1496.5" y="1014.45" width="48" height="48" as="geometry" />
        </mxCell>
        <mxCell id="vFdMtEJ3Pzj6Q_2_l0Lg-35" value="服务注册与否发现及配置中心" style="text;html=1;strokeColor=none;fillColor=none;align=center;verticalAlign=middle;whiteSpace=wrap;rounded=0;fontSize=12;" parent="1" vertex="1">
          <mxGeometry x="1824" y="650" width="90" height="20" as="geometry" />
        </mxCell>
        <mxCell id="vFdMtEJ3Pzj6Q_2_l0Lg-36" value="" style="endArrow=classic;startArrow=classic;html=1;fontSize=16;exitX=0.804;exitY=1.036;exitDx=0;exitDy=0;entryX=0.796;entryY=0.003;entryDx=0;entryDy=0;entryPerimeter=0;exitPerimeter=0;" parent="1" edge="1">
          <mxGeometry width="50" height="50" relative="1" as="geometry">
            <mxPoint x="1364.88" y="953.03" as="sourcePoint" />
            <mxPoint x="1364" y="990" as="targetPoint" />
          </mxGeometry>
        </mxCell>
        <mxCell id="vFdMtEJ3Pzj6Q_2_l0Lg-37" value="" style="endArrow=classic;startArrow=classic;html=1;fontSize=16;exitX=0.804;exitY=1.036;exitDx=0;exitDy=0;entryX=0.796;entryY=0.003;entryDx=0;entryDy=0;entryPerimeter=0;exitPerimeter=0;" parent="1" edge="1">
          <mxGeometry width="50" height="50" relative="1" as="geometry">
            <mxPoint x="1579.88" y="953.03" as="sourcePoint" />
            <mxPoint x="1579" y="990" as="targetPoint" />
          </mxGeometry>
        </mxCell>
        <mxCell id="vFdMtEJ3Pzj6Q_2_l0Lg-38" value="" style="rounded=1;whiteSpace=wrap;html=1;fillColor=#dae8fc;fontSize=16;strokeColor=#6c8ebf;" parent="1" vertex="1">
          <mxGeometry x="1059" y="370" width="120" height="580" as="geometry" />
        </mxCell>
        <mxCell id="vFdMtEJ3Pzj6Q_2_l0Lg-39" value="监控告警" style="rounded=1;whiteSpace=wrap;html=1;fillColor=none;fontSize=12;" parent="1" vertex="1">
          <mxGeometry x="1079.5" y="557.49" width="80" height="40" as="geometry" />
        </mxCell>
        <mxCell id="vFdMtEJ3Pzj6Q_2_l0Lg-40" value="熔断降级" style="rounded=1;whiteSpace=wrap;html=1;fillColor=none;fontSize=12;" parent="1" vertex="1">
          <mxGeometry x="1079.5" y="629.49" width="80" height="40" as="geometry" />
        </mxCell>
        <mxCell id="vFdMtEJ3Pzj6Q_2_l0Lg-41" value="链路追踪" style="rounded=1;whiteSpace=wrap;html=1;fillColor=none;fontSize=12;" parent="1" vertex="1">
          <mxGeometry x="1077.5" y="697.49" width="80" height="40" as="geometry" />
        </mxCell>
        <mxCell id="vFdMtEJ3Pzj6Q_2_l0Lg-42" value="" style="endArrow=classic;startArrow=classic;html=1;fontSize=16;exitX=0.804;exitY=1.036;exitDx=0;exitDy=0;entryX=0.796;entryY=0.003;entryDx=0;entryDy=0;entryPerimeter=0;exitPerimeter=0;" parent="1" edge="1">
          <mxGeometry width="50" height="50" relative="1" as="geometry">
            <mxPoint x="1119.38" y="953.03" as="sourcePoint" />
            <mxPoint x="1118.5" y="990" as="targetPoint" />
          </mxGeometry>
        </mxCell>
        <mxCell id="vFdMtEJ3Pzj6Q_2_l0Lg-43" value="nginx" style="rounded=1;whiteSpace=wrap;html=1;fillColor=none;fontSize=13;" parent="1" vertex="1">
          <mxGeometry x="1224" y="370" width="225" height="30" as="geometry" />
        </mxCell>
        <mxCell id="vFdMtEJ3Pzj6Q_2_l0Lg-44" value="nginx" style="rounded=1;whiteSpace=wrap;html=1;fillColor=none;fontSize=13;" parent="1" vertex="1">
          <mxGeometry x="1479" y="370" width="225" height="30" as="geometry" />
        </mxCell>
        <mxCell id="MDMCQMiYHud8DQwrrKyI-1" value="运维 / 开发" style="rounded=1;whiteSpace=wrap;html=1;fillColor=#f5f5f5;fontSize=15;fontColor=#333333;strokeColor=#666666;" parent="1" vertex="1">
          <mxGeometry x="1061" y="196" width="120" height="60" as="geometry" />
        </mxCell>
        <mxCell id="MDMCQMiYHud8DQwrrKyI-2" value="运营" style="rounded=1;whiteSpace=wrap;html=1;fillColor=#f5f5f5;fontSize=15;fontColor=#333333;strokeColor=#666666;" parent="1" vertex="1">
          <mxGeometry x="1744" y="196" width="75" height="60" as="geometry" />
        </mxCell>
        <mxCell id="MDMCQMiYHud8DQwrrKyI-3" value="" style="rounded=1;whiteSpace=wrap;html=1;fillColor=#e1d5e7;fontSize=15;strokeColor=#9673a6;" parent="1" vertex="1">
          <mxGeometry x="1224" y="266" width="475" height="90" as="geometry" />
        </mxCell>
        <mxCell id="MDMCQMiYHud8DQwrrKyI-4" value="APP" style="rounded=1;whiteSpace=wrap;html=1;fillColor=none;fontSize=15;" parent="1" vertex="1">
          <mxGeometry x="1289" y="281" width="75" height="60" as="geometry" />
        </mxCell>
        <mxCell id="MDMCQMiYHud8DQwrrKyI-5" value="PC" style="rounded=1;whiteSpace=wrap;html=1;fillColor=none;fontSize=15;" parent="1" vertex="1">
          <mxGeometry x="1421.5" y="281" width="75" height="60" as="geometry" />
        </mxCell>
        <mxCell id="MDMCQMiYHud8DQwrrKyI-6" value="H5" style="rounded=1;whiteSpace=wrap;html=1;fillColor=none;fontSize=15;" parent="1" vertex="1">
          <mxGeometry x="1554" y="281" width="75" height="60" as="geometry" />
        </mxCell>
        <mxCell id="MDMCQMiYHud8DQwrrKyI-7" value="管理后台" style="rounded=1;whiteSpace=wrap;html=1;fillColor=#e1d5e7;fontSize=15;strokeColor=#9673a6;" parent="1" vertex="1">
          <mxGeometry x="1744" y="266" width="75" height="90" as="geometry" />
        </mxCell>
        <mxCell id="MDMCQMiYHud8DQwrrKyI-8" value="运维后台" style="rounded=1;whiteSpace=wrap;html=1;fillColor=#e1d5e7;fontSize=15;strokeColor=#9673a6;" parent="1" vertex="1">
          <mxGeometry x="1064" y="266" width="115" height="40" as="geometry" />
        </mxCell>
        <mxCell id="MDMCQMiYHud8DQwrrKyI-9" value="监控后台" style="rounded=1;whiteSpace=wrap;html=1;fillColor=#e1d5e7;fontSize=15;strokeColor=#9673a6;" parent="1" vertex="1">
          <mxGeometry x="1064" y="316" width="117" height="40" as="geometry" />
        </mxCell>
        <mxCell id="V4-21-mh9jKmn8qJonZQ-1" value="客户" style="rounded=1;whiteSpace=wrap;html=1;fillColor=#f5f5f5;fontSize=15;fontColor=#333333;strokeColor=#666666;" parent="1" vertex="1">
          <mxGeometry x="1228" y="196" width="475" height="60" as="geometry" />
        </mxCell>
        <mxCell id="V4-21-mh9jKmn8qJonZQ-3" value="&lt;h1&gt;前期&lt;/h1&gt;&lt;p&gt;前期项目开发周期短,时间紧, 直接使用的简单三层架构实现, 基于Jenkins + docker 实现Devops&lt;br&gt;&lt;br&gt;1. 中台系统， 管理系统及员工端系统之间通过 RPC 实现互调，联通&lt;/p&gt;" style="text;html=1;strokeColor=none;fillColor=none;spacing=5;spacingTop=-20;whiteSpace=wrap;overflow=hidden;rounded=0;" parent="1" vertex="1">
          <mxGeometry x="180" y="20" width="380" height="120" as="geometry" />
        </mxCell>
        <mxCell id="V4-21-mh9jKmn8qJonZQ-4" value="&lt;h1&gt;后期 - 微服务重构&lt;/h1&gt;&lt;p&gt;后期随着业务不断发展, 逐渐暴露之前的问题, 开发, 测试到部署无法独立进行, 业务牵扯太多. 所以想到拆服务, 采用分治思想, 将各业务抽象为一个个单独的服务,&amp;nbsp; 由管理系统, 中台系统及员工端系统对这些微服务进行业务聚合, 以便前端使用, 同时将原有的 Devops 升级为基于K8S 的 Gitops实现, 并增加监控端(Prometheus + grafana + alertManager)实现: 基础设施级, 应用级&lt;/p&gt;" style="text;html=1;strokeColor=none;fillColor=none;spacing=5;spacingTop=-20;whiteSpace=wrap;overflow=hidden;rounded=0;" parent="1" vertex="1">
          <mxGeometry x="1172.25" y="57" width="573.5" height="115" as="geometry" />
        </mxCell>
        <mxCell id="V4-21-mh9jKmn8qJonZQ-5" value="Nacos" style="rounded=1;whiteSpace=wrap;html=1;fillColor=#dae8fc;fontSize=16;strokeColor=#6c8ebf;" parent="1" vertex="1">
          <mxGeometry x="694" y="369.51" width="95" height="596.49" as="geometry" />
        </mxCell>
        <mxCell id="V4-21-mh9jKmn8qJonZQ-6" value="中台系统" style="rounded=1;whiteSpace=wrap;html=1;fillColor=#ffe6cc;horizontal=1;verticalAlign=top;fontStyle=1;fontSize=16;strokeColor=#d79b00;" parent="1" vertex="1">
          <mxGeometry x="199" y="409.02" width="150" height="420" as="geometry" />
        </mxCell>
        <mxCell id="V4-21-mh9jKmn8qJonZQ-10" value="nginx" style="rounded=1;whiteSpace=wrap;html=1;fillColor=none;fontSize=13;fontStyle=0" parent="1" vertex="1">
          <mxGeometry x="199" y="367" width="225" height="30" as="geometry" />
        </mxCell>
        <mxCell id="V4-21-mh9jKmn8qJonZQ-11" value="nginx" style="rounded=1;whiteSpace=wrap;html=1;fillColor=none;fontSize=13;fontStyle=0" parent="1" vertex="1">
          <mxGeometry x="454" y="367" width="220" height="30" as="geometry" />
        </mxCell>
        <mxCell id="V4-21-mh9jKmn8qJonZQ-12" value="运维 / 开发" style="rounded=1;whiteSpace=wrap;html=1;fillColor=#f5f5f5;fontSize=15;fontColor=#333333;strokeColor=#666666;" parent="1" vertex="1">
          <mxGeometry x="62" y="196" width="114" height="60" as="geometry" />
        </mxCell>
        <mxCell id="V4-21-mh9jKmn8qJonZQ-13" value="运营" style="rounded=1;whiteSpace=wrap;html=1;fillColor=#f5f5f5;fontSize=15;fontColor=#333333;strokeColor=#666666;" parent="1" vertex="1">
          <mxGeometry x="694" y="198.51" width="95" height="60" as="geometry" />
        </mxCell>
        <mxCell id="V4-21-mh9jKmn8qJonZQ-14" value="" style="rounded=1;whiteSpace=wrap;html=1;fillColor=#e1d5e7;fontSize=15;strokeColor=#9673a6;" parent="1" vertex="1">
          <mxGeometry x="199" y="266" width="475" height="90" as="geometry" />
        </mxCell>
        <mxCell id="V4-21-mh9jKmn8qJonZQ-15" value="APP" style="rounded=1;whiteSpace=wrap;html=1;fillColor=none;fontSize=15;" parent="1" vertex="1">
          <mxGeometry x="264" y="281" width="75" height="60" as="geometry" />
        </mxCell>
        <mxCell id="V4-21-mh9jKmn8qJonZQ-16" value="PC" style="rounded=1;whiteSpace=wrap;html=1;fillColor=none;fontSize=15;" parent="1" vertex="1">
          <mxGeometry x="396.5" y="281" width="75" height="60" as="geometry" />
        </mxCell>
        <mxCell id="V4-21-mh9jKmn8qJonZQ-17" value="H5" style="rounded=1;whiteSpace=wrap;html=1;fillColor=none;fontSize=15;" parent="1" vertex="1">
          <mxGeometry x="529" y="281" width="75" height="60" as="geometry" />
        </mxCell>
        <mxCell id="V4-21-mh9jKmn8qJonZQ-18" value="管理后台" style="rounded=1;whiteSpace=wrap;html=1;fillColor=#e1d5e7;fontSize=15;strokeColor=#9673a6;" parent="1" vertex="1">
          <mxGeometry x="694" y="268.51" width="95" height="90" as="geometry" />
        </mxCell>
        <mxCell id="V4-21-mh9jKmn8qJonZQ-19" value="运维后台" style="rounded=1;whiteSpace=wrap;html=1;fillColor=#e1d5e7;fontSize=15;strokeColor=#9673a6;" parent="1" vertex="1">
          <mxGeometry x="61" y="266" width="115" height="40" as="geometry" />
        </mxCell>
        <mxCell id="V4-21-mh9jKmn8qJonZQ-20" value="监控后台" style="rounded=1;whiteSpace=wrap;html=1;fillColor=#e1d5e7;fontSize=15;strokeColor=#9673a6;" parent="1" vertex="1">
          <mxGeometry x="61" y="316" width="117" height="40" as="geometry" />
        </mxCell>
        <mxCell id="V4-21-mh9jKmn8qJonZQ-21" value="客户" style="rounded=1;whiteSpace=wrap;html=1;fillColor=#f5f5f5;fontSize=15;fontColor=#333333;strokeColor=#666666;" parent="1" vertex="1">
          <mxGeometry x="204" y="196" width="470" height="60" as="geometry" />
        </mxCell>
        <mxCell id="V4-21-mh9jKmn8qJonZQ-22" value="&lt;span&gt;公司管理&lt;/span&gt;" style="rounded=1;whiteSpace=wrap;html=1;" parent="1" vertex="1">
          <mxGeometry x="219" y="459.02" width="110" height="40" as="geometry" />
        </mxCell>
        <mxCell id="V4-21-mh9jKmn8qJonZQ-23" value="&lt;span&gt;计划管理&lt;/span&gt;" style="rounded=1;whiteSpace=wrap;html=1;" parent="1" vertex="1">
          <mxGeometry x="219" y="519.02" width="110" height="40" as="geometry" />
        </mxCell>
        <mxCell id="V4-21-mh9jKmn8qJonZQ-24" value="管理系统" style="rounded=1;whiteSpace=wrap;html=1;fillColor=#ffe6cc;horizontal=1;verticalAlign=top;fontStyle=1;fontSize=16;strokeColor=#d79b00;" parent="1" vertex="1">
          <mxGeometry x="362" y="409.02" width="150" height="420" as="geometry" />
        </mxCell>
        <mxCell id="V4-21-mh9jKmn8qJonZQ-25" value="员工系统" style="rounded=1;whiteSpace=wrap;html=1;fillColor=#ffe6cc;horizontal=1;verticalAlign=top;fontStyle=1;fontSize=16;strokeColor=#d79b00;" parent="1" vertex="1">
          <mxGeometry x="525" y="409.02" width="150" height="420" as="geometry" />
        </mxCell>
        <mxCell id="V4-21-mh9jKmn8qJonZQ-26" value="&lt;span&gt;条款管理&lt;/span&gt;" style="rounded=1;whiteSpace=wrap;html=1;" parent="1" vertex="1">
          <mxGeometry x="219" y="579.02" width="110" height="40" as="geometry" />
        </mxCell>
        <mxCell id="V4-21-mh9jKmn8qJonZQ-27" value="&lt;span&gt;配置管理&lt;/span&gt;" style="rounded=1;whiteSpace=wrap;html=1;" parent="1" vertex="1">
          <mxGeometry x="219" y="639.02" width="110" height="40" as="geometry" />
        </mxCell>
        <mxCell id="V4-21-mh9jKmn8qJonZQ-28" value="&lt;span&gt;权限管理&lt;/span&gt;" style="rounded=1;whiteSpace=wrap;html=1;" parent="1" vertex="1">
          <mxGeometry x="219" y="699.02" width="110" height="40" as="geometry" />
        </mxCell>
        <mxCell id="V4-21-mh9jKmn8qJonZQ-29" value="&lt;span&gt;操作日志&lt;/span&gt;" style="rounded=1;whiteSpace=wrap;html=1;" parent="1" vertex="1">
          <mxGeometry x="219" y="759.02" width="110" height="40" as="geometry" />
        </mxCell>
        <mxCell id="V4-21-mh9jKmn8qJonZQ-30" value="&lt;span&gt;参与方管理&lt;/span&gt;" style="rounded=1;whiteSpace=wrap;html=1;" parent="1" vertex="1">
          <mxGeometry x="381" y="459.02" width="110" height="40" as="geometry" />
        </mxCell>
        <mxCell id="V4-21-mh9jKmn8qJonZQ-31" value="&lt;span&gt;签署服务&lt;/span&gt;" style="rounded=1;whiteSpace=wrap;html=1;" parent="1" vertex="1">
          <mxGeometry x="1554" y="820" width="110" height="40" as="geometry" />
        </mxCell>
        <mxCell id="V4-21-mh9jKmn8qJonZQ-32" value="&lt;span&gt;激励管理&lt;/span&gt;" style="rounded=1;whiteSpace=wrap;html=1;" parent="1" vertex="1">
          <mxGeometry x="380.5" y="519.02" width="110" height="40" as="geometry" />
        </mxCell>
        <mxCell id="V4-21-mh9jKmn8qJonZQ-33" value="&lt;span&gt;审核管理&lt;/span&gt;" style="rounded=1;whiteSpace=wrap;html=1;" parent="1" vertex="1">
          <mxGeometry x="380.5" y="579.02" width="110" height="40" as="geometry" />
        </mxCell>
        <mxCell id="V4-21-mh9jKmn8qJonZQ-34" value="&lt;span&gt;交易管理&lt;/span&gt;" style="rounded=1;whiteSpace=wrap;html=1;" parent="1" vertex="1">
          <mxGeometry x="380.5" y="639.02" width="110" height="40" as="geometry" />
        </mxCell>
        <mxCell id="V4-21-mh9jKmn8qJonZQ-35" value="&lt;span&gt;报表管理&lt;/span&gt;" style="rounded=1;whiteSpace=wrap;html=1;" parent="1" vertex="1">
          <mxGeometry x="380.5" y="699.02" width="110" height="40" as="geometry" />
        </mxCell>
        <mxCell id="V4-21-mh9jKmn8qJonZQ-36" value="&lt;span&gt;文件管理&lt;/span&gt;" style="rounded=1;whiteSpace=wrap;html=1;" parent="1" vertex="1">
          <mxGeometry x="381.5" y="759.02" width="110" height="40" as="geometry" />
        </mxCell>
        <mxCell id="V4-21-mh9jKmn8qJonZQ-37" value="&lt;span&gt;行权管理&lt;/span&gt;" style="rounded=1;whiteSpace=wrap;html=1;" parent="1" vertex="1">
          <mxGeometry x="545" y="459.02" width="110" height="40" as="geometry" />
        </mxCell>
        <mxCell id="V4-21-mh9jKmn8qJonZQ-38" value="&lt;span&gt;合同签署&lt;/span&gt;" style="rounded=1;whiteSpace=wrap;html=1;" parent="1" vertex="1">
          <mxGeometry x="545" y="519.02" width="110" height="40" as="geometry" />
        </mxCell>
        <mxCell id="V4-21-mh9jKmn8qJonZQ-39" value="&lt;span&gt;激励管理&lt;/span&gt;" style="rounded=1;whiteSpace=wrap;html=1;" parent="1" vertex="1">
          <mxGeometry x="545" y="579.02" width="110" height="40" as="geometry" />
        </mxCell>
        <mxCell id="V4-21-mh9jKmn8qJonZQ-40" value="&lt;span&gt;税款管理&lt;/span&gt;" style="rounded=1;whiteSpace=wrap;html=1;" parent="1" vertex="1">
          <mxGeometry x="545" y="639.02" width="110" height="40" as="geometry" />
        </mxCell>
        <mxCell id="V4-21-mh9jKmn8qJonZQ-41" value="&lt;span&gt;签署管理&lt;/span&gt;" style="rounded=1;whiteSpace=wrap;html=1;" parent="1" vertex="1">
          <mxGeometry x="545" y="699.02" width="110" height="40" as="geometry" />
        </mxCell>
        <mxCell id="V4-21-mh9jKmn8qJonZQ-42" value="" style="rounded=1;whiteSpace=wrap;html=1;fillColor=#f5f5f5;fontSize=16;strokeColor=#666666;fontColor=#333333;" parent="1" vertex="1">
          <mxGeometry x="62" y="975.9200000000001" width="730" height="100" as="geometry" />
        </mxCell>
        <mxCell id="V4-21-mh9jKmn8qJonZQ-43" value="mysql 集群" style="outlineConnect=0;dashed=0;verticalLabelPosition=bottom;verticalAlign=top;align=center;html=1;shape=mxgraph.aws3.mysql_db_instance;fillColor=#2E73B8;gradientColor=none;fontSize=12;fontStyle=0" parent="1" vertex="1">
          <mxGeometry x="152" y="1000.6700000000001" width="50" height="47.25" as="geometry" />
        </mxCell>
        <mxCell id="V4-21-mh9jKmn8qJonZQ-44" value="Redis 集群" style="aspect=fixed;html=1;points=[];align=center;image;fontSize=12;image=img/lib/mscae/Cache_Redis_Product.svg;fillColor=none;" parent="1" vertex="1">
          <mxGeometry x="301.9999999999999" y="1000.9200000000001" width="54.76" height="46" as="geometry" />
        </mxCell>
        <mxCell id="V4-21-mh9jKmn8qJonZQ-45" value="RocketMQ集群" style="outlineConnect=0;fontColor=#232F3E;gradientColor=#F34482;gradientDirection=north;fillColor=#BC1356;strokeColor=#ffffff;dashed=0;verticalLabelPosition=bottom;verticalAlign=top;align=center;html=1;fontSize=12;fontStyle=0;aspect=fixed;shape=mxgraph.aws4.resourceIcon;resIcon=mxgraph.aws4.mq;" parent="1" vertex="1">
          <mxGeometry x="467" y="1000.9200000000001" width="48" height="48" as="geometry" />
        </mxCell>
        <mxCell id="V4-21-mh9jKmn8qJonZQ-46" value="" style="rounded=1;whiteSpace=wrap;html=1;fillColor=#dae8fc;fontSize=16;strokeColor=#6c8ebf;" parent="1" vertex="1">
          <mxGeometry x="59" y="366" width="120" height="600" as="geometry" />
        </mxCell>
        <mxCell id="V4-21-mh9jKmn8qJonZQ-47" value="监控告警" style="rounded=1;whiteSpace=wrap;html=1;fillColor=none;fontSize=12;" parent="1" vertex="1">
          <mxGeometry x="77" y="538.51" width="80" height="40" as="geometry" />
        </mxCell>
        <mxCell id="V4-21-mh9jKmn8qJonZQ-48" value="" style="shape=flexArrow;endArrow=classic;html=1;rounded=0;labelBackgroundColor=#7EA6E0;fillColor=#b1ddf0;strokeColor=#10739e;" parent="1" edge="1">
          <mxGeometry width="50" height="50" relative="1" as="geometry">
            <mxPoint x="830" y="598.52" as="sourcePoint" />
            <mxPoint x="1030" y="598.52" as="targetPoint" />
          </mxGeometry>
        </mxCell>
        <mxCell id="Tmp_EGlkigZ8512D7ZkN-1" value="WebDav" style="html=1;verticalLabelPosition=bottom;align=center;labelBackgroundColor=#ffffff;verticalAlign=top;strokeWidth=2;strokeColor=#0080F0;shadow=0;dashed=0;shape=mxgraph.ios7.icons.data;" vertex="1" parent="1">
          <mxGeometry x="607" y="995.8200000000002" width="45" height="51.1" as="geometry" />
        </mxCell>
        <mxCell id="Tmp_EGlkigZ8512D7ZkN-2" value="WebDav" style="html=1;verticalLabelPosition=bottom;align=center;labelBackgroundColor=#ffffff;verticalAlign=top;strokeWidth=2;strokeColor=#0080F0;shadow=0;dashed=0;shape=mxgraph.ios7.icons.data;" vertex="1" parent="1">
          <mxGeometry x="1670" y="1014.4500000000002" width="45" height="51.1" as="geometry" />
        </mxCell>
        <mxCell id="Tmp_EGlkigZ8512D7ZkN-3" value="CICD" style="rounded=1;whiteSpace=wrap;html=1;fillColor=none;fontSize=12;" vertex="1" parent="1">
          <mxGeometry x="77" y="472" width="80" height="40" as="geometry" />
        </mxCell>
        <mxCell id="Tmp_EGlkigZ8512D7ZkN-4" value="CICD" style="rounded=1;whiteSpace=wrap;html=1;fillColor=none;fontSize=12;" vertex="1" parent="1">
          <mxGeometry x="1078.5" y="486" width="80" height="40" as="geometry" />
        </mxCell>
        <mxCell id="Tmp_EGlkigZ8512D7ZkN-5" value="服务治理" style="rounded=1;whiteSpace=wrap;html=1;fillColor=none;fontSize=12;" vertex="1" parent="1">
          <mxGeometry x="1078.5" y="763.02" width="80" height="40" as="geometry" />
        </mxCell>
        <mxCell id="Tmp_EGlkigZ8512D7ZkN-7" value="演进" style="text;html=1;align=center;verticalAlign=middle;resizable=0;points=[];autosize=1;strokeColor=none;fillColor=none;" vertex="1" parent="1">
          <mxGeometry x="910" y="562.49" width="50" height="30" as="geometry" />
        </mxCell>
        <mxCell id="Tmp_EGlkigZ8512D7ZkN-8" value="&lt;span&gt;消息中心&lt;/span&gt;" style="rounded=1;whiteSpace=wrap;html=1;" vertex="1" parent="1">
          <mxGeometry x="545" y="759.02" width="110" height="40" as="geometry" />
        </mxCell>
        <mxCell id="Tmp_EGlkigZ8512D7ZkN-9" value="基础服务" style="rounded=1;whiteSpace=wrap;html=1;fillColor=#f5f5f5;fontSize=16;strokeColor=#666666;fontColor=#333333;fontStyle=1" vertex="1" parent="1">
          <mxGeometry x="199" y="844" width="480" height="122" as="geometry" />
        </mxCell>
        <mxCell id="Tmp_EGlkigZ8512D7ZkN-10" value="&lt;span&gt;文件服务&lt;/span&gt;" style="rounded=1;whiteSpace=wrap;html=1;" vertex="1" parent="1">
          <mxGeometry x="270.5" y="910" width="110" height="40" as="geometry" />
        </mxCell>
        <mxCell id="Tmp_EGlkigZ8512D7ZkN-11" value="&lt;span&gt;预览服务&lt;/span&gt;" style="rounded=1;whiteSpace=wrap;html=1;" vertex="1" parent="1">
          <mxGeometry x="497" y="856" width="110" height="40" as="geometry" />
        </mxCell>
        <mxCell id="Tmp_EGlkigZ8512D7ZkN-12" value="&lt;span&gt;通知服务&lt;/span&gt;" style="rounded=1;whiteSpace=wrap;html=1;" vertex="1" parent="1">
          <mxGeometry x="497" y="910" width="110" height="40" as="geometry" />
        </mxCell>
        <mxCell id="Tmp_EGlkigZ8512D7ZkN-13" value="&lt;span&gt;认证服务&lt;/span&gt;" style="rounded=1;whiteSpace=wrap;html=1;" vertex="1" parent="1">
          <mxGeometry x="270.5" y="856" width="110" height="40" as="geometry" />
        </mxCell>
      </root>
    </mxGraphModel>
  </diagram>
  <diagram id="0LImLwNkkpG-1wtqGZUx" name="物理架构图">
    <mxGraphModel dx="2261" dy="844" grid="1" gridSize="10" guides="1" tooltips="1" connect="1" arrows="1" fold="1" page="1" pageScale="1" pageWidth="827" pageHeight="1169" math="0" shadow="0">
      <root>
        <mxCell id="0" />
        <mxCell id="1" parent="0" />
        <mxCell id="vaxw1P1ZyCaPooBw2lOU-1" value="" style="rounded=0;whiteSpace=wrap;html=1;dashed=1;strokeWidth=2;fillColor=none;fontSize=17;fontColor=#333333;strokeColor=#808080;" vertex="1" parent="1">
          <mxGeometry x="-140" y="56" width="500" height="884" as="geometry" />
        </mxCell>
        <mxCell id="vaxw1P1ZyCaPooBw2lOU-2" value="" style="rounded=0;whiteSpace=wrap;html=1;dashed=1;fillColor=none;fontColor=#333333;fontStyle=0;strokeWidth=2;strokeColor=#808080;" vertex="1" parent="1">
          <mxGeometry x="360" y="56" width="830" height="494" as="geometry" />
        </mxCell>
        <mxCell id="vaxw1P1ZyCaPooBw2lOU-3" value="" style="html=1;verticalLabelPosition=bottom;align=center;labelBackgroundColor=#ffffff;verticalAlign=top;strokeWidth=2;strokeColor=#0080F0;shadow=0;dashed=0;shape=mxgraph.ios7.icons.cloud;rounded=0;fillColor=none;fontSize=17;fontColor=#333333;" vertex="1" parent="1">
          <mxGeometry x="591.48" y="143" width="60" height="39" as="geometry" />
        </mxCell>
        <mxCell id="vaxw1P1ZyCaPooBw2lOU-4" value="" style="rounded=0;whiteSpace=wrap;html=1;dashed=1;strokeWidth=2;fillColor=none;fontSize=14;fontColor=#333333;strokeColor=#808080;" vertex="1" parent="1">
          <mxGeometry x="360" y="550" width="830" height="390" as="geometry" />
        </mxCell>
        <mxCell id="vaxw1P1ZyCaPooBw2lOU-5" value="" style="rounded=1;whiteSpace=wrap;html=1;dashed=1;strokeWidth=2;fillColor=none;fontSize=17;fontColor=#333333;strokeColor=#6666FF;" vertex="1" parent="1">
          <mxGeometry x="410" y="760.38" width="127.36" height="118.62" as="geometry" />
        </mxCell>
        <mxCell id="vaxw1P1ZyCaPooBw2lOU-6" value="" style="rounded=1;whiteSpace=wrap;html=1;fontColor=#FF8000;fillColor=none;" vertex="1" parent="1">
          <mxGeometry x="480" y="274.5" width="490" height="245.5" as="geometry" />
        </mxCell>
        <mxCell id="vaxw1P1ZyCaPooBw2lOU-7" value="" style="aspect=fixed;html=1;points=[];align=center;image;fontSize=12;image=img/lib/mscae/Cloud_Services_Classic.svg;" vertex="1" parent="1">
          <mxGeometry x="680" y="300" width="59.52" height="50" as="geometry" />
        </mxCell>
        <mxCell id="vaxw1P1ZyCaPooBw2lOU-8" value="" style="aspect=fixed;html=1;points=[];align=center;image;fontSize=12;image=img/lib/azure2/databases/Azure_Database_MySQL_Server.svg;" vertex="1" parent="1">
          <mxGeometry x="1080" y="326" width="48" height="64" as="geometry" />
        </mxCell>
        <mxCell id="vaxw1P1ZyCaPooBw2lOU-9" style="edgeStyle=orthogonalEdgeStyle;rounded=0;orthogonalLoop=1;jettySize=auto;html=1;entryX=0;entryY=0.5;entryDx=0;entryDy=0;fontColor=#007FFF;" edge="1" parent="1" source="vaxw1P1ZyCaPooBw2lOU-76" target="vaxw1P1ZyCaPooBw2lOU-6">
          <mxGeometry relative="1" as="geometry">
            <mxPoint x="271" y="393" as="sourcePoint" />
          </mxGeometry>
        </mxCell>
        <mxCell id="vaxw1P1ZyCaPooBw2lOU-10" value="" style="aspect=fixed;html=1;points=[];align=center;image;fontSize=12;image=img/lib/mscae/Azure_Firewall.svg;" vertex="1" parent="1">
          <mxGeometry x="80" y="361.25" width="73.25" height="73.25" as="geometry" />
        </mxCell>
        <mxCell id="vaxw1P1ZyCaPooBw2lOU-11" style="edgeStyle=orthogonalEdgeStyle;rounded=0;orthogonalLoop=1;jettySize=auto;html=1;exitX=1;exitY=0.5;exitDx=0;exitDy=0;fontColor=#007FFF;" edge="1" parent="1" source="vaxw1P1ZyCaPooBw2lOU-12">
          <mxGeometry relative="1" as="geometry">
            <mxPoint x="80" y="403.25" as="targetPoint" />
          </mxGeometry>
        </mxCell>
        <mxCell id="vaxw1P1ZyCaPooBw2lOU-12" value="" style="rounded=1;whiteSpace=wrap;html=1;" vertex="1" parent="1">
          <mxGeometry x="-90" y="267.5" width="100" height="270" as="geometry" />
        </mxCell>
        <mxCell id="vaxw1P1ZyCaPooBw2lOU-13" value="" style="aspect=fixed;html=1;points=[];align=center;image;fontSize=12;image=img/lib/mscae/VM_Scale_Set.svg;" vertex="1" parent="1">
          <mxGeometry x="-65" y="449.5" width="50" height="50" as="geometry" />
        </mxCell>
        <mxCell id="vaxw1P1ZyCaPooBw2lOU-14" value="" style="aspect=fixed;html=1;points=[];align=center;image;fontSize=12;image=img/lib/mscae/Cloud_Services_Classic.svg;" vertex="1" parent="1">
          <mxGeometry x="850" y="300" width="59.52" height="50" as="geometry" />
        </mxCell>
        <mxCell id="vaxw1P1ZyCaPooBw2lOU-15" value="" style="endArrow=classic;startArrow=classic;html=1;" edge="1" parent="1" source="vaxw1P1ZyCaPooBw2lOU-7" target="vaxw1P1ZyCaPooBw2lOU-14">
          <mxGeometry width="50" height="50" relative="1" as="geometry">
            <mxPoint x="740" y="325" as="sourcePoint" />
            <mxPoint x="829" y="325" as="targetPoint" />
          </mxGeometry>
        </mxCell>
        <mxCell id="vaxw1P1ZyCaPooBw2lOU-16" value="Dubbo" style="text;html=1;strokeColor=none;fillColor=none;align=center;verticalAlign=middle;whiteSpace=wrap;rounded=0;fontColor=#FF8000;fontStyle=1" vertex="1" parent="1">
          <mxGeometry x="770" y="300" width="40" height="20" as="geometry" />
        </mxCell>
        <mxCell id="vaxw1P1ZyCaPooBw2lOU-17" value="" style="aspect=fixed;html=1;points=[];align=center;image;fontSize=12;image=img/lib/mscae/Cloud_Services_Classic.svg;" vertex="1" parent="1">
          <mxGeometry x="680" y="370" width="59.52" height="50" as="geometry" />
        </mxCell>
        <mxCell id="vaxw1P1ZyCaPooBw2lOU-18" value="" style="aspect=fixed;html=1;points=[];align=center;image;fontSize=12;image=img/lib/mscae/Cloud_Services_Classic.svg;" vertex="1" parent="1">
          <mxGeometry x="850" y="370" width="59.52" height="50" as="geometry" />
        </mxCell>
        <mxCell id="vaxw1P1ZyCaPooBw2lOU-19" value="" style="endArrow=classic;startArrow=classic;html=1;" edge="1" parent="1" source="vaxw1P1ZyCaPooBw2lOU-17" target="vaxw1P1ZyCaPooBw2lOU-18">
          <mxGeometry width="50" height="50" relative="1" as="geometry">
            <mxPoint x="750" y="335" as="sourcePoint" />
            <mxPoint x="839" y="335" as="targetPoint" />
          </mxGeometry>
        </mxCell>
        <mxCell id="vaxw1P1ZyCaPooBw2lOU-20" value="Dubbo" style="text;html=1;strokeColor=none;fillColor=none;align=center;verticalAlign=middle;whiteSpace=wrap;rounded=0;fontColor=#FF8000;fontStyle=1" vertex="1" parent="1">
          <mxGeometry x="770" y="370" width="40" height="20" as="geometry" />
        </mxCell>
        <mxCell id="vaxw1P1ZyCaPooBw2lOU-21" value="" style="aspect=fixed;html=1;points=[];align=center;image;fontSize=12;image=img/lib/mscae/Cloud_Services_Classic.svg;" vertex="1" parent="1">
          <mxGeometry x="680" y="440" width="59.52" height="50" as="geometry" />
        </mxCell>
        <mxCell id="vaxw1P1ZyCaPooBw2lOU-22" value="" style="aspect=fixed;html=1;points=[];align=center;image;fontSize=12;image=img/lib/mscae/Cloud_Services_Classic.svg;" vertex="1" parent="1">
          <mxGeometry x="850" y="440" width="59.52" height="50" as="geometry" />
        </mxCell>
        <mxCell id="vaxw1P1ZyCaPooBw2lOU-23" value="" style="endArrow=classic;startArrow=classic;html=1;" edge="1" parent="1" source="vaxw1P1ZyCaPooBw2lOU-21" target="vaxw1P1ZyCaPooBw2lOU-22">
          <mxGeometry width="50" height="50" relative="1" as="geometry">
            <mxPoint x="745.24" y="455" as="sourcePoint" />
            <mxPoint x="834.24" y="455" as="targetPoint" />
          </mxGeometry>
        </mxCell>
        <mxCell id="vaxw1P1ZyCaPooBw2lOU-24" value="Dubbo" style="text;html=1;strokeColor=none;fillColor=none;align=center;verticalAlign=middle;whiteSpace=wrap;rounded=0;fontColor=#FF8000;fontStyle=1" vertex="1" parent="1">
          <mxGeometry x="770" y="440" width="40" height="20" as="geometry" />
        </mxCell>
        <mxCell id="vaxw1P1ZyCaPooBw2lOU-25" value="" style="aspect=fixed;html=1;points=[];align=center;image;fontSize=12;image=img/lib/azure2/compute/Cloud_Services_Classic.svg;" vertex="1" parent="1">
          <mxGeometry x="501.48" y="139" width="59.54" height="43" as="geometry" />
        </mxCell>
        <mxCell id="vaxw1P1ZyCaPooBw2lOU-26" value="" style="verticalLabelPosition=bottom;html=1;strokeColor=#ffffff;verticalAlign=top;align=center;points=[[0,0.5,0],[0.125,0.25,0],[0.25,0,0],[0.5,0,0],[0.75,0,0],[0.875,0.25,0],[1,0.5,0],[0.875,0.75,0],[0.75,1,0],[0.5,1,0],[0.125,0.75,0]];pointerEvents=1;shape=mxgraph.cisco_safe.compositeIcon;bgIcon=mxgraph.cisco_safe.design.blank_device;resIcon=mxgraph.cisco_safe.design.identity_directory;fontColor=#FF8000;fillColor=#0066CC;" vertex="1" parent="1">
          <mxGeometry x="528" y="366.75" width="82" height="70.5" as="geometry" />
        </mxCell>
        <mxCell id="vaxw1P1ZyCaPooBw2lOU-27" value="" style="rounded=1;whiteSpace=wrap;html=1;fillColor=none;fontColor=#FF8000;dashed=1;strokeColor=#007FFF;" vertex="1" parent="1">
          <mxGeometry x="509" y="345" width="120" height="115" as="geometry" />
        </mxCell>
        <mxCell id="vaxw1P1ZyCaPooBw2lOU-28" value="Jwt 认证" style="text;html=1;strokeColor=none;fillColor=none;align=center;verticalAlign=middle;whiteSpace=wrap;rounded=0;dashed=1;fontColor=#007FFF;fontStyle=1" vertex="1" parent="1">
          <mxGeometry x="530" y="320" width="80" height="20" as="geometry" />
        </mxCell>
        <mxCell id="vaxw1P1ZyCaPooBw2lOU-29" value="" style="endArrow=classic;startArrow=classic;html=1;fontColor=#007FFF;edgeStyle=orthogonalEdgeStyle;entryX=0.104;entryY=-0.01;entryDx=0;entryDy=0;entryPerimeter=0;" edge="1" parent="1" source="vaxw1P1ZyCaPooBw2lOU-25" target="vaxw1P1ZyCaPooBw2lOU-6">
          <mxGeometry width="50" height="50" relative="1" as="geometry">
            <mxPoint x="820" y="180" as="sourcePoint" />
            <mxPoint x="580" y="430" as="targetPoint" />
            <Array as="points" />
          </mxGeometry>
        </mxCell>
        <mxCell id="vaxw1P1ZyCaPooBw2lOU-30" value="Nacos" style="text;html=1;strokeColor=none;fillColor=none;align=center;verticalAlign=middle;whiteSpace=wrap;rounded=0;dashed=1;fontColor=#007FFF;fontStyle=1;fontSize=14;" vertex="1" parent="1">
          <mxGeometry x="491.25" y="111" width="80" height="20" as="geometry" />
        </mxCell>
        <mxCell id="vaxw1P1ZyCaPooBw2lOU-31" value="服务注册&lt;br&gt;与发现" style="text;html=1;strokeColor=none;fillColor=none;align=center;verticalAlign=middle;whiteSpace=wrap;rounded=0;dashed=1;fontColor=#007FFF;fontStyle=1" vertex="1" parent="1">
          <mxGeometry x="501.48" y="210" width="53.75" height="20" as="geometry" />
        </mxCell>
        <mxCell id="vaxw1P1ZyCaPooBw2lOU-32" value="" style="endArrow=classic;startArrow=classic;html=1;fontColor=#007FFF;entryX=-0.042;entryY=0.574;entryDx=0;entryDy=0;entryPerimeter=0;exitX=1;exitY=0.36;exitDx=0;exitDy=0;exitPerimeter=0;" edge="1" parent="1" source="vaxw1P1ZyCaPooBw2lOU-6" target="vaxw1P1ZyCaPooBw2lOU-8">
          <mxGeometry width="50" height="50" relative="1" as="geometry">
            <mxPoint x="530" y="470" as="sourcePoint" />
            <mxPoint x="580" y="420" as="targetPoint" />
          </mxGeometry>
        </mxCell>
        <mxCell id="vaxw1P1ZyCaPooBw2lOU-33" value="" style="aspect=fixed;html=1;points=[];align=center;image;fontSize=12;image=img/lib/mscae/Cache_Redis_Product.svg;dashed=1;strokeColor=#007FFF;fillColor=none;" vertex="1" parent="1">
          <mxGeometry x="1078" y="418" width="50" height="42" as="geometry" />
        </mxCell>
        <mxCell id="vaxw1P1ZyCaPooBw2lOU-34" value="" style="endArrow=classic;startArrow=classic;html=1;fontColor=#007FFF;entryX=-0.042;entryY=0.574;entryDx=0;entryDy=0;entryPerimeter=0;exitX=1;exitY=0.36;exitDx=0;exitDy=0;exitPerimeter=0;" edge="1" parent="1">
          <mxGeometry width="50" height="50" relative="1" as="geometry">
            <mxPoint x="970" y="442.1400000000001" as="sourcePoint" />
            <mxPoint x="1077.984" y="441.9960000000001" as="targetPoint" />
          </mxGeometry>
        </mxCell>
        <mxCell id="vaxw1P1ZyCaPooBw2lOU-35" style="edgeStyle=orthogonalEdgeStyle;rounded=0;orthogonalLoop=1;jettySize=auto;html=1;exitX=1;exitY=0.5;exitDx=0;exitDy=0;fontSize=17;fontColor=#333333;strokeColor=#333333;" edge="1" parent="1" source="vaxw1P1ZyCaPooBw2lOU-36">
          <mxGeometry relative="1" as="geometry">
            <mxPoint x="580" y="627" as="targetPoint" />
          </mxGeometry>
        </mxCell>
        <mxCell id="vaxw1P1ZyCaPooBw2lOU-36" value="" style="image;html=1;image=img/lib/clip_art/people/Tech_Man_128x128.png;rounded=0;dashed=1;strokeColor=#333333;strokeWidth=2;fillColor=none;fontSize=14;fontColor=#333333;" vertex="1" parent="1">
          <mxGeometry x="419.36" y="594" width="80" height="65" as="geometry" />
        </mxCell>
        <mxCell id="vaxw1P1ZyCaPooBw2lOU-37" style="edgeStyle=orthogonalEdgeStyle;rounded=0;orthogonalLoop=1;jettySize=auto;html=1;fontFamily=Verdana;fontSize=17;strokeColor=#333333;entryX=0;entryY=0.5;entryDx=0;entryDy=0;" edge="1" parent="1" target="vaxw1P1ZyCaPooBw2lOU-67">
          <mxGeometry relative="1" as="geometry">
            <mxPoint x="668" y="628" as="sourcePoint" />
            <mxPoint x="718.07" y="617" as="targetPoint" />
            <Array as="points">
              <mxPoint x="668.07" y="628" />
              <mxPoint x="668.07" y="628" />
            </Array>
          </mxGeometry>
        </mxCell>
        <mxCell id="vaxw1P1ZyCaPooBw2lOU-38" value="" style="shape=image;verticalLabelPosition=bottom;labelBackgroundColor=#ffffff;verticalAlign=top;aspect=fixed;imageAspect=0;image=data:image/png,iVBORw0KGgoAAAANSUhEUgAAAGYAAABeCAYAAADR9mGiAAASdElEQVR4Ae1dCXdUVbbuX0OFhITME0kIIQQSJoFmFFvEp4CQkAmIYRYVbAZpaZ8gMoUEEOEZUURBG22Rx9BPbBsUxRZJVZLKPKdSVeec7619KzepSmq4U5JKr9RatU7ljnvv7+zx7HvzB4x9glICfwhKqsaIwhgwQToJxoAZAyZIJRCkZBmvMZyDNTeCt7UCQgQp28aQJXpsYI31gL3HmAu6XcVYYBhD55WLqCv8Exq256Ln/nf/seDw1ma0vLMHdeufRsvhP4N3tLmJVf9PQ4FxPP4F1jV/RFVmKKqyJqD5ze1gLU36qQzCK3R9cQmWOfGomjoe5pwodH39GQRzGkapocB0fHQGlnmJErFEcO1zM2F/+INhxAbThRq256Fq2oQ+Xht3FUJ0dxlGomHAiK5ONO7ehKppYX3EmrPC0fnpBcDAmWQY5zou5KypQvWiyX180iSsXpIB55NfdVzV81TDgCHNsL44z4NYIrhxVwF4R7vnXUf5X+3n3oN5ZrQHr+ZZMeioLDfMpxoDDOfovPwBzDmexEozaVEaHFW/jXIo+skXtm5Yc5d4WAbi0zwtDA1b10HYbP0H6/hlCDAUkTS9UeIxg4hYieDsSHRcLNNBYnCd2vP9HVQvTPXKa+3KWeh5cM8Qgg0Bxml+jJqnM70SSz6nLn85hMNhCMEjehHO0XryEMzZkV55tcyORfu5Y4DgusnUDYxw2NF5tRJVU0O9EktaY5mXBPtP/9RN7EhfgDVY0VC6yiefxGvDznxwA1IE3cDw9lbUb3rBL7Hm7IlSEjbSgtV7f9vdb1C9NMMvrzV/mg47JdY6P/qAEQL2n+9LCZbsU7yOmaGwvrQIvLlRJ7kjd7qw96Ct4gjMWf25i1des8LRXlkB4dRnunUBQzdvqzjsdwbJxFcvTEP3zS9HTrI67+y0VqO+xL9lkHml6EyvOdMFDJkxcuwyQf5G8/RwtLy7DxilQYDt+9uSr/THo7zPMjcBjkc/6sppdAFju3sD1YvTFQFDRNdvWAmn5Xedc3cETucMrSfe8ijByCD4GikJpeqz1o92YCh0fHdfYP/Sm88QA9ULJqH72y91zSStjOo5T9i6YF2z0FWcdePHFyi03bp2sbT8ofW+moFh9VbUFz+nWFtkJlqPHQQxOpo+tnu3QDmKzIOSkSrOPd/d0pzTaAam+8YXqAkQOnpjwJq7FORIR81HCDTv3Qzz9AhVwFRlhaPl8BuAU9tSgCZgKHRsPfZm4NDRi9pTsY9802j5sMa6gLmLtwlI2+rWLQadr+WjCRhnrQV1RSvUzSAZJFpA+8srWmgdkXM6P/8QNJl8Cd/fdloa6Prqiia61QMjBMjmmntX7/wR5nVfZihqlk8D7+rQRPBwnkTlpqbXigdVkr3yJU8893F6hDQJtdQJVQNDC2Ktxw+qilAGMmKeGYOuv10eThlruhflIrUvPqVJW2Se69Yvh+OJ+mUP1cA462pQu3K2LmKpH6B+82qAM00CG5aThHCtMc2J08WrZX4yuq5/CkBdx5A6YJgT3d/+DWa3tW55ZqgdKTF1/P5oWGSs5SasrQVN+7fqsgySTDJD0fzOHtX9AKqAoWaDpr2bdc0gGUAyZ+20gBakvWeOXx6g9oW5hvBKnUPOGrOq+aEKGKflCWqWZxlCLK3fNOzIA+8Mwn4AztD5eSWovidPJD0j5UDdt/8OMOWmWxUwnZcvwKLT5rozWPv8bFdToKq5NPQH8+5ONL6+Qb8Zc4vQmg9sU9UUqBgYCh0bXy3UlFS6g+H+25IThfYPy1XNpKGHBXBWP1FVnHXnyddvy8JU0BK8UtOtGBi7gTbXnXiamdTrHEwfalw0z5hoiBlz55Xah4XCEo1iYNovnIRlrqsl1P1men9XL5sKAj1oPoJL/chVmf2Ni3p5lM9v2LoW1P6k5KMIGAodG18tMtTmysSSg6UZCq6/s0QJw4GOsf/8L1ie6m/zlek0YqTASekkVASM87cf0Vi8DNZFicZ/Fyeh5fV82H/8HiSUkf62nzyAumWpxvO5KBF1z2Wi68rZQHND2h8YGO4Ae1gJ+75s2Demwl6cZPx3Yyrq8hZLNTSqo43U17rmKdg2TTWeP1lmr2XBea0UsAd+ZCMwMLZG8K/zwE4mgO2IA8szgeWOM/TrzA1BS5G+mpQRpqbxhQw4CiIN5a1PVhsjwE6kgH2UA1F7M6DW+AdGCIim+2Dn48FOm8BPTAbbEjcEhJtgK5w0JJGQUsDM0yeg7cUEsPww4/kjUE5NAysPAzsTDv7D24Dwv4DmHxinDeLBMbDT43q/IeBHJoFtijGceGfueNStnGF4iKoUmNqFiegpSDacL1YUDvbXFLDTYX1y5NdXA121frXGPzC2BvDPlvRdUAKoLAzsr5PACicYy0TeeLStnTIkkZ8ScBqejodzY7yxPOWHgL0RD1Ye7SnDi6kQdXf9Vpx9A0NmrPYm+LkBF5W0JxLsQBpYgbFq3/1SJKrnJQy71phnhKPtxSRj/Sf54tcSwM4kS26g3+qQ9TFBPDgKOH3nNH6AYRD/2A1W0a+CHhc/FQ2+OwUsP9SwWWYviEH9CuV9ako0QckxNbMjYS+dahgfksPfkQBe5g0Ul1vgny/1a858A9NlBb+y0Avasr8xgR2PBdsWaxhDzrwQtK6MRZVBVV0loNAx9UviwQrCDeODbYoEO06gjPc0YX2+epwUBICiMx+PbPgG5vFl8AvktGQgvI0hYMdTwEqiDWOquyANNQuG15x1vjwTLNegNGBDOPjRNFcE5ld24ySLBKf3HjvvwHAH+K2tvs2Yxw3Hgx9NBysxJlJzFEShbqG2rhSlGuJx3IxwODYlGQNM0QSwQ2lgFRMDTOhec/bxTKDTe4+dd2BaH4FfWaTo4q5IbTzYX5IghYa6k08TWl/KMGyRygMEt/UReXvzuhw488br13iKwPYkgJVHKZfbuRiIxx97DZu9ACMgHl/qTSq9mS8f28oiwf6cZEgwYCueDEu2ys5HL0KXhe9zzAyFbXM2WF6IfmB2xoFXJPrxyV7kVhEKcbME4IOTzcHAODrA77yiHHU3s8bLEsBeT9EddtIMti73fI7ep3C1ANJ7DiWVjjwDnP72BPCKyWCnQ1TLjX8yB2gb/H6AwcC0/QY62L/T94K+BJAJ/Hgc2Day2XrqaSa0bzCmEcIfoK3rpoHl60yUX44GO0YRmHpQJBmfT4D4uXyQOfMEhjshqq6ClYdqBIYACwF7LwmsJEoXOPb8GJhnDX5vgD9Bq9lnzo5A55pYfdpdHAb2dhJY+QTt8ioPAb9RDDg8O1M9gXF0gt87oP0mfWYtFOxIOthG7ZVaqjg3rJszZFWA+uWp6ClK0D55CkLB3koFOxejW17882UQbZ7dmoOAEf88pPtGrkgtDOxgCnhxhDbm80zoyEsZstpZ0zOxcBZN1EYbmem9KYNrYH0T05ep976dX3sGaH/iYc48gREcou4fYP9DjsykHyCK1CiEXK8t6ulZF4GapWmGa0317Ch05uoIUnbEg5XFGSOjc1Hg378JcLsfYGgXs0E8eh+sMhOsXKND85g5iWC7tJXTHevD0fRfxtfOaudHw1Gaqk1btsaAnZlsjGzejwG/vQPosnqAQn94aoy8m/VA1N0Bv75KYfbvXUVdkZ0J7EQ8+HYNgiBztip+0JuO1Dh5b8c2PTcJzvUaiq+lMWDvUZnKTw3MY1L6kosJ7KMZEL9eAHqaZal7jN6BoUOouNZpgeRzLqbqnCEhYEcTwCi0VBlG2wqTYV2cbJg5M2eGort0hvoSTFEY+CGdERi5B9KSv+cDjT8MMl/uyPgGRj6KOyAs10GRAy2LastvxrmKem+ngBWrS+ic+eFofDrOsCCgenY0nMUqK+K0trIvCfxsrHb+SZMqM8H/dRjoaZGl63MMDAydStrT/jvEd3v1hYdlEeAH08EK1S2wta/PgHmm9zceeTNV/ra1b5qnXlv2Z4CVk7P3ZZoCbKdc5auXIKy3AK7sVSbKgJFxtbdC/H4F7PJ8sAptSRU/FQm2e5KqxM5enIyauVG6zRm9B8axZZrye5OmvJIIVkaaoiFKJUA+nOJqvuis8bn2IovXfVQHTK/2iPbH4DdL1Rc6pRlncoWaOxJV+BsTGp/3/9Yjf1oi76t/Nh2UuCr2c5sjwU6SX9EQnVaEgl99BsL8hWIt0QeMfDZpz78vgn88U4OKm8BOJYNtVxpGm9BZkqNbYzqKZyivJJdMBDuWrs0yvB8HcW+/ZP6VdvfLYpVH9Rojn0kjs0M0/gD+TSGY1LShRt1DwI4kgr2sbIGNcprqBdqjs+q5MbCtVVi/KwwDp5YjtTWwignSOhaZezjogSx1z126i1YfMHQlelTP3gbx43GwyiywcjUxfhjYW4lgtPIXMIwOQXPRAs1a0/j8FDgKlU0Ctm8SWEWkOktwPl4y76L1kSpf4g6G+2/9wMhXo2jDehv8q7UqwYkEOzhFgUM2obsgCeYZ6hfQzFlhaH0+XlGXJd87GeyMq/NUcRT2yVyIXy8q6kmWxRVoNA4Y6U4CorMa/P4RMCkpVag9FKm9kRHQ/jtyw2BdMU211tTOj0N3wST/WkkR2KtJ4GVKQaFkMRb8xgaIxvuaHLw/cAwGpvdWVNKpuQF+7VmwsxEKTAIFA9FgOwM0ReSFomVNuupks25xLJwbA5T4Sye6qhMKF7z4pWzJfLuSRe2+xBc4QwMM3Y06OdufgFNSKjWlB0jCqGmdVgIDNK13rYmC5SnlT7ZJZmwVVZL9hMlFYWDvUneLgsoGOfiv10HU3QaE8qeQfQHga/vQASPf0d4OUXUN/NMFCgqi48HeSfXbp2YviAUtcsm5SaDRkh0O+5Ys32ZsfQj4f08Fqwig2ZTLfJgBcf8IBFWDh/j9BEMPDAFEryahpPTWNrDzgTpJaIEt2WdfNDVqtDwbK/0blECg0H7rQj9dlrROtJ+a8wKAQlpybQVE9dcAM/6f+Mhz2H0cHmDkOzo6pFJ3wGaP8kjw/ek+Z3lXQTosc5W9ca9zi5/a2O5EsDMBFrwuJEPc2wvRQW+2MN6XyKIZOA4vMHR3qlY3PQC/WQJ2ljoWfSSlZdHgezO9htGOgmhY5wdu1KAHbx0lXqIxqQZGTd+TfJdbKsJAjd9khv115Q8UqFF/Dz8wEuVCKn3zh+Vgl7LBKnx05ZyIckVqJEiPBNSElrVZAaOz5rU+mvlejgQ/muwblPNJ4Le2A63/HlIH7w/EEQKmlyTBIKx3pCjHe8uUvMA2uJTSvTFwUbOrxEslOc8ETgGG1+q4CfzT+a6VRR/N3v6EaeS+kQVG5qSrFvynE2AXqT41sJIbBnZ4CtgGz24bZx69KXCqz+isdmES7HkDumDWm8COzAA746Xcci4G/H9LIZp/MqSkIrOmdQwOYIh6SkrpCbYvV/b6Hve8h5Z1Mwb0RZvQVuK7dta8OgPOfDcw88eDvUlNFAMjMBP4pRyIh6dd6+9DHAYrBSp4gJEpppKOlJRSWO0OTjgY1bHcnmOxF8Z6fZEodVl2rKJH33uTSvJRu+LATg3oxD87UVpZRAP9W8jgeDOHLIbgA4Yoc3ZBWL4C+2zRANMWA77HHRwT6lfPGmTOrEuT0VPsttazNRqszN1MmsApWfzpJISN/h3k8IXBsuADjcEJDFFNzYdtj8HvvAr2QVJvWG0COxYHtqP/QdaO3DTPt7xmhqLpmTiwYldHDt8UAX5iSn8/Nj1n/+VKiJpvpR66QAIaqf3BC0yvRISjC/zRBbBP5vaaNnrXQALYJpdj71k7ETWLUvq0RjJjuWmu8Jr8yhECpbfKfTEN/P/2AN0NIyVvxfcNemAkTiisbvkZ/Pa23npbb6SWZ4IjPxJNK/ufpameFQFnKZm7cWBUAzsTIQHDry53lVS8PCSkWFrDeODoAEYWSE8L+C/vu/oMyiPB3s4BK5iAthfiYM5xtTc1rkiRtrEDFIFFg32QDH53F0Dd9ENYDZZJNGocXcAQ1+R7Gr4Du74GrJwitXTYNqSj9o+ud4z17JwHtise7FQC2OW54L9Ven2UzigBDtV1Rh8wsiS66yEeloOfz4Fz92Q0LImDZU6M62m2M9PB7+yEaKVH6IIv4pJZ8DeOXmCIK26HsN4F/6wUba8sQ9uWxWCVq8Fp/Z3aUIMkWfQHgK99oxsY4oqE32WF45sKOK8egmh6GHTJoi/h+9s++oHp5U44eyDs3t8y4U8AwbrvPwaYYBWwVrrGgNEquSE+bwyYIRaw1suPAaNVckN83hgwQyxgrZcfA0ar5Ib4vP8HRCvDcLHDXx4AAAAASUVORK5CYII=;" vertex="1" parent="1">
          <mxGeometry x="591.36" y="597" width="66.07" height="60.88" as="geometry" />
        </mxCell>
        <mxCell id="vaxw1P1ZyCaPooBw2lOU-39" value="CI/CD" style="text;html=1;strokeColor=none;fillColor=none;align=center;verticalAlign=middle;whiteSpace=wrap;rounded=0;dashed=1;fontSize=20;fontColor=#333333;fontStyle=1" vertex="1" parent="1">
          <mxGeometry x="374" y="560" width="66" height="20" as="geometry" />
        </mxCell>
        <mxCell id="vaxw1P1ZyCaPooBw2lOU-40" value="Developer" style="text;html=1;strokeColor=none;fillColor=none;align=center;verticalAlign=middle;whiteSpace=wrap;rounded=0;dashed=1;fontSize=17;fontColor=#333333;fontStyle=1" vertex="1" parent="1">
          <mxGeometry x="419.36" y="668" width="90" height="20" as="geometry" />
        </mxCell>
        <mxCell id="vaxw1P1ZyCaPooBw2lOU-41" value="source repo" style="text;html=1;strokeColor=none;fillColor=none;align=center;verticalAlign=middle;whiteSpace=wrap;rounded=0;dashed=1;fontSize=17;fontColor=#333333;fontStyle=1" vertex="1" parent="1">
          <mxGeometry x="578.9100000000001" y="666" width="90" height="20" as="geometry" />
        </mxCell>
        <mxCell id="vaxw1P1ZyCaPooBw2lOU-42" style="edgeStyle=orthogonalEdgeStyle;rounded=0;orthogonalLoop=1;jettySize=auto;html=1;exitX=1;exitY=0.75;exitDx=0;exitDy=0;entryX=0.75;entryY=1;entryDx=0;entryDy=0;strokeColor=#333333;fontFamily=Verdana;fontSize=17;" edge="1" parent="1" source="vaxw1P1ZyCaPooBw2lOU-44" target="vaxw1P1ZyCaPooBw2lOU-5">
          <mxGeometry relative="1" as="geometry">
            <Array as="points">
              <mxPoint x="1097" y="639" />
              <mxPoint x="1097" y="910" />
              <mxPoint x="506" y="910" />
            </Array>
          </mxGeometry>
        </mxCell>
        <mxCell id="vaxw1P1ZyCaPooBw2lOU-43" value="pull image" style="edgeLabel;html=1;align=center;verticalAlign=middle;resizable=0;points=[];fontSize=15;fontFamily=Verdana;" vertex="1" connectable="0" parent="vaxw1P1ZyCaPooBw2lOU-42">
          <mxGeometry x="0.5099" y="1" relative="1" as="geometry">
            <mxPoint x="-103.36" y="-21" as="offset" />
          </mxGeometry>
        </mxCell>
        <mxCell id="vaxw1P1ZyCaPooBw2lOU-44" value="" style="shape=image;verticalLabelPosition=bottom;labelBackgroundColor=#ffffff;verticalAlign=top;aspect=fixed;imageAspect=0;image=data:image/png,iVBORw0KGgoAAAANSUhEUgAAAIEAAAArCAYAAABfJ+vYAAAR7UlEQVR4Ae1a+VMUW5Z+f8rExETHTG8/zQ/zw0R3xHTE9A8dPdHTExM9M/G6R32uyL4WFKuIqKC4tMsT9aGyiPpU3FB5iojs+w6CG6AsVQUUtVFL5jfxnSKxgCoo6ce8CLsyIiOzsjLvPefc757znXPvFwgdf/UW+OKv3gIhAyAEghAIQiAIYQAhEIRAEAJBCAMIgSAEghAIQhigBULZQQgH3y8IVFX93k2qKArcbjfcbg94HzogdqBNXC4XnE4nnC6X2Gij9tmwJ+CAs3OLxYqZ2VkYjEZMTRvkOjs7B4vVKoJ9KjCkXacT8/PzMBgMeP3mLfr6B9A/MIi3b99J+/MWiyjvr23C0O5RYXF7T6cC/EXQdHugztugzlqgmm2A2yM4ZN92ux1Wmy2gLOsBVtOVbdhstoAg53sul1tsbTQa8ebtO/T09KGltQ2NTc1obm1DT18fRsfGYJqZkbY8Hq+c68nA/wOCgB0TbY6FBSwsLIC/eWiCU5iWtjaUlJXjwOEjSEhOQ0yCDkn6DOTlH0Pp1evo6u6F2WwOqNxKAdmf0WhCY1MLCi8WITUjC9FxiYiIjkdETDyi45OQnrkf31y6IgYwmWZERt92HB4VdSY3SsecKB5zyj0BsREgqAsuuHtew36qAracEjiKHkGZNHEqiqEfPqrCzVt30NHZJUDwlSOYe87ito5O3Lh5GxV374PgXiknZ/fcnBld3T24UlKGjOz9YgfaJDwqDhHRcQiP5jVe7M+xuHm7Aq9evRYZtXFbS56AIHC53Rh59QpPn9WgrqERdodDBnN2dhb1DY3ILziOqNhE7AmPxp6IGIRFxsrJ37v2RmFnWCTik1Jw9doNTE1PrwkECspZ1dPbh5N/PoOo2ARpY09EtCgaGZsAnlR692L7UXGJOPP1eQwOvlwGUpcCdM4pSOpx4A/NNuxqt6Fq2iWeYaWB1zIMnG6424cx99/7YfrxNsz8cxQcFyuh0BsAMJlMyMzOERuUX/8WVqt1zeb8/UlvWVZ+AxExCdDp0zE5NbU02fg+AfDhwwSulFxFbEIydoVFYvfeKOyNipV+ad8kfRoSdHrQHhwD2n53eBSS0zJx936leM71wkRAENjsdmkkLjEZ+7IPYGpqGu/GxlB0pUSQSIEIgkP5Bbj+7S1UP6tF7Yt63K98iDPnzgsqt+7Yg71RcYJggscfKvmMBqx9UYeU9Czs2BMhyD54+Chu37mHtvYODI+MYHjkldzfqriL7NzDCIuIkXezsnPR3tElQKDhONA2t4paoxthXXb8W6MVuzpteGpww+oJ0iO4PXD3vMHclkMw/u2XMP30K1j3F0N5bwQUL5QMRpN4vZ1hESguvQqLxeJvnNd8xm8uFZdhx+5wsenExMSSjWgXesXCC9+Irtt3hUOfliWgaWppkTDJ8Gs0mTA9bZAQ8aKhAecvXkJcog5f7QpDZEwCrpRelRDhz/aacIFBYLPh21sVgryEpBQZgPyCk5DZGR2H4ydPi0tmWLBabTIICwtO2O0O4QgcvKx9udi6fTei45JQV9/g12U6HA7xNInJqfhq116kZmbjSXWN8AubzS7kx6Mo4EkixNj5YWJC3GdsYjK27QxD5v4DGBx6KeRRA4LVraLa4BYAEAhhXQ68MHlg96zDEQiAoVGYdxXA+Hd/hOnHW2FJvQjP6LSEAc1wHCBdchr+UhBcLinDdj8gYAiuqa2TiUa70N4vh0cEbAwjK2c3f/P53NwcOru6cSj/iNiTE/W7J9WgnQMdQYEgOjZBZjsHM1GfjgcPHwv6SAz9IYzPGD4amlrEjXOgTp46K7HNVxCSFyqWsS9bkLsvJ1dCAgffX7vat1SYXONpdY0AbMeecJw+W7gM8Zyv5AKPp13Y3m7FbxutiOiyo2nGDfIGv4dHgWfkPSxRp2D80f/C9PdbYIk/A8/riWUA4Le+ILhSWr5BT2BFIBCY5+fx9fmLApAEXRqGXg7LJPArt89D2o1gGBgchC4tE1t3hmF/bh6mDYaANg0aBPQKBSf+LB6BGcFag0SZ+D9dVcGJUzJbE3SpmJiYXPYdCc+Fossymxh2Wtva4HAs+KgU+Jbtz8zMSqghCBgTW9s6lhmKQ212qXgw6cLWDquEhpgeG9pn3VhQVoQGepu3k7AkFcL0D1tg/NGfYAk/Ac/wOOBZnZr6gqCk7JpkQ4Gl9f8P7Uiy588TULec3DwJFUeOnRTv6r8V/08ZakjOGV7Jp3p6e1eRaO3LoEAQF69DS2s7RsfGQZe/HgC0xum6GcN37Y0UQRjXPYsGpRegC6dLp6DFZeXiKYJtm32wjaGhYRBAbONycemqGUkgzLlUVEy4sKXVC4SEHgd6zAqYPsqhKFDGDbBlXoLpJ9skDJh3HoV74N1SSrj45tJFQJCSJmRt4yCwLIGYmc+HDx8nCTlUbl4+tu/ei9y8oxIeP8U2DJ2t7R0SXvUZWWhqbvEbjqlQUCBI0qVicnJqVRxaskiAG6aXdNnkEUxh+gcGZOD4uhDPe5XCZpkGshbAFPFTD9YkTpw6I7MpKycXTBtXHgTCjEvF9fcu/LHNht812pDc70DfvAK3R4UyNQtbXjlMP98uRNC85ZAQQ9UVONeml0vSpy+CoHyDniAwCLyksRQ7F4ly1ZNqzMx4U+JgwMB3yCsoJ09ygkDfBQUCEiAi/1MPCvH8RZ2w2/DoeHT3fHRJjOmM41Qy+8BBjI2Pi5Lsh2STxSeDwefUnsn/XsWo3NjYuHgRegLWKcbff/CrLIFgcqooHXfhy1Yb/r3JhvQBB6Zn7HBcrYbpH/fA+Df/g7n/ypbUkCniWocvCMquXpdCzlrv+/uPA81wwHC20hNwJvf09EKnT8OW7buFIBZdLpF6AeM7OQM9LW3MybOSKPrrL9CzTQUBCcqL+gbJX5njd3Z2S+WLwkjMO5gv9YSCk6dw70ElDuTmIUWfiaTkVMTp9IhLSvGeOj3ik3mmSVFKl5IuszApJR3xSanYExmLP23bKSnR0NDLJW+zUmkCweBUcXnUiS3tNkR02/FuYh7WvGuY+adwmP8jE66GfrBItN6x2SDgrGXq/LT6GZLTssROrL0wvmdm5QhpvFVxB89r69Dd2yuhmhNozmwWL8sye7DHpoOgvrEJeyNjJfdnPs8iFA+67bR9OeJOzxZekHRUp8+QgWR+ywLK8pNVQ+8z/h8Zmyjvas8YbvTp+6S8vFZYIQ2YcSqoNbhQPe2E2eqEs3kQ9hvP4OoYhmpfIKtd134CgpR0GZyNe4LAxJACEAjMlMidikvLkZyaKXaU4txigY62pe70JGkZ2Th55mvcufcAAwODIK+gLQKFAU3JL4qLi7X7ZVe6Gq1OsNFwQE/QsAgCFo1YO6Cb40EQZGYfECOeu1CEV6/fyACyarh09vRJjZx1cj7r1v7Tnmu/F6+Dg0NCDNdWWoXqscJpeYkFyyDcbhtM81MYm36NGYsRHiW4GcRwRY/FOgFL56z+feqxVnbg2xYJMN99/2ECzS1tQrbPXfgGB/OOIjklXdJkelpWDMm/eLLCyKIdvQSrsWvZZNM9QUNTs9cTRMUJW9VAQJTmHTkmrJ4pEBc+6MKI3I2fnjWVlTKRew6YugG1/bdQu/4T9vk+VL55gNzmQ7jUfxkfrB+gqFra4DsUy+8JgvjkVOz4fwCB1jMHkrUZTlByAtqQvOntu1FZv+BaRuGFIvEYLB8z9ZTMoKUFC06n1syq6w8GApKiosvFAgIWoN4HIHSrJN7wAxVwm4Hp21Dafw21/qdQu7+EwzqMZ2PVSK1LR1JtMq70F2PSNrkuEAiCuCS9yE9yx5n6qUcgT8DB5mQh6aM3XWsWs0+SQq4yskBnNs/jzbt3smbDRTeW7nMO5a1al/CVdfNB0Oj1BCvDAYtCXJziGgDd2LPntaK0r3Df370KeCyA4QHUtt94AdD1e2D2OVTFAZPDhPKha9DVpshZNngVBrthTSCIJ9DpZbZxVZMrgJ9ycGCZ3l4uXl0sIgDIA6pratHY3LJmyddfnwQF5Ssrvy7ZFzlDU3MrnE7/hHfTQRCIGFLQd6NjstrFsnLe0eOYmFy+iuZPQX/P2BZnjf8ZQwBYAWOVNwTQA3T+DjA9ARSuCKoy2Jz9lweKkfhch+QXetwY/lbA4b9N7ypiela2pHenvy6UMrY/2fw9Y4w3zcyiu7sXF4qurKoYkgxyaZmFNC6nc58AdfyUg6GVtRd6A4aG+5WPxFP4a2PzQdDQuJQict2dbks7GBKu3bgpS59hkTG4efuOxLlAhte+0658j+gmYWIqyjL08m9VQLEDszVQu34vHkDp+A1grPR6Bp/Ve4/qwbjlPc73XER8TSL0damoeHUHswuzWFFglu7Z17GTp6Wix7WPlSVxTUbfq1dep2yOuXSlRFYfz567sAoEWmodHuUleo+rngi5821rvXvyqp6+fskcuLR8/+EPCALuRaC758aHjq6PdQIqQXQT5QcO58v6AtMcIpaujEoEOmhMppqzc3OSceQVHAfTy9q6Bp+QQgA4gLl6KN1/8IaA1n8Fpm57uYEPALR+mBm8Nb/F6c4ziKtJEJ5Q+eYhzE7zKiBos5WzjPo9qvpuzcyEurJA1t7RicP5RxETnwQC4Wyhd5GIumtLydSP+wgy9u3Htp17kJmTKwttwfAD6sLvSRq5z4G1BRbqmlsYDvyTw033BFxC/ggCeoLlcYm/uQOJBRAumTJ+Mf1hSsiNG0y9SHhY9mSpmbGXjJiAoitllZBVx9SMfQKIpbinOAFzC9TeL6HW/wxK26+AiauAe1ZCgDbwK69uxY2R2REcbzuB2Jp4pNdn4MnoU1ic3PXzsX5Al861kJS0TKnoJevTZbMNsxzKSr148p6DzxSYg8KNIBwYbkhh+nzx0upwQJmY1lU+qpJaCFn+oSPHJQPgVj6W49m/78GBZwigrVhRpPcg0Lbu2C37L1ZuWPH99gcHAYVnPOegH84/JruUWALmsvXh/AJwceZB5SM8qnoicZIkLDvnkFTOOAu5yyav4Bg6u7sFJGwPqguwdEHt2wo0/Bxo+QXw/hvAxdL3x4H0NYTvvdPjxMDMAPJajyL6WRwyGrLw4n0drC7rMiAwVeNAEYiybyI+CecKL8r6PVc0W9vaUfXkKc5fLEJicpqEPRZ38o8eR29vn3g8f8SQslAPFqQuFZdKXP9q517p59SZQjx5+kw8AzeVcKLwvYnJSeEAXObnai8nEzMDgq62rt7HQ/pq6r3fdBA0tbSCy8g0Amvhgdw8nzNNJC/QZ2bLjiRuVfNmD9r2NV5j5BkrhdkHD8sg0ACcdQIAKIBjDOpwCtDyS6D1X4CxU4BzKigAaCZa8Cygc7oLB1sOC1E80nYUfcZ+uJSPYYr9kRs8fFwlBJexl6d4vqg40YGDzgofr6npWbJbiq6e8rIsXH7jpgBen561Ko1jCKHXq7h7T3J/FoEk/ETEyCSgXVPT90nfJJG0Cd/hFjSG3+yDh2THFlNRr2007ZZfA4PAbsede/elHJmZtV8Qt/zT9X/RZXFguQLG3S1TU4Y1Wa6iqLJ7l4tARC/31rGQxJ1DLDEz3z115hxu3qqQDZqcCXR/yxRU3YB9BJi6BUyUAIb7gNNABrK+wD5v0PUTCCNzI3g2VoOa8ecYmhmCS1keztg3PcLwq1e4VXEP+QUnoEvNQEy8TmYuS7lcKHv83VOMjo6JfhrTJxC4i5r/MR3kruNluix6BD7nDuPKR4+FjCbqUiVMMO2mJ/SecfKMfZ8+ex41z1+IdwicNX1UNiAIKGBvXz9u3bmLR4+/E0U/fhb8HYHAuMhzZRwL1IrCEOF0CtEi+WOcZZmZ8ZDxlUZnlrHSYN72FsOBx+ZNDUkOgwgBgWRh1uDwOAQQTo9rWTjw/Ya6kbNQXhJbxmDuy+SiDgs41F8bfO07yk87i30Cprjet/kt32P7zET6BgbR0NiM6prncvKe6wXslzYKZvA1OQKCQBOQBue+Qf8G15oJXVdagPbaLJuxXYZPsn0ONk/eE4gb6TMgCFYqFfr9+VogBILPd2yD1iwEgqBN9fm+GALB5zu2QWsWAkHQpvp8XwyB4PMd26A1C4EgaFN9vi+GQPD5jm3Qmv0fjuxR6EfoLAcAAAAASUVORK5CYII=;" vertex="1" parent="1">
          <mxGeometry x="947.59" y="606.5" width="129" height="43" as="geometry" />
        </mxCell>
        <mxCell id="vaxw1P1ZyCaPooBw2lOU-45" value="Nexus" style="text;html=1;strokeColor=none;fillColor=none;align=center;verticalAlign=middle;whiteSpace=wrap;rounded=0;dashed=1;fontSize=17;fontColor=#333333;fontStyle=1" vertex="1" parent="1">
          <mxGeometry x="965.11" y="668" width="90" height="20" as="geometry" />
        </mxCell>
        <mxCell id="vaxw1P1ZyCaPooBw2lOU-46" value="" style="html=1;fillColor=#5184F3;strokeColor=none;verticalAlign=top;labelPosition=center;verticalLabelPosition=bottom;align=center;spacingTop=-6;fontSize=11;fontStyle=1;fontColor=#999999;shape=mxgraph.gcp2.hexIcon;prIcon=container_registry;rounded=0;dashed=1;" vertex="1" parent="1">
          <mxGeometry x="467.36" y="819.4399999999999" width="62.64" height="55.62" as="geometry" />
        </mxCell>
        <mxCell id="vaxw1P1ZyCaPooBw2lOU-47" style="edgeStyle=orthogonalEdgeStyle;rounded=0;orthogonalLoop=1;jettySize=auto;html=1;entryX=0.5;entryY=0;entryDx=0;entryDy=0;dashed=1;fontSize=17;fontColor=#333333;strokeColor=#9933FF;" edge="1" parent="1" source="vaxw1P1ZyCaPooBw2lOU-48" target="vaxw1P1ZyCaPooBw2lOU-30">
          <mxGeometry relative="1" as="geometry">
            <Array as="points">
              <mxPoint x="721" y="80" />
              <mxPoint x="531" y="80" />
            </Array>
          </mxGeometry>
        </mxCell>
        <mxCell id="vaxw1P1ZyCaPooBw2lOU-48" value="" style="html=1;dashed=0;whitespace=wrap;fillColor=#2875E2;strokeColor=#ffffff;points=[[0.005,0.63,0],[0.1,0.2,0],[0.9,0.2,0],[0.5,0,0],[0.995,0.63,0],[0.72,0.99,0],[0.5,1,0],[0.28,0.99,0]];shape=mxgraph.kubernetes.icon;prIcon=job;rounded=0;fontSize=17;fontColor=#333333;" vertex="1" parent="1">
          <mxGeometry x="681" y="135" width="80" height="55" as="geometry" />
        </mxCell>
        <mxCell id="vaxw1P1ZyCaPooBw2lOU-49" value="" style="endArrow=classic;startArrow=classic;html=1;strokeColor=#333333;fontSize=17;fontColor=#333333;entryX=0.5;entryY=1;entryDx=0;entryDy=0;entryPerimeter=0;" edge="1" parent="1" target="vaxw1P1ZyCaPooBw2lOU-48">
          <mxGeometry width="50" height="50" relative="1" as="geometry">
            <mxPoint x="721" y="273" as="sourcePoint" />
            <mxPoint x="870" y="420" as="targetPoint" />
          </mxGeometry>
        </mxCell>
        <mxCell id="vaxw1P1ZyCaPooBw2lOU-50" value="XXL-Job" style="text;html=1;strokeColor=none;fillColor=none;align=center;verticalAlign=middle;whiteSpace=wrap;rounded=0;dashed=1;fontColor=#007FFF;fontStyle=1;fontSize=14;" vertex="1" parent="1">
          <mxGeometry x="681" y="109" width="80" height="20" as="geometry" />
        </mxCell>
        <mxCell id="vaxw1P1ZyCaPooBw2lOU-51" value="" style="html=1;aspect=fixed;strokeColor=none;shadow=0;align=center;verticalAlign=top;fillColor=#3B8DF1;shape=mxgraph.gcp2.lock;rounded=0;dashed=1;fontSize=17;fontColor=#333333;" vertex="1" parent="1">
          <mxGeometry x="616.4000000000001" y="156" width="15.6" height="20" as="geometry" />
        </mxCell>
        <mxCell id="vaxw1P1ZyCaPooBw2lOU-52" style="edgeStyle=orthogonalEdgeStyle;rounded=0;orthogonalLoop=1;jettySize=auto;html=1;fontSize=17;fontColor=#333333;dashed=1;entryX=0.5;entryY=0;entryDx=0;entryDy=0;strokeColor=#9933FF;" edge="1" parent="1" source="vaxw1P1ZyCaPooBw2lOU-3" target="vaxw1P1ZyCaPooBw2lOU-30">
          <mxGeometry relative="1" as="geometry">
            <mxPoint x="570" y="149" as="targetPoint" />
            <Array as="points">
              <mxPoint x="627" y="80" />
              <mxPoint x="531" y="80" />
            </Array>
          </mxGeometry>
        </mxCell>
        <mxCell id="vaxw1P1ZyCaPooBw2lOU-53" value="k8s" style="text;html=1;strokeColor=none;fillColor=none;align=center;verticalAlign=middle;whiteSpace=wrap;rounded=0;dashed=1;fontSize=18;fontColor=#333333;fontStyle=1" vertex="1" parent="1">
          <mxGeometry x="428.68" y="890" width="90" height="20" as="geometry" />
        </mxCell>
        <mxCell id="vaxw1P1ZyCaPooBw2lOU-54" style="edgeStyle=orthogonalEdgeStyle;rounded=0;orthogonalLoop=1;jettySize=auto;html=1;entryX=0.882;entryY=-0.002;entryDx=0;entryDy=0;entryPerimeter=0;dashed=1;fontSize=17;fontColor=#333333;strokeColor=#FF8000;strokeWidth=2;" edge="1" parent="1" source="vaxw1P1ZyCaPooBw2lOU-55" target="vaxw1P1ZyCaPooBw2lOU-6">
          <mxGeometry relative="1" as="geometry" />
        </mxCell>
        <mxCell id="vaxw1P1ZyCaPooBw2lOU-55" value="" style="aspect=fixed;html=1;points=[];align=center;image;fontSize=12;image=img/lib/azure2/monitor/SAP_Azure_Monitor.svg;dashed=1;strokeColor=#007FFF;fillColor=none;" vertex="1" parent="1">
          <mxGeometry x="928.75" y="140" width="62.5" height="50" as="geometry" />
        </mxCell>
        <mxCell id="vaxw1P1ZyCaPooBw2lOU-56" value="Druid监控" style="text;html=1;strokeColor=none;fillColor=none;align=center;verticalAlign=middle;whiteSpace=wrap;rounded=0;fontColor=#FF8000;fontStyle=1" vertex="1" parent="1">
          <mxGeometry x="920" y="113" width="80" height="20" as="geometry" />
        </mxCell>
        <mxCell id="vaxw1P1ZyCaPooBw2lOU-57" value="" style="outlineConnect=0;fontColor=#232F3E;gradientColor=#F34482;gradientDirection=north;fillColor=#BC1356;strokeColor=#ffffff;dashed=0;verticalLabelPosition=bottom;verticalAlign=top;align=center;html=1;fontSize=12;fontStyle=0;aspect=fixed;shape=mxgraph.aws4.resourceIcon;resIcon=mxgraph.aws4.mq;rounded=0;" vertex="1" parent="1">
          <mxGeometry x="805.5" y="140.75" width="44.5" height="44.5" as="geometry" />
        </mxCell>
        <mxCell id="vaxw1P1ZyCaPooBw2lOU-58" value="RocketMQ" style="text;html=1;strokeColor=none;fillColor=none;align=center;verticalAlign=middle;whiteSpace=wrap;rounded=0;dashed=1;fontColor=#007FFF;fontStyle=1;fontSize=14;" vertex="1" parent="1">
          <mxGeometry x="787.75" y="111" width="80" height="20" as="geometry" />
        </mxCell>
        <mxCell id="vaxw1P1ZyCaPooBw2lOU-59" value="Seata" style="text;html=1;strokeColor=none;fillColor=none;align=center;verticalAlign=middle;whiteSpace=wrap;rounded=0;dashed=1;fontColor=#007FFF;fontStyle=1;fontSize=14;" vertex="1" parent="1">
          <mxGeometry x="580" y="108" width="80" height="20" as="geometry" />
        </mxCell>
        <mxCell id="vaxw1P1ZyCaPooBw2lOU-60" value="" style="endArrow=classic;startArrow=classic;html=1;fontColor=#007FFF;edgeStyle=orthogonalEdgeStyle;entryX=0.292;entryY=-0.002;entryDx=0;entryDy=0;entryPerimeter=0;exitX=0.542;exitY=1;exitDx=0;exitDy=0;exitPerimeter=0;" edge="1" parent="1" source="vaxw1P1ZyCaPooBw2lOU-3" target="vaxw1P1ZyCaPooBw2lOU-6">
          <mxGeometry width="50" height="50" relative="1" as="geometry">
            <mxPoint x="541.3" y="192" as="sourcePoint" />
            <mxPoint x="540.96" y="282.0450000000001" as="targetPoint" />
            <Array as="points" />
          </mxGeometry>
        </mxCell>
        <mxCell id="vaxw1P1ZyCaPooBw2lOU-61" value="" style="endArrow=classic;startArrow=classic;html=1;strokeColor=#333333;fontSize=17;fontColor=#333333;" edge="1" parent="1" target="vaxw1P1ZyCaPooBw2lOU-57">
          <mxGeometry width="50" height="50" relative="1" as="geometry">
            <mxPoint x="750" y="163" as="sourcePoint" />
            <mxPoint x="731" y="200" as="targetPoint" />
          </mxGeometry>
        </mxCell>
        <mxCell id="vaxw1P1ZyCaPooBw2lOU-62" value="" style="endArrow=classic;startArrow=classic;html=1;strokeColor=#333333;fontSize=17;fontColor=#333333;exitX=0.712;exitY=-0.01;exitDx=0;exitDy=0;exitPerimeter=0;" edge="1" parent="1" source="vaxw1P1ZyCaPooBw2lOU-6" target="vaxw1P1ZyCaPooBw2lOU-57">
          <mxGeometry width="50" height="50" relative="1" as="geometry">
            <mxPoint x="731" y="283" as="sourcePoint" />
            <mxPoint x="731" y="200" as="targetPoint" />
          </mxGeometry>
        </mxCell>
        <mxCell id="vaxw1P1ZyCaPooBw2lOU-63" style="edgeStyle=orthogonalEdgeStyle;rounded=0;orthogonalLoop=1;jettySize=auto;html=1;exitX=1;exitY=0.5;exitDx=0;exitDy=0;entryX=0;entryY=0.5;entryDx=0;entryDy=0;strokeColor=#333333;fontFamily=Verdana;fontSize=17;" edge="1" parent="1" source="vaxw1P1ZyCaPooBw2lOU-67" target="vaxw1P1ZyCaPooBw2lOU-44">
          <mxGeometry relative="1" as="geometry" />
        </mxCell>
        <mxCell id="vaxw1P1ZyCaPooBw2lOU-64" value="push image" style="edgeLabel;html=1;align=center;verticalAlign=middle;resizable=0;points=[];fontSize=15;fontFamily=Verdana;" vertex="1" connectable="0" parent="vaxw1P1ZyCaPooBw2lOU-63">
          <mxGeometry x="-0.2688" y="3" relative="1" as="geometry">
            <mxPoint x="14.59" y="-18.11" as="offset" />
          </mxGeometry>
        </mxCell>
        <mxCell id="vaxw1P1ZyCaPooBw2lOU-65" style="edgeStyle=orthogonalEdgeStyle;rounded=0;orthogonalLoop=1;jettySize=auto;html=1;exitX=1;exitY=0.75;exitDx=0;exitDy=0;entryX=0.5;entryY=0;entryDx=0;entryDy=0;strokeColor=#333333;fontFamily=Verdana;fontSize=17;" edge="1" parent="1" source="vaxw1P1ZyCaPooBw2lOU-67" target="vaxw1P1ZyCaPooBw2lOU-80">
          <mxGeometry relative="1" as="geometry">
            <Array as="points">
              <mxPoint x="903" y="646" />
            </Array>
          </mxGeometry>
        </mxCell>
        <mxCell id="vaxw1P1ZyCaPooBw2lOU-66" value="update image" style="edgeLabel;html=1;align=center;verticalAlign=middle;resizable=0;points=[];fontSize=15;fontFamily=Verdana;" vertex="1" connectable="0" parent="vaxw1P1ZyCaPooBw2lOU-65">
          <mxGeometry x="0.0792" relative="1" as="geometry">
            <mxPoint x="-0.010000000000001563" y="42.52" as="offset" />
          </mxGeometry>
        </mxCell>
        <mxCell id="vaxw1P1ZyCaPooBw2lOU-67" value="" style="shape=image;verticalLabelPosition=bottom;labelBackgroundColor=#ffffff;verticalAlign=top;aspect=fixed;imageAspect=0;image=data:image/png,iVBORw0KGgoAAAANSUhEUgAAAIkAAACKCAYAAACesGlnAAAgAElEQVR4Ae29BXRV59YufMc95/u/+/33u/dU8CTb3S3ZcXdBEoITCO5eirtboTjF3Z0EC8E1eEiA4FKKe7197phzZ6UbGlpokxQ43WOssXZW9l57rfd91tRnzvd/4O/X3yPwOyPwP37n/3//++8RwN8g+RsEvzsCf4Pkd4fo7w/8DZK/MfC7I/BvBZKff/4ZP/30E7777js8f/4cjx8/xv179/DVrVu4fu06Ll+6hILz53E2Px9n88/yezp2/fp1/sz9e/f5O18/f87n+PHHH393gN+HD/xbgYQAcv/+fZw6eRKZGRmYOeMLDOzXHy2bN0edlJpIiI5BkJ8/vC1W+Njs/D4hNhZ1aqaiVdNmGNx/AGZ+8QU2Z2bi1KlTDLD3AQS/dw/vNUgIFN9++y3u3buHM2fOYOrkKahfqw6S4uIRGRaOAKcvzHoDVDI5ZF5iSL1EvEk8vSBswjGFWAKLwcjfiY6I4HM0qtcA06dNQ35+Ph4+fAiSLCSt3rfXewcSmqTvv/8eT548wc2bN7Fr506MGDoUTm9v0ETLROKiTSGVQqdSwaTVQuolhUTkCZnEC3KpiDd6LxV7QuzlCbVcAZNOC6NWC61CCblYwpvYywtRkZGYMmkSzuTmsjqi33+fXu8dSGiCyKaYMW066tWqBZVYDI1CyZOslMp4YiVeInhUqgyDVoM2zRpi+oQh2LJqFo7tXoOC41txNXcHbwXHt+HU/g3Yk7EIK+Z9jomj+6F7p5ZIrZYIiZcXKpUvD4VExufXqzQICwrG1EmTcfHiRbZ93hegvBcgIbXy7NkzXLl8GXNnz0a1xER42+ww6fSw6A2sJkgS0NOvlMng67ChRXpdrFk0BeeOZOL22d14ePEAnl49jGfXc/DcbXt69QgeXz6E+xf241beTlw6sQ0n9q3Holnj0LV9UyTGRMCk07HKovP7OrxRp3ZtHDxwkKXZ+6B+3mmQCJ7Ko0ePkLV9O5o0agyLwcBP9scffYTaNVMxacIE9O7RA95WK6uWoEAn1i2fgVvn9uLZtSP4+noOvrmew/uvr9PfR/A1HS/8H/3ftR3Bcz7m+gx99/6lA8g7nIHJ4wdD6UVqyYNBqFOpER8ZjZ07doA8IbrOd/n1ToPk0cOHOHjgALp27gKNXAG9RovUGjUwZuQI7MzazttnY8Yg0N8fsRFhmDx2IC6eyMIDkhpXDhdO/lHeP792GM+uHMSzS/vw9NIePL24C0/O78Djc9vx6OxWPMrfgkd5m10bvc/fggf5W3DvzBbcObMN+Yc2YOq4AUiMCWebh1QceUYZGzeyu/0uS5R3DiT0VH7zzTc4f+48Rg4fgYS4OJiNRqRUr4HhQ4Zgy6ZN2LUjCwvmzkWTxo0R4O1E88Z1sG3dPNwulB6kTkhSPCf1cnk/nl7c7QLE2W08+Q/zNuNhXiYe5WXi4ZmMou3RmYzCY+7HM/mz93IzcPP4BmStnor0utWgVSph0GiQEBOLJYsXs4f1rgLlnQKJYHvs378fyVWrw6DRokrlyhgzciT27MzGubwzWL9mDXr16MmuqlIuxczpY3A9dyeeXDlUpDZIfRA4WErkuwDhDgZ6TwB5k034/r3TG5G/ewk6tqkPjVIOrVKF0MAgrFu7Fl9//TV+/undc5HfGZAQQCgQtmjRIji9fVyqJTkZK5YtxYmjOdi+dQs+GzsOTdObIiQgAJEhQVg8ezxun9uDJ5cPuewJkh5XDrDUcE2qSwq8CRh+77MPzmTg9on1yN+zFK0a1YJKpoBGqUK1xCRkbdvOUvBds0/eCZBQkIriHjOmTUN4SAhkEgnSGzVCxob1OJ6TgyWLFmHQgIFo16YdIoJDERsZhjWLpuJW/u4i45RsjicXd+Hx2a2sHoQn//cm/Y/8n4ByPzcDRzbPQb2aSZCJJNCrNUiKjceB/fvZRnmXgPJOgITyLBRGVyuV0MiVaNuqFY4cPICTx45h4fz56Nq5G1q3bI3aNWshJiIMm9fMZTe2yDMhgJzfgYd5Lvvij0z8635HAB/t753ehDP7liE+MhhysZRVT4umzXChoOCd8njeepCQsXfy+AkkV60Gk1aHhvXrY9/uXTiec4QlSJfOXdChXQc0a9IUocFBWDp/Iu4W7Cu0P3Lw/OqhQoD8YmwKEy5MKBmk9F44/mf2rnNmsgH8uCAbd/KysXnNHEQEB7DXQ9HaIQMGFoXx3wWJ8laDRDBUx40dC6NOh6jQMKxZuQKHD+zHnFmz0KpFS6Q1SEODevURHxONoQM/YSPVFc9wAeQxSZAzvwBEAAZ7L/mbWf08Zq+G3FvX5/40SPI24+mlvbh3fg+untqO4/s24NMubSEvTAnEx8Rg7549nFf6GyR/cgQoxH758mW2P8p99BH69u7NwbG2LVvCbjJzRJUSdBRNDfL3wbE9a/Ho0kGXFLl2BE/OZ78SIPSUP764F8+uH8bzGzl4emU/HlLsI3fTH5YqDMC8TNC57188gE0rZ6JP97ZIS62BhrVTYDUYQKkBo1aHT7t98s5EZN9aSUIAuX37NhbMmwd/H6cr5+LhAYVECr1Gw8ciQ0JRl/IzcjkCfO3IPbDRBZJrR/D04h4OfAmSw6VSSA1sxZOLe3Hn/B4c27UaU8cPRp3kqmhcLxlr5o/F1cMrQW4sfe+NJQp9J38zbuftwNJ5ExDo6w2VXAq5RMLXLeSOlFIpZGIJTp8+zbyUP/kslfrX3zqQkA3yww8/4NzZs+yxaBQKzotQIs1qNCE2MgotmjTB/NmzsTUzE3t37UJocDACvB3YumYO7hfs48gpgYHUjKBCGCykXi7uxaVjWzn6mpwUA5lYzABUy2QI8XNg9ewRuHtq45sDhOIqhSC5c34XenVtiepxoUhNCkf1uBBEBfvBbjJAKZGybaKWyplmQCmFt/311oGE3N27d++ie7dPOLVP6XyvKh5wWG2YOmkSdu/YgYKz+di1YwcWzZ+PieMnoEnjdAT7+2LhrHG4nb8TLjvkF2P0FzWwC7fO7UG3Ds2gkEjgWbkKyn/0ESKDfNG0bjXUTIzCxKHdcOfUhj8EEkH63MvfguzVU5C3azFuHluLq4dX4XDGTMyZ1B9B3nZIPMXsEqfVq4+rV6++7Rh5+9jyFJXcsG49gv0DWH+TvVE9MQk7tm3lqOr2LVswbPBQdGzfEd26dEOXTl2Q1qAhAn19MHPycHx5eltRHERQFzx5Z7fhq7xdGDO0F8x6Pcw6Hdo2qYU966fj2rG1+PLEenyVm4Evj69ndSN894/sya756vg6lkj3czeBNgqwXTmwAvsyZqJ6XAQoCehn88aunbv+BsmbjAB5M3fu3EHjBmnQKVWsxyk3Q6H2A3v34otp09Gj+6ccNGvftj3vKYDWoG59BPs5MWfaSFw/uu6XXEtR/mUT7p/Nwv7tK2C3mOG0WTF+WDdcOLgSd09v+kVquKmnPwKO3/oOAZXAc+f0Rmxc/BlCA3yZYkCS8Mcf3m5G21ulbr7/7jscPniIXUWJhyfUEil2Z2dj3+7dGDNyNMdDCBS0EUiErU5qbYT4+2LZrFG4kbP6VyChybl5eguGD+yOyhUqY1DPtrh5Yh0/4YKK+K0JLrH/ncnEg9wMXDm0EkN7tgHdY/vWbfDk8ZO3Orj2VoGEQu9z58yFUiKDSipD3549cWj/PkyZOAmdOnRiULwMEAqkJcYnIsTXB5mLx+PWcZckcZ/Y+6c34uKRdWidXhfpdarjVPaCMgeIe6zmzsn12LFyEsp9+AHS6tbHjes32Fh/E6lblp99q0By7+5dDB44iPU1sdbJMN2wbm2RinkZICRJOrTvCF8fX/h723E4cybunPy10UmS5MqhVejVMR3r5o3CzaNrfiVt3EFF4Xv6zh92hYvJINO57p7cUPS7lw+tZE+nVkpNnMk9w7zcspz4N/mttwokRFxu26o1g6RqQgIyN25Avz59i5Uggqoh4JBxG+pvYzF+393GKLJJKI+yEef2LGWAkCH5qND+eAEcheH5x/mbce3Ialw8sBwkhdw/8/J7UlfC9vL/6G9Bgnx5dC22LfmM4yiP8jNx+/RGNExJQEr16jh08OBbHX19q0By5coVNKhbj+mHNHjLlyxB86YtfmWDuAOkRbMWXA7RKDUJ938jB0OZWWErzg7hiSZQ5W/Gk4IsZC6bjNUzR7CXUtzkuwDgSuIRAIuTOgJ4CChESBrdvxOOZ83H3VMbcOfURgzs1hKxUTHYvm0bc03e5Okuy8++FSAhr4YyvTuydiAiJIy9muRq1TB18mS0btkKbVu3LTJSBYDQno43atiIbZix/TviyTmiGL4ZWcj9aX90dgtTF7+5eRRZG+ZjSM+2+PL4WgZXcecliXRu9xKsnTMCN3LWsFHq/jkBeI/PZ+POud2YMWkoPhvUCVcOrmC1+Pmw7ggJDMG6NWveavrAWwGSb77+mp+mxPh4BojYwxOkbkaNGPmbqqZNqzaoW6sOtAod1swZhcdnXUk694l6nfcsWfK34NmlvZz3IWL0ib3rUKdmEo5lzS9WStB5753aiJyMmaiVFIGDm754ASSCFHl8bhueXz+Cx1cOITtjIRIig3Bg0xccsJs9YQD8nf5YtnQps/3LUjq8yW/95SChsPTO7GwEBQTAoNVBKhKDQJIYG4ehgwez2+suPdyNV+KQ1EpJhVlvxr610/6QFCkC0dlteH71IL6+4SJG38jNxsjBn6Jnx3Sc37eUpQmDyU1Skf1TsG8ZwgLs+KRNQ9zN3cQGL51TkCKUQyIG/tOrh3AtfydiwwIwdmBHkOG6bNpQWI1m9OnVC1999dVba7z+ZSAhFcPR1fUbEBoUxManWiyBViyB1NML8dExGDxgIJOJWrVoBWEjYJCaIbC4QFITQb4+OLp59p8DCUmSy8RDcZVTUB3Owazl8LbqMXFYN1zLWf0riUJAeJCXibjwAJh0SuxdPx23T64vMmTJBnp4NgsPC/bibv4OXDq4Br06N0NKYhR2rZmC1bOGw2EyQuTpidEjR+HmjRscL3nbCNN/GUgIINk7shETFe2qrpNI0UitRlO1CgqRGFEREejdsycS4hIQHhKKYP9AhAWHoFpiVTRplM4gadOqNWqn1oKvw44jGbP+OEgKM75Pzm3Dsws78fTCLrAdkbsZg3q0QmSwH74Y2wtfHlv7wm9wAjF/M5bNGAo7SYQuLdgjEhhw5I6f2jEf2SsmYu3sEZg+uifq1IiDWavFJ60bYu380QjwtnICk+gDw4YOw4P7D7im+E3UQWl/9i8BCRUsHc3JYYAYdHpoxBK01GiwxduOIQY9g4QGzcfmYABRWaaoigerIapnsZksSKmejBbNmnPeRqdWYfOS8X/YJiED9PqR1chaPhEb5o/F/g1f4GTWApzYPg/zpgyGv8OKcF8/3Dix/gWQCGqlYP9yNKufDJNOg6UzhuDLY+tY7VzPWY1P26chISIIIb4OOK0mqOWubPPUEd2RuXQ8H6fKP5lEyp0Mpk+Z+tax1soUJCRGSc1QrW7DevWhkMqgEkvgVCiQ6+fEGT8ftNOoQWqHOBgU/6BUfuVKFXirVLE8vDyqgOgDtFVPqsYqRy2T4/MhXf6wd0MG6PFtc5GcEImK5T2YiR8dFsCTK6kghlauQEJoEG4SSPJfZK+RyqEI6so5I1GlYgVUiw3DiR0LOHBGHs/sz3pD5FkFnpU94FGpIoJ8rdiwYAwuHViO7asmIiLABwaZDGKRBGqJjFMRa1atxtOnT0tbQLz2+csUJMQTISJR544doZIr4CWWIFWlQp6fE7cCfDHbYnLRA0RiTn7VrVkdi2eOw4UT2/HVxf24lrcL86aPQVJcNJdsEiuNXOCQwEA0qp3kMhz/AFlIyKcM+bQ1/BxWeFSqhEoVKqBKxYrwrFwZCZHB2DB/TLExE1I59H0yYDu3rA+LXocm9auh4MByBs+9MxnYvXYqls8Yij1rp+Lm8XV8ni9zViN77VREBPtisFHHD4dDKuUHIyo8Ajuyst6aNhZlBhKSIlQ3M2nC57CazfzERCoU2OCw4WaAL877OVFHpeJyCZISTRvWxoHtK3Dl1A7k52zG6QMbcPPsblw7nY3l8yZBLnFxMqolVUXVxKqIDHbi3N6lbFwWeSxunshvHSNpQJ5K/q5FWDVzOEb0aYN+ndLRv3M6Rvdvj23LJrgitcVGc12ShXJGO9dMQUSwE0atCj06Nsb5fcv4vKTOXFtGEWP/1rE12LFmCmKDfDHCqEem3YyWGjVUUikMKjVXHxJzjfqr/NWvMgMJtaAiV9dqMLGhppZIMNdqwvUAX3wV4Is9PnYkEgtNLkegvzdydq/Fo2s5WLNsOkIDnRB5VcHAPh1x9sgm3L14ANWT4rhEIToiEqHBoQj0cfATS7yN3wLEb/2PvZXClD7lboq234jkCuej7z7M34y1C8dy4bjYU4zxQ7qx1KDzCGWjwudvHVuLrcsmIMppx3iTHod8rMh0mBGmUEAvkcJmNGHooMFcHkoq+q98lRlIzp87x1X/1FXIKpWhp0GPrwJ9cTfQj1XNersF4VIXH3TimP64eGI7Rz0b1klCeKAfxB5ekIq8UCMhHPsyZmPu5KHQylWcJBN7esLfYcGWRZ8VqxKEiXmdPU0mT7g7MIrJ87x8LgFg146swsQR3aFXqRAa4IOlM4czh4Q9HjfJRiDZMG80ws0mTDUbcNDHihwfK5ZajXBIZdDI5UzX3Lhhw18ejS11kBAd8fmzZ+jZowfftEQiRWO1Grl+Prgf6MfbFX8n5luMCCQjtWJ57MpcxNV32RvmYOe6aWhQMwkBPnY0qV8d4YFO9O/aHAczZqF6bBiCfe2ICnaie5sGyNu5iA3GlyewzP4+k8nqhYJvfbs1h8NsZKCsmTsK1yls7wY8Yq4tmToEwWotZlsMLElOOm3I8bFhnFEPs4QeGCkHFc+ePfuX2ielDhKKh+zK3ongwEDIxWLYpTJkOGy4F+iHB4F+uB3gxAmnDbPMBviJROwhnDmcwQXe9/Oz2Ovo0rIeVswajvy9S9G7SxM4zAbk716Mo1vnYO/GGTidvaAohkFPdGmDwl3S8O+5SRr6m7wlcotrxIczL4aCfevmj2E6IwHlUR55RBswcVh3hMlVWGQx4IiPFad87TwW+72taKRWoYpYwqq5c/sOLE3+KrVT6iAhQk23Tp1B8RCDRIoRRgMu+TtZgtwJ8EWBr4PF7AKzAUEiEUsSyps8vnwAd3M348jWORjQvQX2rZ/OQCDjMDzIG2d2L+b8B9kgxNMgw5DAUdogEQBCbHzqW+ICyYvAJCCQIUzSLiEyhHun1EyIxKkdC4r4LkRj7N62EeJVKqy0mnC0ECSnnDYcc9qwxGpCsEwOrVSGyNAwZFNDnK+//ktMk1IFybfffIOMjZtgt1h5oIIUChxzeuN2gC+D5KqfD3Kddh6glVYjIiQSVKlUCZmrZuF+wR7czc3E0W1zMXpAB5YaBIbLB1dg4tAuuHJkVakD4mWJVASQvM3cuoLaV7hKN14EiQusmbhxdA0WThmEyhUqcklFztY5TIgmu+fWqQ2oGheBaiolNtnNDIzTvnaWJgQUkiZ9dVp+sMwGI3r16IFbt279JWqn1EBCLi8lrTp16MBN6Cg4NsNiYnCQmvkywBc0GLQd97Fhq92MKLkcMrkCn4/pj1tnduB+bibO7FyIGeN64Ni2OczDIE+BSh7YYygD1eIOFBdIMvH4XBaoSwF3KuBC9F/TEyh+QpyRLcs/x4cffIC0Wgk4v38pqyIyYi8cXIHKXl5IlMuxw2HBCacdBBIBKMedNmyzm7liQCKWcmiAOklSrKmsX6UGEjJYN67fALVCAbFIjIZKJfLd1Ew+D4gNp3xtIIPtqNOK+ioVVEolqsdF48yB9SzOvzy+DlmrJiFv92JXgs3N+3CfwLJ6TyH3swfW4EHBHjw5n1XkCbmkh0uikLohIJ/Mmo8ureujYrkK6NMpvShcT8Vfu9dNwwfly6O2UoHDPlYeAwEkLqC4HqDheh1LE6r+69a5C+7cvlPWGCmduhsusLpzB7VrJHPPU6lYgkU2C7u65NFc8fNGrtOG07SRiHXakedrx1iTHjqZHBadDjMmDMbt05lsa3xFNTEn1rP0KCswFPc7JB12rJqMIX064PpRVzyGbZJC4BI7jVzgnC2zMXnEp2jbpDaCfR1ISYjCxvlj2E6hzxOVcdHkgahc2QNtNCoGCBmt7iCh92TQ73RYUF2hgFQi5SQnJUXLOktcKpKEDCwKK/s6HJybSVarcdrPh72ZrwKcDAhSM+6DQn9nOSxIkMuh9PTi5i8ndy7BnRO/kIcFm4D2FAqnTThW3KSW9DFScXPH94HNpMOpXYvx+KyLCff03FY8vbAd5w8sx/ghneFrN6JyxUrwsZowc0JfnNu7xKVmcjO4FJTsqqE9WsGqVGKCUY883xfHQhgXGhMCyiiTHuVEYqjkSpYm1DOuLIFSKiC5e+cORg4bDpvZDMpHTDYbQbGQe4G+uOTnzRKkOJBQ1HGUQQuJSMxNdD/p1Ix1N4luAQw0USRVjm2Zg0OZs3D75MYXGGElDQz385EtsXrWKIg9pWhcpzrmThyIBZMHYcKwbqhXIwYiD0/4OSyIjwhiZv7hzbOLCtBJwuTvWcJqkzLM9arGwE+jxlqbySVVi5EkNEakijfYzQiXy6GRyhDo54e8M2fKtNC8xEFCCM89fRo1Eqty2DxQLsdeHzuH3kmKnGH14tK3whNDexK3NCC7va2IUCqgFIsh8vRA9w7pyF41mbOm1w6tRMH+ZVgweSDqp8SjbkocLudsfCFI5T6pf+Q9c0S4S9FGjt4Wse/zXcYp1fe2alQT/g4bLDojHCYL7CYdAn3MSIwKZNbZ/o0zOHhG+RwqFqMM86Th3dC5VT0c2z4PW5ZNgJ/ZhGSNGtkOCxvv7mMhvKcxIaDs9ragk1YNk0QCPx8nli5Zwm0ryso4KXGQ/PD9D1i6eAkXeVMf9/pqNe4E+uFegEuK0E0Xp39dQHHFCFZZTfzkeHHTFwn8HGa0Ta+J0X3boWVaMnQqJTyqVMbAPl1w/+K+X9X+vgk4BAn1kPIr3JtkE6ikIm/XImxf/jnTDEmtPCvYhidnN7PxfCZ7ITYtHofVc0dy2n/nykk4uX0ebhxbi4f5mayG7udlMjhmjuuFkAAHfKxGTBndA3dOb8KQHq2g8PJCP52aI60vS1UBJK4xsXOg7QuzHlZuu6FFhzZtuaDrnQQJSRFaraFPr95cwiiWSLDGZsGjID9Q4IyM098bEPZ0fKxYZjUyUBRiMWRSKfQqJUxaDfdHpZUjunZoyRniZ1cOFQXRaMLfBCD0WQZJXiaeXdzN3Yken8/ic1w4sBzN02oh2OmNlg1TMGlYN6ydOxK7Vk/GoU0zWdUd2TIHOdvmsnSgaPCtE+uwb+MMEDCa1KkOm8EIm0kPtUKOTi3r4fzepTizaxFq14jBRx4eWGgx4JjT+oJt5g4Q4T3ZJXu9LbBKpRyBdTq8ceTw4TIrDS1RSUJezYULF1AntRb3/KCsLuVoKC5yxb94W0QYCGEviFiKOlLsJEGlhEMmg00iZTIS8V9Flb1w8sBGPL5ymJnoj/K2FNks7iD5PdCQaqHPEKOdmvA9vXwA989s5iIvqtc9tHk2qsYG8yoWEk9PVCpfjttV2I0GRAX7Iik6BNXiwpAUFcK0xF3rpyEi2BvUlcmjkgdPqNWgQ1qdBFAg7dbxtchYPA4RQb7QSKU88fRQCPf+qj15fxQyaKdTM1G8YrnymDN7Drf7LAsDtkRBQoEe6vHu7/RFZZEYA/Q6XPP3xd0AX75JVjWvMyiF9gk9QZTwWm0zYYJJjxoKBeQEEg9PUH7n2TXq+36Um/ayRHCTJO5/u79/EURCGH8zg+3huR2sNjo1r40966aC6nBIosz7vD86NKuDKpUq4IP/+wE8K3lw9pkytcR9IYadUW/E2vljEOi0sGfzf/77A4QF+GBMv46susg9pphP785NYdVo0Eaj5kjzabcg2itBUjge62wmphGIq3igb6/eZdZlukRBQi2sxo0eC71Wh/IiMZbarWyw3vD3eaXB+lsDw1LF1w6KPh7wtmKAXgOllwjlP/4YOzct4NUjCCTU9ltI8QsgIGDcObGeDUgKXgm5HeH/wt4FoE0cZn94dhv3KWnXpBa6t0/jJB3lhoiGSMyz/Zu+wJTh3dE6LQU1EyIQHeKHUD8HAn1siAjyw5Zln6NZ3apomBIPKhYj6XH5wAq2Yyihl7trMZRSMXzlcswxGzhn9Sr77OVxoQeGjNyqFJUWibmZYFktmVJiICGxR2vapaakMHGIGFb7nd64W+j2UvDst+yRlwfl5b8pATbbbIBZJEal8hUwZfwg3DnvKqZ6duUAl2fShLtP/u2TG5jJvmXpBNw69utuA/RZQcq4Wohvxd2T69nO6NyqPkb0bc8uK32XaoIfnNnEhinV11w9sppdWiZMb50LMmYpGnvj6FpX4C/PRWsUzk+5poGftoLUU4Sacjm2280M/pfv81V/09jt87agrVoFkUiC0KBgHDp4qEzskhIDCakaWtRQpVDw056iUiLfz8mq5pyvoyi6+qpB+L3jZKNstJsQK5NxPqNV03q4mpvN7cCpV+vLiTbX5GTiWNYC1EyMxtGt834lbRhQL7XvpAAdSZ5180cjyNcb9VISsHjqIC7QenRuK55f2I6n52nVChfAKG7DQb28TDyh4Fo+gcPVwVEACFUWrp8/hmtsTHI5Rht1r4yyvnIcSPU6bRhkcElpKmRbsXx5mZRflBhIiIu5f98+GDQ66MRidNXpcNHPCYqNUPj9z0gRGjgStwd8rGisVsFLIoVGrUDO7jWgul1aceJJAfVr/UWSUNcAMkyvHlqF5mnJGNW/Az/9wgQKEuflvTCxVGE3eWR3NloDfewIC+Y+RyAAACAASURBVPBGo5QkDO/VFrM+64OVM4dh/dyR2DR/NO/XzB6BFV8MZVtGKB6nc1FxOHFf0monQC+Xo7ZKie2FsZHXVTV0//RZMnJnWIyoIHZVEtA6Pj+WQcKvxEBCK1etWb0a3lYbE4vGGA247O8E0QFex4J/5RPklhml84w1G7hGhWiQg/p0xvObx7lFODXXZZAIQCEi0JkM3MxZzSonOSEci6YNBqmg1wEK2TDEbCdwWfRqdsGpPWilClXw4b8+wscffoDyH32IiuU/QuUK5dioVcpEmDOhjytLXciVvXFkNeZM7M8sfLIlZpj1LoLRaxjw7mMiAGqt3QQT0TxFYoT5BzBRurQ9nBIDyYMHD3i1TIfFiiCZDAstJlz1d+K8n+NPSxHhSSJpRNFHYpVrxGJegOhczhZmsT2/crBQ5bil7QsniuyHnp0aQ6+WIWvlpKJuSC9IHjf+qWCrCB4JxUeoAU695HiE+vnArNNyzMbPbkFiVDCaN6iBPp2bYM3s4UyMEkBIauvw1rkI8LFCKZYgWC4vyvgKk+4OhNd5T/mtOIWcg3Emk4lLQyn0UJqvEgMJNcQb2H8ALEYTwmRybLBZcM3/lzD86wzA732GBvaojw0UkSX6AdECV1Av+XN7XdyOguxf2R2C+jiRNR8tGiVzHS6l6W+fcFXZ/R5QKO1PHs6FfcuQs2UOdqyYiPXzRmPd3NHYsng89q6bhlNZ8zltQJ8jCcS/mZfBgbPGtZOgkIg5H5WqJNLVr2kBv3ffRf8vfEjqUimsl4hrk06ePFnqeZwSAwnRFNu3bsudAUJlcuz0tuGyv4t59mftkaJBKlQ95BJXUyp4xYo2LRrj+ukdbMA+JaYYrXrlRjh2lwpEeQwPdiKtdiJO7Vzoys0U0h5ftk2K+9vFeKfaGVJlv3hG7kCj9ySBbhxfh2G92zIjj8o4qVsCcVZnmA1/Sprs8bagGVU5isScZc/Ozi71NXRKDCTk2TSsXRdqlRoBMjmO+DhQ4Pt6UdaXQVDc3yRFCGxkl+zztiJKIeeBJ928deMCPLrs6in/pBhpQhNOEoEY6sSRrRodhpSkCH5PAa6XQVUcQF7nGOV+6HcK9i3HyP6d4LAQs0wKqUcVSL28oKTKRKkU40x6jpGQMc73VUwGuLgxoGMUnu+sVcMglnDr9E2Fa/y9E+qG6ntTqydDqVQhRC7HaV+folzNn5UkFJYmcFBtCqXN09QqV4sKLxGo5qZBnRooOL6dQ+tsmxQSlN2fcAYKNd09uYHd0egQJ6rHhWPW+D64dNAV8Hr5868FjEKmvGC/UJa3Xo1EeFvMzP+gWmZbWCK0RjvkUgUkYgl8pFIMM+hYopBr/yb2CXFf++s0sEpcICE3uLTrhktMkpw+5aIHKBRKTsydJZJz4dP/R0HikhyFEVcfKyYYdfCWSlHFSwSZWMoLDVFtCi2UNHpoLzy8fAjPrh7Bs8suT4cnXfB23AJnxE85kDmT3VvKw0wa0b2wdneDixz0kroqDiykckhqUPkERVMpWLaM+o1Y9LyUPXkyKpUGAbVaIq7raIQ16Q6N3gK5RAZi6lUUiTFIp+EA2etKFAITRZ5H6LXwlkh5DeKFCxZwH9h3QpKcPHECVeMTIJcrEClX4JyfDyeu/ghAhCeLorT05Hxu0iNGIWeWm9rLC5KKlaA1O2DwDoJKqeF17qw02WMH4FpuNsdOnhTsLDY7TMAh74NUz/6NX6BdszpMPSCi0LTRPTi9/yDfFRhz0QeI/fZr+4OoA1+d3IDDmbMwfnBnVI0JZ7CqKWwulkChUMMenYywJj0Q12U0YjoOR1jTT2Gw+0MuU3BhvF5CLTfU2GonIvTvqx4al4PeVozWa1ka0ULVc+fM4Uj3OwGSE8ePIykuvggk+QQS529TA17WuzQIBCoaMLI7FlmNqK9WwVcqYe9AqVDx02gLikVIWmcedHtUDdBxpUwOp8OGtk0bInvTQlw4thk3jrt6upMqoKeeJAJxRaiP6+kdC7B9xUR8Ma436qfGc6G2t8WAWlVj0L9LC2xdOoEBU7B3KedfqBnehf3LkJu9EHvXTsPSqUPQJr02aiZFQadSQFTFC1IvMedVCCQymRJqgw0GRyBC0rogpsMwBkpI464weAdCIaO2GhJYJBLUVCmx2W4uKtB6eVyEvwWQjNHr4FMoSebMno3SXumixNQNuWJVExKhkCtY3Zzy9WaCM7HhhZv8rT0NANkdVF5B0qOnTsNBMxpIMvpkVcrBOzYV4c16IrbzSMR2GoXYzqN48K2hiax6aEFE6rcmEXmiaVptzPh8KLJWTUXuzoW8WsTDs5vx7NIOrqaLDvFHxXIfcUCMjEviqrAX4iWCZ6UqqFCuAgJ8bGibnop+nZtiQNdm6NS8DuLDg+BFq1t8XIkNZ1pFQyoSucBBtEuRmA1UDy+X26uUymFw+COsWQ++Xrrm8KY9YLD7QS51JevoO0RPJCojR6dfYcjSGJG6GaXXFambeXPnvjuSJDc3F8lJ1UA2Sahcjhzn6wfR6OZpcChQNNlsQLBMxsEypUgElUoHc0AkQht3Q3T7oYjpMLxosBkknUYgqu1gmPwjISND1sMTZoMB7du04dXGva12SDxEDABvsx7xEYGwGA1QKhTwk8ngTQ1kJBKmNogKlz8jiUCAIfBY9VooJQRUT4g9qNtSFWhkMsQE+6F21WjO+DqMBoi9RHyOKLkCHTUajDcZ0E2rZU9PrVDBElkDYc178/WTVIlo0RcmvzCoVFrIvbygFotRQ6lgDg3FgnhMXgKLAJKhei0cEin8vH14CVxqt16arxKTJLTid60aKezdBMhk2OPtcldfJT3ohmkj1UJ1sMusJjTXqGCiQmnS6XIl62//GumIbNWvCBhxnUeBNhdARiK6wzCEt+wHnxpNoNJbIBFJYDIYsXjRIqxbuw7Tp07DgL790K1rV7Rs0QKhwSHMBYlWKDHXasY8qxl9jAY01moQLVfw4FN7LnKtqZNBqNOOWtViUa96FJrWTkCnFnUwum97rJ45jBdQat0oFU6djqmFjbQarHPYcNHfiTuBviDj/VOdFl5eXtD6BMNRvQkC07oiqt0QVj2RLfvBO6YmA4UMcVI9lPwjDs2rxo3UcB+dhj9LK4qtWrmq1Nt7lhhILl+6jMZ160Ot1sApk7ExRkGv4m5WAAipIrJBZhj1kJPYpsmhajUvL1YtkW0GFoGDQOG+xXUdg4jWA+BXrz0cNZrBVq0RrPH1ofUOYQkQERqGtatX4+mTx6ByU+qPcvurr9C/Vy/4q9RYbbdyuSmx5qgW6MtAP3bbN9qtqKVUwsPLJX1UMhnSUhKwbekE3MndhG+u78Z3N/fi4KaZSIkPRwVPL4TKZFhrt+FGgB8Xwt/0d+KSvzfO+Xljs8OKch6eUJp9YE1sAFu1xnDWaYPItoP4fqLaDIIjuiZ7PSqxGM3VqldSCGjc9npb0UGrgb4wTrI5M7PUa4RLDCRf3ryJLh06wqhzqQsKnZPYdAcJg6PQMKWioy/MBqSqlHzDpFpIeujM3ghIbY7o9kMQ02nEC8CI6TSSn8KwFn0ZHPYaTWCv3gS26uk8+LaqjWBNbAhTWCL0VifUGi1Sq1XjxR23ZGRg357dqJWcgmSNBod8HFwsRlnqLwOcuBng5DTCJT8fnPNzspRpqFbBJJVBrVJBrZRDpZAjzN+JyECyJ5RwaqhbpBqHnd6FDDw/LoBntpnTxqUSFAehEleVwQZLfF3QNdJ1O1KaIbR5b0S1G4zIln0h/fgjqLy80F5byFh7SdUI40gR13TqiCQSw8dqwx5aFfSbb0pT25RcBd/dO3cxbMhQWE1mBEllmGNytVMQbo72ZJjSRgZaulrFMQ8y+kh6qJRa2EIT2PaIfQEcIxHT0WV3BKd/6pIcySQ5Gr+w2QWg0PGqjWCJqwO9fyTkKi2USjXiY2LRoE4dWAxGNFCrQYY1AYK4o1TmQSRt2s76OnDBzxsX/Hy4uH20yYhqSiWrIR1lXqUyLlkNkErhJ5VivMnIEuhagC+Djs5F9yi4/qROUyiFoLPAEl+Hr024dkdyMwSmdUEEgaTch9CLvDDcoGMG/elXGPy7vC2opVIW5m70XINDjMDSfJWYJCE3bOaMGbxWnq9UhvFFN/tL+SINGIlLIkgXGYmenpB7VYZ/clNEtx38guSI7TKaJUdQo0/gndIctuq/AINA8VubMBEk4o2hSVDrLKzGKMiVxs38iqFUFk4uTTBNNqkNYvoTeWqYUY9kpQK7fVwgWm41IkwmZVUTp1JhgNGAE85Cj85NzZJ9QdJBqzMzcAnALPkKQc33kFgP0soVESyRMIOeaoNJ6ro/YPSegpPbHBZEUizG0xNmkwl3bt8udXZaiYGEFhDYsH49iCpgFkvQW6dlV9b9ZomCuMTiUkdkf5B60dv8ENqoq8tr6TTSpafbD0V4q/4IaNgZjuTmLJ6LVEq1xr8JDnfg2Kqlw06SJSkN1oT6MAREQ6nSoaFawyx+ISL88mQIIKGAYKbDhm46HXNkIuRy7PMh5rqDa3TrKuSooVQhy8fB3BlKaL4cG6KqxB46DbR6SxFI3K/RmpQGfVAcvEQipgBscxRPaxTGcYXN1ZSQCsgTwiPY1npn+CTfffstDh8+zGvVaERiNFOrQPrTfQKoJ9hCswGBtC6uRAad1delXijuQYZpp5EIb9UP/g06wUGSo0iluGwO98F9k/fCeaxJDaF3hqKeRsvqhtSLULTufp2sKpjF7sBxpwMLrWbUUCm5un+hxcjgp95mETIZGrN94yp5IOnz8vkIJJ/o1NCZ7LDE12MD2/3arYn1oXEEQSqVoxEx6J0kRV605ejaCCQkiSeZDfhYJIZarsTwIUPfLfoiEV9oUSMDlT14eCKa+m4wSH65YQqUZdrMHJ+QSGTQWrwRlt4dsV1cngvFQZy12rCkYNVS/fWlhvvAv+o9gcQYFIMUjR45TvI+iufeEkiELZc9MDtWEIdFLEaSQsEll3a5q1FxTZUKGQ4LzjjtKPAjm8bOBqtgl9DEpinl0Ft9YUtqwJLtl+trDEtcXWhMDhjlCow16l35rmJUDYGP1FAfvZbzPmRbUWuP0iYcka1TYuqGRB5RGJunN3F1cpZIsdpudhlxhTdNTwPp6BhqpcDurhh+1RpyzIAkSXSH4fCr16FQnZQsQGhiSO2YIqojUGvEVocN54UWGMVMigAS2lNsgprdkTts1+sRarMjKTYWKVWrIcDu4PYaJB1balUYY9RjnsUA6ty00W7mrLWnWAKjb7jLs3G3pao1hjkqBVqtEVQzvd5mZskrqJaXpRtJ5hYqJcRiCaIjI3H86LFSt0dKFCR0MrKyZ0ybDpPegAoiMfcnfTkVTiK+p14DLt8k4ysgClEUM+jk8mKCGncvcml/eeJ+20h93c9xLCWhHnQGC8aYDOzFUDsu98kQ3hM4SAoQQIYZtLCKRKgWF8eLR86aPh1HDh7A8ZwjmDV9BuKio6HXGeAhk6OiQgUvnRFysw02oxk2tYZViT44rsizEa6X1KAhJAFahQrpKlLP1iKvSLgOYU/XQnU3UXIZR5abpTfB1StX3j2QkOg7sH8/woKCmTfRXq1iDgiL3kK9SmKTPANKdRPvU601IqxpD3ZzKQ5CNgkZnDSAwmCW5N5WownU9gD4yOXIpzYYr5AidM3EpyVXXS8So/xHH2PxwgXIyz2Fs2dycfXSJdy+dQtXL1/Gnl07MX3KFAZLRFIKmg38DG3GfIEmA8YhvmFLVChfAUqTNxvPHCcplCYEWo1PCFMfPiuMtBI4X74mkiyUEaf6aOq24Fm+IoYMHIRHDx+WSZ+SElM3JEmohSQtq944LY0TXf5SKRchuRtiNAi7HRY0VLrS5bQ6gyMq+QW7xJ7ctHRAQt5O9Sb89HpI5Vhu+8WTYBFfaItQOn6d1YhEpQI+JjOMRgs0SjVqp6bi4L69uFhwnl3PHTt2YOnSJbh44QIOHzzA/09p2Rl9Fm9Fv5XZ6L10G3ot3oJqLTpDrTVA6x3segDY/W3EoNGYvOEpEmGfj5UlV7EgYZfchlpqFVQSKfe+p9W2KIpcFq8SBQnZJU8eP8awIUNA9aqUwR1j1OEMGX+CXcL1vVZ8ZtSjMpGHKGsqlSKqzQD2cEiaOGu3YZVTkhJEOBdJKHNMKkwaSsC5SD+UPiDPS2C+DTboEKFSQ22woOGnQ9Bq2GQEhsdAp9Jg8MCBuHLpIq5fu4YO7dujfv16uHz5MmiRyVqpqajfuQ8DZMCaPaCt7/LtaD9hHnxCoqDziyhSObaqaTBHp0KtMaCxWsm228uekSBRSNVs97Yw9ZGy7BGhoTh16lRZ4IN/o0RBQmckleNqqKfkjsZRSgUn8E4KICnkjFCzGmKZUZqcwtbE4KLsKNEAAtK6umIjf0Dl/K6aqpbOT7DR6gdK8i2xGJnLMdWo48Ivb5kcaopZ1KiDTpMWou+KbPRZug3NB34GkUTGCzNt37KFi7VpgQBqAUHtvwgkycnJaNRjCPqv2sUAIZD0Wbod9T8ZAGtAuMsFpmBaYVTYEBQHq1zJxfCHXpX5LfRqJhopViMFteukYnHqbFlWrxIHCV34hYICNKhTj3MelOxbajFyHkeQJvSEHPK2oqtOw2wzhUwJe1QyG7CUrwlt1hv2Gm+ucmjwKWhmDEmALalh8SqL7J2qabBEVIdeKuU+7hRid0ok0EtlHOBLrNcUn8xa45rs1bt533/lLsQk14NBb0CPTz7hklYy1GkjNXvp0iXExcai6YCxRQDpt3Inei3ZAqPOBEt41V+kCF1n1UZQ6i2IUijYRiOvz318BClC0oXyXC01Kq6MpHZY1G+ePMmyepUKSB7cv4/JEydxiJ7S3/11WvYSBH1LewoyUQE4TRDR+Uy+YZzDIJBQtJXD8G8oSQgkpsgaUGmNcCQ1LEr+CapG2Lue5DTonCH82y6+rARqhRLV0lqi95ItGLB6d9Fkk0SgCe8ybRmcgaEcVd69MxtPnzzBzRs3QTVH+Xl5iAgORqvhkzFw7V7+LtkjSc06sdqyxNZxSRAOEDZilUeubE2lgvu4FpcxJ9CQAU2tNyhPRIZ+aEgIq7fSzte4A7BUQEJZSap4t1tt7K6FyeXY4jC/wLqiQeEGvwo5xERmNlgLo6+jENl2MJy1WhUvCdzjDMW8N4bEQ60zIbBOWwQ06PQKieRKAlJeh0BlDE2EQm1AYGQ8us9ag34rsnmSabKFjUDTd9l21GjSDlU++hjDBg3C0SNH0LFDB/Tv1w+7d+1CdFAwOo+fg0Hr9mHgun1oPmwyDCYbLNGpRTESlnaJDdg+obab7bRqZuNRRUCR9ChUzQQQspX667WgWItercHwoUPLpLSz1EFCdgmxpZo0bszN9bzEYs5uMuOq0MWjASCgtNKq+QmRi0Twr5HGxisRiXzrtisaWEEC/P6+CUjPkycR0rAz802E8P6L3yX32pUs5FC9XwQ0Si3qde6L/m4SRACIIBn6r96F9p/Ngd3u5NVGt2/dgqlTp2L5smXYu2cvIsOj0G36cpZCPRZkICShJkzB8RyKJ3DQNdCeKANaoxXUYYD6lHBbjmJccTZY7WZOIpIXSCtqHTt6tEzc3lIHCf0A6Wlqc+1ttjLTLI6JSL9EYEmUUq5jkcUIg1gMecUKsIXEuYzXTiM4ueceU3hxkl8dXGNJotEhrMmnLJF8arZ4KRT+4nfN0TU5VmO2ONBswFj0XZ5VZIsMXLOnSJIIQOm5IAPVG7WERqnB5M8/x6MHD/jJPnDgIEIi4tiW6bMsC40HfgZbWHwRh4RVHKma6ukwhleDTqlGrFLJqkZQw+6SRFA15IFRa04qVh8yaDCo5rqsX6WibugmyB2+f+8e+vfth8oVK7IX84lOUxQLoEGgbZfDgmS5nAk3Bp9gRLbqD3KDiTtif8OgGk2EMSwJGq2WiTyR7Qbjt0HShMP0SpUGCpkcJoMJCbUaosOEeei/MptVBtkjAkDYNlmxA+3HzWKQ+Ps6cerEcTx+9Ajbtu+Af0IKus1ehy5frILNLwTG0ASXNHSTIpT1VVt9mf0/WK8t7L7oGgsBJAQaMmRp9QoyprUKJYL8A3A05+j71VuegELGFTGnAvz8OJ/jLZVhjc2Eo0UJNFf7ySF6DTwos2m0u6Kv5OE07wMHB9VefPJ/S6KQ5KHcjFanA9ECiUv62yAhd7gedD7BkMuULvKTRAJnYDgS6zZhF7jXos1stA4oNEZJHZG0CQiJBHVBnDVjOq5cuoSly1ciJDUNnaYsQVLTDlBbfAuzvo2LJBldH8VGlBoj3+96m8llj5CqKVS/lMQ74G0BUQbaatTQiSWwmy0YNXwE7t29W9ZChH+v1CSJcDdk+Q8ZNAg2swVGiRTtNWoOd5NNQsYa6V0CDvVYIxZZUL12nPAj/qpPaos3Cs2TJDFHJUNnNDOz/nVAIqgBAhcRqYlfy2UclStBJxGjdttP0XX6crZVKIoq2CwtBo6HzWxF88aNsXf3Lnz2+STU7NAbDXsNh06phDXOxUIjPgvbItXJ7W0IQ2AMl39WVSiQ43RFWY/5uBh7VHszzaRHb50axFWhdIDcS4Tw4BBs37aNyzlLmzsizJv7vtRBQqHjUydPIiQomMsfaR1g6qRIVrsLKK4aXwP1KFWo4Eysz3kcl4fTmt3Y35Ie7v9jkESnQGe2I6b9sNeSJDyBZCsUEpPI09FYnFAqtZyEpAJ4g96IsKqpaDFkIrrPXov+q3aix7yNCI6pyqtwfDFtGtq274DkVlR4FcB0BMrL0PUI10fvyUimKK5VJuOIM9XQUEfFvnots/XMtJKnWAIdLZZdrjw+/uBDrvGhBbPjY+Owc+fOUic9u4NDeF/qICHkk9qZPGkS9BodrwVMTVi22M0sRUjMkv6tr1JCQytUBEZzRjiq/VD41mkLB5OdX6VyCumMbrRGM4HE4mAD+HUkiTCJzGDjGEZjWOPrsVusNjmgkKu47pgKsmwOP4QmJCO1ZWcO1Sc3bY/yH3yA+JgYhASFIDA8FnpHACwJRC56ESAU3CMAcnRZKuOC8VYaNYODSjg8PL24GE2nVHG3gKaN09GhfQfUqFqVs+peVTxQt1ZtjseUtTQpdZAIaKQw8iddu7lyNWIJ6ikVRW07KbDWW6+BTiqF1mDhCSY32FUuQYz44kFCE+F6Yok36npvikyBzmRBTPuhry1J+PyFAOHzUeicmPecX6kJjdUP0iqVIaOJFIkgqVwZkn99AIvBzDU81KGa6nRINVDcxZ7S/JetkLRtCq8GhVLrUmUiMT6guh5eaMHV5ZlW1/r444/RqlUr5OTk4Pmz52ykEod19KhRqFCuHLQqdREbrSyBUmYgIbWTc+QIEmJjYVBrYJRIuMiI+m0QSCgRSO0UlFIJezgEkoCGXTiH8yqQUKyDYg7knRAznhjyxrBEl3fTur8LJKktC8/hXnqRxjUwRCek75hjaoFcYbJnyDYxhVXlp94QEs82hN4vAlp7gKt+t7DKjwvIJNKi8k65SAKlWg+tzQ8qg5WjvkqNHgq1jqURdROgDgiU0KSGNlT4JZNIkBAbh7atW+PzCZ+D6qnJhiO+8I8//MhhBBo36tfaoW07ZvpHBAXz3+98xFWQHi/vqc/rsiVLEBoYBL1cwSWW1DGAyDZTTXr4SSSQe3kgtFE3rswLSu/uMvrcRLc7YFiSVE2DzjeMJ0Jt8YHaaOOWD4F12yKsWU/Y4uvy5JOoNwRGQ+8bDp13MDQ2f6jMPlDobZBrLZBpTJCq9JAqtZDIVZBIFRBLZJCIpBB7ibmMU1TYjZpKSUl60IS/sFGhOBm+JHGo+4GnF5eGiqpQeagn/03HKHIaExmFQQMHgugG165d41wM5WOoNz9tFIykWBNJDAr/E8mcWo1RaefaNWtKvSeJ+9yVmSShH6Ub/uH77zFqxAioZXIOEEXKZGy8zbcYXItHi0QIqNWKvZOw5n1eiFb+CiAcR0lnnqhCpSuaMK7jlSshF1WGzIPUhAdkXp6ghjL8JJNhWMUTFT76GP/9n/8L//yf/xP/eM3tn//4B/7rn/+BSh+X40kvAomXCFIPD+5qROUOdJyA8b/+8z/xj3/8A//ff/wHNymmRsWNGzXCxYKCIqY7gYFKUvbv349JkyahV4+eOJqTUwQS6pFLxW92u50j2N07dcFXt265z2Opvi9TkAhAoSeH7BN6GrWky6VSUBF0ELPopfCtlsYVfOGtBnC21N0IJKDQ3xSUIumg0poYANJKFSCpWI7rVyQeHvCsUgWelSvDqNUiOiICKdWqo37demjZvAW6dOrM9cHjx43DrC++4Ka5VC65Mzsb+/bt4/T/8ePHQdvRo0fZRqAetdQ3f8O69aBKfmKGEZ/Xx2aHTm+G2T8SPjGpcCbUgTU4FlJPD4gqVcaY0aP5PIcPHULT9HRULF8e3bt1xZc3b7DNQRSD6dOnI7lGDbRs2ZJdXZIkpHIEu4NAROqlc8eOnIQM9vXDsZycov+XKkJKkgj9JhdKT8b58+eR1qABG2Nk9FE2mNw/mVQOe0wqlz+Sd0LGIxmTL0sRn9SWsEVUg8HsDbPDHxZnECy+QTDandCotQgLCWVS0MQJn2Prli2c86DfJEb//Xv3WZzTMmV0LYJYp0n5vY0+S3bCpQsF2J2d7aoK9A3lCC9XHnYaidD0bpB5VgHlo4YPHcKN74hzQiD76IMPmLlXcP4sq5iFCxeiaZMmGD58OJekUNid1A41T6ZrcwcKucByqYyl2JJFi95NZtqbAIWejPPnziEhPp5XnSAVQWCh5i6WkHjmlpDxSrwL8jReBomjRlMENf6Ei7riuowCbURYIoZbYFwK+vbuzSKafocSjsUB4U2uV/gsTRpN3pWLF3Bo/z50bNcO3kHRiKLidiouo6rDNgM5yagQS5FaI5ljnJtRkgAADsNJREFUG/T75OGFBoUgNTkZhw4ewJMnj3Hjxg0+TlQDsk82bdrEEo0ITfR5ASj0fVqOnqSiqLIHBvTvz3kcAUTC9ZXGvszVjXATdNM0gTlHcnggXc1qRAwS4pZEtR7Ag14cKZqSZAQaAopPaisuwyDAhDbrhbBmveAbm4I2bdowSITfK6l9EUguXWDGfN+ePeEbHs/XyzXL7YYgtGlPaM0+7MVQIz1qfEf3S4Z7j+7dOfaRtXULnj59whKDaAa9evViW4Qmf+zYMVgwfwEOHzr8gt1y7epVNG/ShG0hyrATn5jOW9qvvwwkwo2R6M49dRo1U1Kg12i5+w91ARJ6krjaSvwSmBIkintdsBDTIMYZvw+JRcN69XDl8mXhZ0psTyAhcJMkOXr4EIYOGgy/0BgENuyE4PTuHNuh69Da/Nkj8vTwYJIQ9YAnsMyeORNJ8fFYvXIFs91/+OF7Pv7g/gPcv3+fPRkak+LUIIGkT8+eqFyhAuKiYziSTVKytF9/OUh40L8j1XOeicQiMmZNDkS06MOi2zulxQvRSwEkxe3ZoKWOAiFxqB4TDWobWtIvd5AcO3IYo0eMgDMglBOF7JKTUU2kImcoB8sqV66M3bt2s11CxmhmRgaqJyVh7qyZuHvndpEqJAI5gYD64RKzj4AovOg3f/7pZ04kfv7ZZ/jogw85jHD4XVvKRLihP7IXBr5Dhw7wrOLJLDXqKxbbZQzYQH1FnORVQLGEJyHIYSsVgo5wrSRJThzNwYRxY+EbEAIr9R4pNLAJJBTcIyNcLVeAyh8o7kHG657du9kmmfjZOPZwiMWXlZWF1q1aI71xOho2bIhGaWno/sknWL9uPUsXAsw333yNi+fPYd7s2Wz8hoeEsKr+t5Ak7qDq3asX63GNzojQxl1B3YzeGCTV02GOrAGlyAtbN28u8VpZAgnFeq5cvIiTx45iysSJ8A8IdnUMoNB+9XSWJIbAWA7wmfUGTBg/ntn15E1RyJ1yMIP69cO1y5fx7NlTruG5fv0aSxGq4SkoKGDv79y5c2zYErge3LuHC4UgKffBB6iWmIS8vLwSvz/3+RDe/+XqRrgQ2k+dPAUGjRYaoh826Mgg8a7p6i5QnNQo7hhNkik6FeXLVcCihSXvJgoguXrpIk4dP4YZU6fA3z8I5tjarBbJ0KZuS1S+qVBquASiZ48euHXrFr75+muu361TMxXtW7fmSkCq4RG2a1cu4frVK7hx7RpuXr+OWzdv4u7tr3D39m1cv3IFZ/Ny8fln4/Dhv/6F5k2b4vq16/8ehqs7SObNmQuz3gi1Ro+gum0R12XMG9ffMEhi66BCFREmTZr8QlDK/bf+6HsGyQ8/QADJ7C++gJ+vP5OJ2CYh3ghlfMOqQqnSwqjVoUlaI+SeOsmVfzuztnOheZ2UVOTnnsblCwW4VHC+aCOVQhsdI5VGe/q74Gw+yAbq3KEDyn/4EXN0yFui6ynN16MnT0uuq0BJXOiihQs5P6FWaRCY2oJJ0eSt0OAXJzVedcwcXxdV5FoMLKyXLUk30R0kp08cx4K5c+Hv6wdTZHLRdVIA0BRRgxvmaJUqVE9MRPa2bcg9cQLbNmeianw8gv38sGP7NuzbvQu7dmTx8Q1r12L1ihVYv3oV/03e0/n8fJzPz2NAZWzYwHXWUrEY69ate8G4LYnxf/kcBL+Dx3PfLpBQM32qxCfykV/1RiBOCUdcOZj2ekAhcW9JqA+F2YnOnbtwVrWkQULuLBWM5548geWLF8PP28mSQ4jfELApq0xZYTJco8MjsGLpUmRu3IghAwcyX4SIzRazmTfqO2vQakGTbzOb0ahBAwwa0B9LFi7EmZMncS7vDIMmPjaWk4PpDdNw6eLFUpciBJI9R06+XSDZunkL7CYTL7qsNdrgiK/DRiCJb8G9fJX0cD9O3oXWGYb0Jk05w1qSIMHPP7OxeO3yJeSdPoX1a1bDx2qHLiiuSNoRSCyxtaHUGDiJSSonwNcX5JFQ9jcmIpLLI8JDQuFD/U2UKl58slP7DiD1tXHdOmzLzMDWjE1Yu2ol+vftw5FWsteC/QOxaeOmMqngI022+/CJtwskVOwU6PCBSq7gVuFSj0ogdhg1xqPyTZfqoRD9q6VKkeEYFIuoqNhS8QB++vFHXLtyGWdzc7E1MwNWiw0a3wgGMiUeCaQuwrOBi9NIahh0OqTVr4+VK1bi2LFjzAm5fv06L27ZqEFDOCwWjn3USU1FsyZN2E226o2oUK48L0ZNXpKPxYrJEydyzKW0bRFSPW8lSIiFRd2bPat4cOiZ8zlE1pEqmKRsCI51gYV6t/6GncKGY2gidAYzxyUoelmSL5JM5IWQGti7aydsNjsURm9ukKfzCYHG7MOkI0rGMW1BKmN6BBGKyJ39/rvvOaJK1/X18+egFT5mTJuG0SNHubpXd+mKju07oGO79uj5aQ+MGDYcC+bNx/59+7lrQ1kA5K0FCWU+KeE1bepUJCUkIsDpC+J8Kjj5J2GXUqUzc22NNaEBexGCGhLsAVI7guEok6u4bXhpgOTm9WtsUJLH4e3wZmISEZUkYmkRIUlD/V+tVpDLe+wVratowikgRiH7u3fvcpaa6AMUeaW0AmWt6TjRGcsicOb+ML2VkkS4wJ9/+omTc+vXrkNa3Xowa3Xc1ZHaUjLJx8sTarMPdw9wdVl25WwEdUSRT6IkEuO9RtVqRUky4fx/dv/zzz/h1s0b7JbmnToFp48PiH1GrDMZrXih00Pi5QW7xQLirFDHAfcw+5/9/bL6/lsNEhoEFsVff81g2bJ5M4YOHsLUPc/KVRgoLMplcnYzNSY7iIdKbieBhu2ChPqQq3QwGgy4fduVIympwaWnn1phXTh3Fufz8uDr7QMfsw1rVq4AxUFIdZT76GM2To8cPlLmBd4ld59voeH6qpujp5D0ObHHOnfshMiwcJj0eihlMtfT6+nFLSSUagNUOgsbu1Q7I5UpuEcKNZohVVZir59/5kgohckp0BUeGIiwgCB+T39nZ21nY5M8GWK2lbS6K7H7eI0THT9z7u3ybl7jmtn1O3niJJOIac0akacne0MUjyB1pJC4iqupgxKpJupQvWL5Ck6wvc75X+8zP+Pevbu4WHAOly+cR434REQGhbCNcqngHE7kHEFkSBhCAgK5zPVdVDXCOHz/w4/vHkjIs/ju2++YlUVMLYrSUhkpeQOUOKMl3ih4FRESyoEnAsm4sWPZ+BNu/M/uKcj08MF9XLrgCp3XqlETfnZv5OeeYhVEOZ3WLVrAajRhSSnkj/7s9b/J90m1vlUJvje5ePqs4BkQcZiMQ2KY7929h7mktNZNoNOXjci2rVrj2tVrb3r6V36efpf4H5R3oRxOo/oNYLfZQGF6yrGcPH4Mo0YMZ8+mRdNmHNd45cnegX+80yB51fjSJFI8okObttCr1KgWl4Dc06dLLIxN53/+9CkuX7wAiryS1HDY7TiRk4OC/HwO1y9ZtJC7KXh5euHhgwcl9tuvuufSPP5egoQGjCZywbx5MOv00Kk1yMjI4DgDHf+zLwGE3KrzymV07dSJQULEaAqwUbie8jSRoWGQiEQ4dPBgmTHb/+y9Fff99xYkdLNUNknVghXLlcfkyZNZ7JdEHodA8u233+Dq5Uu4fuUy+vbqBW+HA3t2ZjNIqGM0eTiRoaEc31m5YkWZ5FqKm+CSOPZeg4SIPu3btuOSDSrIIrFfElFLAgmRlSk0T+pmxNChDBLqoUYAoY2WcgsjkKg1mDF9Rqmv3VsSYHjVOd5rkHz9/GvMnT0HnpUqM92P6nxKwh0lkFDsg5hjlwvOY9rkyaxuli9ZjJ1ZWRxU69KxI0w6A5OOeKn4Ul6W9VUTXBLH32uQ/PTjT1x2QC0bjDo9KHJLybU/+yKQUCb4/t07uHD2LBYvWACDXo+0evXRuEFDRIWFo9wHH3Lchoq8qZtCaS+m+Gfv6be+/16DhG78yy+/RJNGjdgV7vHppyUSeSWQ0Pb08WP2Zoj/IacFr+UK5sKIPb3wH//8J6omJWHz5sx3NiwvAOe9BwnFUCZ+/jmcdgdUCgX3gP+zYXKWJD/9xEz3gnNnmX5Iy69Sgi8xNg79+vTBhvUbQHwRquulhOW7/HrvQULxkm1bt3JzOlqti1TO0yeuskua7Dd5MTh+/JHtGirR/OrLmxw8yzl0EDWqVeM1cQiQ9Jtveu43uY6y/ux7DxKqkbl44SISomOYJti/X3+cO3uWJ5omUtho4N3fCxMhHKM9uc/UUOb61atFDHZis1NspHOHjvjwXx/gs3Hj/gaJMHjvyp4mloqienTtBqNGy/kUf6cv6tetiyGDB3Ovkaxt23H61CleXePG9eu4/dVtzvVQueW9e/eYakBLmVFZRM7hQ9i/eze2bNqEpYsWcmsJoiUSd6TSx+W5pxl5VQSq9+X13ksSYaL27d0LXyIsq9ScHa5SvgL+z//+b5T/4EPYTWakUBOZ5i1Axu3AAQMwfOgwphNSV6ahgwahX+9e+LRbN3Rq3x7N0tN5KTUiMP/3//+/UfHjctxV0Ww0ggJn337z7d8gEQb+XdpT1f6USZPZsKQORP/3v/4LBBSppxcz2qlXKgGINuppRsx0YrnTnjY6Rhv9n9ntMhmTtSt9VI4r6kICA7F08RKu3X2fpAjN8b+NJKEgGvUlKzh/HlnbtmHmjBno36cvmjdpyhRH8koSYmJ59Qlq6+C+xUfHcK9W6hxJn6san4D6deqiXes2GNR/ABYvWoTc3Fz2ZP6s5/Q2PnhvBUhIe7sbiK73pT9cNKHUDoL6glDbh4LzBdxMlzLGZKPQOne0EQDy8/K5kJsaxxCrnwxYbln144/vlWopbtT/UpAQGMiw/PGnn/Dt99/j6fOvefv2+x/w448/4aefXN5HcRdeUseKruHHH4vKHAg85BXxnt67bZT7oWsWQF1S1/E2n6fMQELGPg02AeH6V3eRf/k6lmVmY+jU+WjVdxSa9BiGxp8ORePuQ/k9HRsyZR5/5nTBZXx5+x6ePnuO70u4huZtnpy35dr+Hy6fjMHtNZpxAAAAAElFTkSuQmCC;" vertex="1" parent="1">
          <mxGeometry x="744.4599999999999" y="591" width="72.72" height="73.25" as="geometry" />
        </mxCell>
        <mxCell id="vaxw1P1ZyCaPooBw2lOU-68" value="Jenkins" style="text;html=1;strokeColor=none;fillColor=none;align=center;verticalAlign=middle;whiteSpace=wrap;rounded=0;dashed=1;fontSize=17;fontColor=#333333;fontStyle=1" vertex="1" parent="1">
          <mxGeometry x="735.82" y="669.12" width="90" height="20" as="geometry" />
        </mxCell>
        <mxCell id="vaxw1P1ZyCaPooBw2lOU-69" value="分布式&lt;br&gt;事务" style="text;html=1;strokeColor=none;fillColor=none;align=center;verticalAlign=middle;whiteSpace=wrap;rounded=0;dashed=1;fontColor=#007FFF;fontStyle=1" vertex="1" parent="1">
          <mxGeometry x="599.48" y="210" width="48.52" height="20" as="geometry" />
        </mxCell>
        <mxCell id="vaxw1P1ZyCaPooBw2lOU-70" value="内网" style="text;html=1;strokeColor=none;fillColor=none;align=center;verticalAlign=middle;whiteSpace=wrap;rounded=0;dashed=1;fontSize=20;fontColor=#333333;fontStyle=1" vertex="1" parent="1">
          <mxGeometry x="379" y="70" width="56" height="20" as="geometry" />
        </mxCell>
        <mxCell id="vaxw1P1ZyCaPooBw2lOU-71" value="" style="verticalLabelPosition=bottom;html=1;verticalAlign=top;align=center;strokeColor=none;fillColor=#00BEF2;shape=mxgraph.azure.laptop;pointerEvents=1;rounded=0;dashed=1;fontSize=17;fontColor=#333333;" vertex="1" parent="1">
          <mxGeometry x="-65" y="305.5" width="50" height="30" as="geometry" />
        </mxCell>
        <mxCell id="vaxw1P1ZyCaPooBw2lOU-72" value="" style="pointerEvents=1;shadow=0;dashed=0;html=1;strokeColor=none;labelPosition=center;verticalLabelPosition=bottom;verticalAlign=top;align=center;shape=mxgraph.mscae.intune.device_group;rounded=0;fontSize=17;fontColor=#333333;fillColor=#83DCFC;" vertex="1" parent="1">
          <mxGeometry x="-65" y="371.5" width="50" height="50" as="geometry" />
        </mxCell>
        <mxCell id="vaxw1P1ZyCaPooBw2lOU-73" value="外网" style="text;html=1;strokeColor=none;fillColor=none;align=center;verticalAlign=middle;whiteSpace=wrap;rounded=0;dashed=1;fontSize=20;fontColor=#333333;fontStyle=1" vertex="1" parent="1">
          <mxGeometry x="-120" y="70" width="46" height="20" as="geometry" />
        </mxCell>
        <mxCell id="vaxw1P1ZyCaPooBw2lOU-74" value="防火墙 WAF" style="text;html=1;strokeColor=none;fillColor=none;align=center;verticalAlign=middle;whiteSpace=wrap;rounded=0;dashed=1;fontColor=#007FFF;fontStyle=1" vertex="1" parent="1">
          <mxGeometry x="93.13" y="320" width="53.75" height="33.25" as="geometry" />
        </mxCell>
        <mxCell id="vaxw1P1ZyCaPooBw2lOU-75" style="edgeStyle=orthogonalEdgeStyle;rounded=0;orthogonalLoop=1;jettySize=auto;html=1;fontColor=#007FFF;" edge="1" parent="1" source="vaxw1P1ZyCaPooBw2lOU-10" target="vaxw1P1ZyCaPooBw2lOU-76">
          <mxGeometry relative="1" as="geometry">
            <mxPoint x="153.25" y="393.5" as="sourcePoint" />
            <mxPoint x="230" y="398" as="targetPoint" />
          </mxGeometry>
        </mxCell>
        <mxCell id="vaxw1P1ZyCaPooBw2lOU-76" value="" style="shadow=0;dashed=0;html=1;strokeColor=none;fillColor=#4495D1;labelPosition=center;verticalLabelPosition=bottom;verticalAlign=top;align=center;outlineConnect=0;shape=mxgraph.veeam.proxy_server;rounded=0;fontSize=17;fontColor=#333333;" vertex="1" parent="1">
          <mxGeometry x="210" y="362" width="76" height="72" as="geometry" />
        </mxCell>
        <mxCell id="vaxw1P1ZyCaPooBw2lOU-77" value="代理服务器&lt;br&gt;Proxy Server" style="text;html=1;strokeColor=none;fillColor=none;align=center;verticalAlign=middle;whiteSpace=wrap;rounded=0;dashed=1;fontColor=#007FFF;fontStyle=1" vertex="1" parent="1">
          <mxGeometry x="210" y="320" width="78.88" height="33.25" as="geometry" />
        </mxCell>
        <mxCell id="vaxw1P1ZyCaPooBw2lOU-78" style="edgeStyle=orthogonalEdgeStyle;rounded=0;orthogonalLoop=1;jettySize=auto;html=1;exitX=0;exitY=0.5;exitDx=0;exitDy=0;entryX=1;entryY=0.5;entryDx=0;entryDy=0;strokeColor=#333333;fontFamily=Verdana;fontSize=17;" edge="1" parent="1" source="vaxw1P1ZyCaPooBw2lOU-80" target="vaxw1P1ZyCaPooBw2lOU-84">
          <mxGeometry relative="1" as="geometry" />
        </mxCell>
        <mxCell id="vaxw1P1ZyCaPooBw2lOU-79" value="notify" style="edgeLabel;html=1;align=center;verticalAlign=middle;resizable=0;points=[];fontSize=16;fontFamily=Verdana;" vertex="1" connectable="0" parent="vaxw1P1ZyCaPooBw2lOU-78">
          <mxGeometry x="0.3468" y="-3" relative="1" as="geometry">
            <mxPoint x="16.44" y="-14" as="offset" />
          </mxGeometry>
        </mxCell>
        <mxCell id="vaxw1P1ZyCaPooBw2lOU-80" value="" style="shape=image;verticalLabelPosition=bottom;labelBackgroundColor=#ffffff;verticalAlign=top;aspect=fixed;imageAspect=0;image=data:image/png,iVBORw0KGgoAAAANSUhEUgAAAGYAAABeCAYAAADR9mGiAAASdElEQVR4Ae1dCXdUVbbuX0OFhITME0kIIQQSJoFmFFvEp4CQkAmIYRYVbAZpaZ8gMoUEEOEZUURBG22Rx9BPbBsUxRZJVZLKPKdSVeec7619KzepSmq4U5JKr9RatU7ljnvv7+zx7HvzB4x9glICfwhKqsaIwhgwQToJxoAZAyZIJRCkZBmvMZyDNTeCt7UCQgQp28aQJXpsYI31gL3HmAu6XcVYYBhD55WLqCv8Exq256Ln/nf/seDw1ma0vLMHdeufRsvhP4N3tLmJVf9PQ4FxPP4F1jV/RFVmKKqyJqD5ze1gLU36qQzCK3R9cQmWOfGomjoe5pwodH39GQRzGkapocB0fHQGlnmJErFEcO1zM2F/+INhxAbThRq256Fq2oQ+Xht3FUJ0dxlGomHAiK5ONO7ehKppYX3EmrPC0fnpBcDAmWQY5zou5KypQvWiyX180iSsXpIB55NfdVzV81TDgCHNsL44z4NYIrhxVwF4R7vnXUf5X+3n3oN5ZrQHr+ZZMeioLDfMpxoDDOfovPwBzDmexEozaVEaHFW/jXIo+skXtm5Yc5d4WAbi0zwtDA1b10HYbP0H6/hlCDAUkTS9UeIxg4hYieDsSHRcLNNBYnCd2vP9HVQvTPXKa+3KWeh5cM8Qgg0Bxml+jJqnM70SSz6nLn85hMNhCMEjehHO0XryEMzZkV55tcyORfu5Y4DgusnUDYxw2NF5tRJVU0O9EktaY5mXBPtP/9RN7EhfgDVY0VC6yiefxGvDznxwA1IE3cDw9lbUb3rBL7Hm7IlSEjbSgtV7f9vdb1C9NMMvrzV/mg47JdY6P/qAEQL2n+9LCZbsU7yOmaGwvrQIvLlRJ7kjd7qw96Ct4gjMWf25i1des8LRXlkB4dRnunUBQzdvqzjsdwbJxFcvTEP3zS9HTrI67+y0VqO+xL9lkHml6EyvOdMFDJkxcuwyQf5G8/RwtLy7DxilQYDt+9uSr/THo7zPMjcBjkc/6sppdAFju3sD1YvTFQFDRNdvWAmn5Xedc3cETucMrSfe8ijByCD4GikJpeqz1o92YCh0fHdfYP/Sm88QA9ULJqH72y91zSStjOo5T9i6YF2z0FWcdePHFyi03bp2sbT8ofW+moFh9VbUFz+nWFtkJlqPHQQxOpo+tnu3QDmKzIOSkSrOPd/d0pzTaAam+8YXqAkQOnpjwJq7FORIR81HCDTv3Qzz9AhVwFRlhaPl8BuAU9tSgCZgKHRsPfZm4NDRi9pTsY9802j5sMa6gLmLtwlI2+rWLQadr+WjCRhnrQV1RSvUzSAZJFpA+8srWmgdkXM6P/8QNJl8Cd/fdloa6Prqiia61QMjBMjmmntX7/wR5nVfZihqlk8D7+rQRPBwnkTlpqbXigdVkr3yJU8893F6hDQJtdQJVQNDC2Ktxw+qilAGMmKeGYOuv10eThlruhflIrUvPqVJW2Se69Yvh+OJ+mUP1cA462pQu3K2LmKpH6B+82qAM00CG5aThHCtMc2J08WrZX4yuq5/CkBdx5A6YJgT3d/+DWa3tW55ZqgdKTF1/P5oWGSs5SasrQVN+7fqsgySTDJD0fzOHtX9AKqAoWaDpr2bdc0gGUAyZ+20gBakvWeOXx6g9oW5hvBKnUPOGrOq+aEKGKflCWqWZxlCLK3fNOzIA+8Mwn4AztD5eSWovidPJD0j5UDdt/8OMOWmWxUwnZcvwKLT5rozWPv8bFdToKq5NPQH8+5ONL6+Qb8Zc4vQmg9sU9UUqBgYCh0bXy3UlFS6g+H+25IThfYPy1XNpKGHBXBWP1FVnHXnyddvy8JU0BK8UtOtGBi7gTbXnXiamdTrHEwfalw0z5hoiBlz55Xah4XCEo1iYNovnIRlrqsl1P1men9XL5sKAj1oPoJL/chVmf2Ni3p5lM9v2LoW1P6k5KMIGAodG18tMtTmysSSg6UZCq6/s0QJw4GOsf/8L1ie6m/zlek0YqTASekkVASM87cf0Vi8DNZFicZ/Fyeh5fV82H/8HiSUkf62nzyAumWpxvO5KBF1z2Wi68rZQHND2h8YGO4Ae1gJ+75s2Demwl6cZPx3Yyrq8hZLNTSqo43U17rmKdg2TTWeP1lmr2XBea0UsAd+ZCMwMLZG8K/zwE4mgO2IA8szgeWOM/TrzA1BS5G+mpQRpqbxhQw4CiIN5a1PVhsjwE6kgH2UA1F7M6DW+AdGCIim+2Dn48FOm8BPTAbbEjcEhJtgK5w0JJGQUsDM0yeg7cUEsPww4/kjUE5NAysPAzsTDv7D24Dwv4DmHxinDeLBMbDT43q/IeBHJoFtijGceGfueNStnGF4iKoUmNqFiegpSDacL1YUDvbXFLDTYX1y5NdXA121frXGPzC2BvDPlvRdUAKoLAzsr5PACicYy0TeeLStnTIkkZ8ScBqejodzY7yxPOWHgL0RD1Ye7SnDi6kQdXf9Vpx9A0NmrPYm+LkBF5W0JxLsQBpYgbFq3/1SJKrnJQy71phnhKPtxSRj/Sf54tcSwM4kS26g3+qQ9TFBPDgKOH3nNH6AYRD/2A1W0a+CHhc/FQ2+OwUsP9SwWWYviEH9CuV9ako0QckxNbMjYS+dahgfksPfkQBe5g0Ul1vgny/1a858A9NlBb+y0Avasr8xgR2PBdsWaxhDzrwQtK6MRZVBVV0loNAx9UviwQrCDeODbYoEO06gjPc0YX2+epwUBICiMx+PbPgG5vFl8AvktGQgvI0hYMdTwEqiDWOquyANNQuG15x1vjwTLNegNGBDOPjRNFcE5ld24ySLBKf3HjvvwHAH+K2tvs2Yxw3Hgx9NBysxJlJzFEShbqG2rhSlGuJx3IxwODYlGQNM0QSwQ2lgFRMDTOhec/bxTKDTe4+dd2BaH4FfWaTo4q5IbTzYX5IghYa6k08TWl/KMGyRygMEt/UReXvzuhw488br13iKwPYkgJVHKZfbuRiIxx97DZu9ACMgHl/qTSq9mS8f28oiwf6cZEgwYCueDEu2ys5HL0KXhe9zzAyFbXM2WF6IfmB2xoFXJPrxyV7kVhEKcbME4IOTzcHAODrA77yiHHU3s8bLEsBeT9EddtIMti73fI7ep3C1ANJ7DiWVjjwDnP72BPCKyWCnQ1TLjX8yB2gb/H6AwcC0/QY62L/T94K+BJAJ/Hgc2Day2XrqaSa0bzCmEcIfoK3rpoHl60yUX44GO0YRmHpQJBmfT4D4uXyQOfMEhjshqq6ClYdqBIYACwF7LwmsJEoXOPb8GJhnDX5vgD9Bq9lnzo5A55pYfdpdHAb2dhJY+QTt8ioPAb9RDDg8O1M9gXF0gt87oP0mfWYtFOxIOthG7ZVaqjg3rJszZFWA+uWp6ClK0D55CkLB3koFOxejW17882UQbZ7dmoOAEf88pPtGrkgtDOxgCnhxhDbm80zoyEsZstpZ0zOxcBZN1EYbmem9KYNrYH0T05ep976dX3sGaH/iYc48gREcou4fYP9DjsykHyCK1CiEXK8t6ulZF4GapWmGa0317Ch05uoIUnbEg5XFGSOjc1Hg378JcLsfYGgXs0E8eh+sMhOsXKND85g5iWC7tJXTHevD0fRfxtfOaudHw1Gaqk1btsaAnZlsjGzejwG/vQPosnqAQn94aoy8m/VA1N0Bv75KYfbvXUVdkZ0J7EQ8+HYNgiBztip+0JuO1Dh5b8c2PTcJzvUaiq+lMWDvUZnKTw3MY1L6kosJ7KMZEL9eAHqaZal7jN6BoUOouNZpgeRzLqbqnCEhYEcTwCi0VBlG2wqTYV2cbJg5M2eGort0hvoSTFEY+CGdERi5B9KSv+cDjT8MMl/uyPgGRj6KOyAs10GRAy2LastvxrmKem+ngBWrS+ic+eFofDrOsCCgenY0nMUqK+K0trIvCfxsrHb+SZMqM8H/dRjoaZGl63MMDAydStrT/jvEd3v1hYdlEeAH08EK1S2wta/PgHmm9zceeTNV/ra1b5qnXlv2Z4CVk7P3ZZoCbKdc5auXIKy3AK7sVSbKgJFxtbdC/H4F7PJ8sAptSRU/FQm2e5KqxM5enIyauVG6zRm9B8axZZrye5OmvJIIVkaaoiFKJUA+nOJqvuis8bn2IovXfVQHTK/2iPbH4DdL1Rc6pRlncoWaOxJV+BsTGp/3/9Yjf1oi76t/Nh2UuCr2c5sjwU6SX9EQnVaEgl99BsL8hWIt0QeMfDZpz78vgn88U4OKm8BOJYNtVxpGm9BZkqNbYzqKZyivJJdMBDuWrs0yvB8HcW+/ZP6VdvfLYpVH9Rojn0kjs0M0/gD+TSGY1LShRt1DwI4kgr2sbIGNcprqBdqjs+q5MbCtVVi/KwwDp5YjtTWwignSOhaZezjogSx1z126i1YfMHQlelTP3gbx43GwyiywcjUxfhjYW4lgtPIXMIwOQXPRAs1a0/j8FDgKlU0Ctm8SWEWkOktwPl4y76L1kSpf4g6G+2/9wMhXo2jDehv8q7UqwYkEOzhFgUM2obsgCeYZ6hfQzFlhaH0+XlGXJd87GeyMq/NUcRT2yVyIXy8q6kmWxRVoNA4Y6U4CorMa/P4RMCkpVag9FKm9kRHQ/jtyw2BdMU211tTOj0N3wST/WkkR2KtJ4GVKQaFkMRb8xgaIxvuaHLw/cAwGpvdWVNKpuQF+7VmwsxEKTAIFA9FgOwM0ReSFomVNuupks25xLJwbA5T4Sye6qhMKF7z4pWzJfLuSRe2+xBc4QwMM3Y06OdufgFNSKjWlB0jCqGmdVgIDNK13rYmC5SnlT7ZJZmwVVZL9hMlFYWDvUneLgsoGOfiv10HU3QaE8qeQfQHga/vQASPf0d4OUXUN/NMFCgqi48HeSfXbp2YviAUtcsm5SaDRkh0O+5Ys32ZsfQj4f08Fqwig2ZTLfJgBcf8IBFWDh/j9BEMPDAFEryahpPTWNrDzgTpJaIEt2WdfNDVqtDwbK/0blECg0H7rQj9dlrROtJ+a8wKAQlpybQVE9dcAM/6f+Mhz2H0cHmDkOzo6pFJ3wGaP8kjw/ek+Z3lXQTosc5W9ca9zi5/a2O5EsDMBFrwuJEPc2wvRQW+2MN6XyKIZOA4vMHR3qlY3PQC/WQJ2ljoWfSSlZdHgezO9htGOgmhY5wdu1KAHbx0lXqIxqQZGTd+TfJdbKsJAjd9khv115Q8UqFF/Dz8wEuVCKn3zh+Vgl7LBKnx05ZyIckVqJEiPBNSElrVZAaOz5rU+mvlejgQ/muwblPNJ4Le2A63/HlIH7w/EEQKmlyTBIKx3pCjHe8uUvMA2uJTSvTFwUbOrxEslOc8ETgGG1+q4CfzT+a6VRR/N3v6EaeS+kQVG5qSrFvynE2AXqT41sJIbBnZ4CtgGz24bZx69KXCqz+isdmES7HkDumDWm8COzAA746Xcci4G/H9LIZp/MqSkIrOmdQwOYIh6SkrpCbYvV/b6Hve8h5Z1Mwb0RZvQVuK7dta8OgPOfDcw88eDvUlNFAMjMBP4pRyIh6dd6+9DHAYrBSp4gJEpppKOlJRSWO0OTjgY1bHcnmOxF8Z6fZEodVl2rKJH33uTSvJRu+LATg3oxD87UVpZRAP9W8jgeDOHLIbgA4Yoc3ZBWL4C+2zRANMWA77HHRwT6lfPGmTOrEuT0VPsttazNRqszN1MmsApWfzpJISN/h3k8IXBsuADjcEJDFFNzYdtj8HvvAr2QVJvWG0COxYHtqP/QdaO3DTPt7xmhqLpmTiwYldHDt8UAX5iSn8/Nj1n/+VKiJpvpR66QAIaqf3BC0yvRISjC/zRBbBP5vaaNnrXQALYJpdj71k7ETWLUvq0RjJjuWmu8Jr8yhECpbfKfTEN/P/2AN0NIyVvxfcNemAkTiisbvkZ/Pa23npbb6SWZ4IjPxJNK/ufpameFQFnKZm7cWBUAzsTIQHDry53lVS8PCSkWFrDeODoAEYWSE8L+C/vu/oMyiPB3s4BK5iAthfiYM5xtTc1rkiRtrEDFIFFg32QDH53F0Dd9ENYDZZJNGocXcAQ1+R7Gr4Du74GrJwitXTYNqSj9o+ud4z17JwHtise7FQC2OW54L9Ven2UzigBDtV1Rh8wsiS66yEeloOfz4Fz92Q0LImDZU6M62m2M9PB7+yEaKVH6IIv4pJZ8DeOXmCIK26HsN4F/6wUba8sQ9uWxWCVq8Fp/Z3aUIMkWfQHgK99oxsY4oqE32WF45sKOK8egmh6GHTJoi/h+9s++oHp5U44eyDs3t8y4U8AwbrvPwaYYBWwVrrGgNEquSE+bwyYIRaw1suPAaNVckN83hgwQyxgrZcfA0ar5Ib4vP8HRCvDcLHDXx4AAAAASUVORK5CYII=;" vertex="1" parent="1">
          <mxGeometry x="869.56" y="759.56" width="66.07" height="60.88" as="geometry" />
        </mxCell>
        <mxCell id="vaxw1P1ZyCaPooBw2lOU-81" value="deployment&lt;br&gt;repo" style="text;html=1;strokeColor=none;fillColor=none;align=center;verticalAlign=middle;whiteSpace=wrap;rounded=0;dashed=1;fontSize=17;fontColor=#333333;fontStyle=1" vertex="1" parent="1">
          <mxGeometry x="857.59" y="826.88" width="90" height="20" as="geometry" />
        </mxCell>
        <mxCell id="vaxw1P1ZyCaPooBw2lOU-82" style="edgeStyle=orthogonalEdgeStyle;rounded=0;orthogonalLoop=1;jettySize=auto;html=1;exitX=0;exitY=0.5;exitDx=0;exitDy=0;entryX=1;entryY=0.25;entryDx=0;entryDy=0;strokeColor=#333333;fontFamily=Verdana;fontSize=17;" edge="1" parent="1" source="vaxw1P1ZyCaPooBw2lOU-84" target="vaxw1P1ZyCaPooBw2lOU-5">
          <mxGeometry relative="1" as="geometry" />
        </mxCell>
        <mxCell id="vaxw1P1ZyCaPooBw2lOU-83" style="edgeStyle=orthogonalEdgeStyle;rounded=0;orthogonalLoop=1;jettySize=auto;html=1;exitX=1;exitY=0.75;exitDx=0;exitDy=0;entryX=0.007;entryY=0.861;entryDx=0;entryDy=0;entryPerimeter=0;strokeColor=#333333;fontFamily=Verdana;fontSize=18;" edge="1" parent="1" source="vaxw1P1ZyCaPooBw2lOU-84" target="vaxw1P1ZyCaPooBw2lOU-80">
          <mxGeometry relative="1" as="geometry" />
        </mxCell>
        <mxCell id="vaxw1P1ZyCaPooBw2lOU-84" value="" style="shape=image;verticalLabelPosition=bottom;labelBackgroundColor=#ffffff;verticalAlign=top;aspect=fixed;imageAspect=0;image=data:image/png,iVBORw0KGgoAAAANSUhEUgAAAWAAAAHBCAYAAABXIWEHAAAgAElEQVR4Aey9d5wcx3Xv6yvJkp/s+7Fs2dfvyrJ1r5Nsy36WHJ4th2s/WyKIZRYpUaJIiaSQASIQmQSDwAwSBEiCAWACNs0u0iLnnIgMbF5s3p2cdxc5nvf59aIWvb0Tqrurp7tn6o/59MSa6qo63z596oRfCQQCJB9yDOQakGtAroHcr4FfkYOe+0GXYy7HXK4BuQawBiSA5R2AvAOSa0CuAZvWgASwTQMvNSCpAck1INeABLAEsNR+5BqQa8CmNSABbNPAS+1Haj9yDcg1IAEsASy1H7kG5BqwaQ1IANs08FL7kdqPXANyDUgASwBL7UeuAbkGbFoDEsA2DbzUfqT2I9eAXAMSwBLAUvuRa0CuAZvWgASwTQMvtR+p/cg1INeABLAEsNR+5BqQa8CmNSABbNPAS+1Haj9yDcg1IAEsAWyL9uMNBKnNF6DGLj9Vd/jpeLufDrf5aX+rn3ac8dHmJh9tbPLTugYfrWnw0ap6H62o638sr/NRJR61Xlpe56UV9T5aWeejqgY/rW3w0YbG/t/vaPbTnhY/HWrz07F2P53u8FNDV4CauwPU6ZPCLy8A9q8BCWAJYEsA7PX7FdDVdPrpaHtAASGguqbBT55aHxXX2P8oqfEqYN/Y6KOdZ3z0WZufTnf2XxS6/PYLpwRk/s+BBLAEsGkAt3n9VN3ppwOtPtra1K+tFtd4HQFZM6CHlr2pyU/7Wv10ssNPLd4A+fx+0+MlwZr/YOWdYwlgCWBdQMGtO2C7t6XfPFCWB6DVA2lozasbfATzBswmrV4JE17YyO8NXSsSwBLAGQEMrQ/2UwAHNlg9sCqU78KkAvMKTBgNXX7ySfNFxjUlQXwLxBLAEsCDhKXbH6BTHX7afsZHFRK4hi440JJhVz7S5qc2qSEPWl8Svrfgi7GQAJYApqbufvstvA0KRWvN5XmuqPPSrmYfYUMSm5MSQoMhVMjjIQFcoACu7/LTrma/1HJz7I1RWtNvrjjVESCvNFUU/MVIAriAANzQHVA0sco6v9R0cwzeVBo3TBVbmvpd36RmXJhasQRwngO42dvvgwuXqlQQkO85Y1xKa7yKCx+CUvxSMy4YzVgCOA8BjFtbeC5U1TsDLukgX17vJ09DgDxNAfI0B6iiNUgVbSGq7ApTRVeEPL4IleMRiFJ5IEZl/iiVBmJUEoxTSTBGpaG48rocz31RKvdHqdyLR4Q83WGq6AxRRXuIKtuCVNEcIM+ZAJU3+gn/62Q/ZVws97X4CP7VhWwfLYRzlwDOIwA3dQeUMN4yh0SaAXLlDQGqaA72w7UzROW+KJWFYrQsmqClNj7w/wA44O4B8AHpliB5GgNU6qC7BYRjn+6Ea5uEcT4CWQLY5QD2BQJKQACCA9Jpmrl4v6zOTxVn+jVYT3dE0VLthqwZwBcDzt4oedpD/WBuCFCJjXZjuATub/HLHBYul1ftRUQC2KUTCn9dhP7a4atbUutTbudhLgCkiiP2arNmQKvrt5GEYgaBaQMmk1Ib7jRKqr1KUAwCZLTCLF+7b0wkgF0GYIS+wn0M7ky50GzxH7glhxnB0xmiskDUdvOBLmhabOaAGQMafyUuRg259S5Bnor6LvdBR14obs2ZBLBLAAxvBrgs5Qa6XvI0+snTFpTA1QlwbA4qm3/NAcKdQi7mCxnmYCeWYLsFNreMhQSwwwGMW82tZ6wHL2CBTaiK7ggVR+K2bpA5ScM11ZdIXPHiqGgNEWzkVsO4qsGn5FZ2C3xkP2UosmO1BiQr32YxeBXowrTgi9JSCV3LLzpwo4OrXb8bnHXacVW9l2qlacKxsq2+8EgN2GEaMHw/kXnMKj/VW9CN0NJC2TzTaUYwpfVy/hf8lgFjKzfyUE0EIedqgZfPnWWmkAB2CIARPIFyPNjltuJWFRtEFV1hKo5K80IuAMv7H3DVgycJAkWsuugiVabMyuYs8LILoQSwAwCMxN5W5GeAtosoMESP8QJBfs8+l7qSSJwqO6yxFyPvBJLooxYfE355tB/KEsA2AhjJu61IAVneGFCiu9wcCFHoFwIlQk/RisXaiuE3jjB1CV/74Ys5kAC2AcDtXj9tPSNWsGC2wG0s8iEUOrzy6fxLw3HlLgZ3MyJNU/CYgAIgQWwviCWAcwzgo20+KhcpTNU+qmwNUllQmhnyCbzac4FrIBILic5TgWrQMi+xfRCWAM4RgBHBtq5RnBajeDO0BQk5C7TCKl/bZ8e1fOwjccW8JDLqDtnXUGhVasO5B7EEsMUA9gcCdLBVXOiwAt7WIBWHJXgthx2nS5kt/Ygk+kGspNYUc2GHWQxVryWIczcGEsAWAhi11sRlKfMqfqPYKbdF4J0MowLuGzZa4V4oyp8Y5jF45UgI5wbCEsAWAfgQfHoFJcxBopeSsLTxygtPBtNKJKHkoBBlI97S5KMuWZnD8guRBLBgAHf4ArS+UUzcPypFSB/eDNApYM033cUIqUERYSciqAO2YZltzVpNWAJYIIBPdwbII8DDARssHm9EmhokYA2vAXjFVAryI0YAh6zIYQ2IJYAFABhuPP35G8xthsCOh1SGMoBCar3pNFy97yPMuUzARh1SXsKTR9qGxY6BBLBJACNd5EoBxS+VXADSpcywxqcXTAX1fXhMtIeouNqkglDjpVOdYgFU6ECXADYBYJgczBbALKv3KVV8CwoI0rRgy4VGqd7RhKQ/5kAMkwTcKwsdniLOXwLYwELy+wNKYhNzC9mrhJjK7GTS3JDri6+nK2I6og6pLqXPsPmLkASwTgDDNWe9yYi28kY/IR9srgVP/p+EPVsDJeG4UljUjBIBL4lGmU/C1J2ABLAOAGOxYdGZWbQoTyOrT0gQMhDafURBUTNBHEhzeVQGbhiGsAQwJ4BPd5gLJ4aDPHak7RY4+f8S/to10G8bNue7DruwCJtoobUhAcwB4CPt5hZnZbPM3aAVevnaWRcCuD4iGbyZuztU7fbJ6DldFyIJ4CwA3tNiHL5K4pyusNR6pdeDa9ZAWSBKZjKtocCADGHm35yTAE4DYK/fT6ilZVQjwCKWYcTO0vKk1s03H0o48xnj7mor6nwyaCMNV7QmFgngFAOFK3iVieCKijMBWibTRbpG65NgTg1mJXjDoM8wsqrJihvZNWEJYA2AkUxnlWH4epWqBVKgUwu0HBf3jYvHHzXsM1xa46U66aaW0SYsAawCcJvXTysMwhf2Xunl4D7AyItC9jlDXToUejVijiut8VF1h/SQ0Joe2GsJ4JsAbvMFDPv4wt5bImuySZNDPm82Is1lC9Jc6t8XQV7sUx3Zb8cZlArpKAEcCBAS6lTWGfN28Eh7rwRvPoNXc24e1CE0AGHkJ5aVNoZehAoewCgb5DEY3YZqxEsj2W/h5G2uHKN8WgOerjAVV3sNgfhImzRHqDX8ggZwc3fAOHw7QlLz02hH+QQZeS6ZL5rY78C+hxFtWGrCtzThggVwm0GzA+xZFd2yWoUEVGZAFcL4wM+93GCy91NyY07xjihIALdjw63WyC2Ulzwyi5nU/KXmP7AGUCzWUORctZeQX0V9O16IzwsOwB0+Y65muN0q88tkOoWg2clz1KfdF4fi5GnQv4ldUu2l2s7ChnBBAbjLF6DVDfrtVjA7lPlzUxa+PJakNYke2pDspfXJXloR75E14qTGOaBxOvXiUByBr7B+CMNPuKH7lk200LTgggEwsjQhUYjeTYOyOl9OcjogGxXAu7P37JDHlp4+KpEQcjyEnArHXPULOSQ8BgI2ELaMDfFCgy/Ot2AAbCSxDhJVlwTjlgt+cTRBG5O9Q8CrhjEgLKsl67s1zhV45P/cmpdlkTjBN16vorO8zkcwDxYahAsCwEgWrXdBQPMty0F0G0wOW3v6MsKXgRjmCCnst4RdjoUzxwKKgsdA8U/coSILYSFBOO8BjHIpeuGL6hW5SCVZGUvSjhQmBwZc7XFdolcCWJpiXLEGUGzWY8AmjDtVCWBVgho3DwaSgCAEUg+AFW+HgPXeDqvS2Hu10FW/Xi8B7Ar4SM28XzPvtwnrV4B2F1B5o7zVgM90Bwjp8PTAF7Aus9jPF7dnVfHUm21q2KZ6jt9J4Xbmbbecl9TzgurLZQaCNQ4XSMhyXgIY7mYw6uuCb7WXyn3WRrgBvnAtSwVXnvfKYkkJYGmCcN0aUCCsO9mVl+oLIJdwXgJ4Y5P+2x4kGLFSi+HxdMgE4dUJqf1aOT+y7dQarKhxgTeR3twRFYpnRH67p+UdgPe36odvRbu1iXUA382cng6pIAx7sShBkO1YCxo5vunHF5GkCGrSc2cKz4h8rrScVwCu7tQPXyWlpIW3tQp8k3xuZlr4buvpowppdpAXHwvXZ64vGJ7uiC4AA9Y7z+SvZ0TeALjVG6AynZtucJOxMrgB0WsIoNCClec1fleaR4LHK+jFoQitammkDdWHadvh7bR/50o6XPURHV3+Ph0rf4tOlS+kU2Vv0onKRXR81WI6vO4T2r99Oe04tJU2njpIqxprqTQQlNB28NrBHaceLRjfzdcUlnkBYDhv6y2kqdS4sjCZugJfg5ov8kBAc+aFlhu/V+7z0YZTh+jA9kqqKX+dOt6ZQuEXH6a+p+6k3llFgx4904dTfNJtFJ/w/cyPibcp30tOGUbRp++nrtfHUMPHc+nQxmLafGwPVXS25/WYumkdLG/TB2HkjIBnk5vdYlP1PS8AjFsUPVdUBFpYWcMN8DSq+a5L9lqqldslpBUdbbRr7zqq9swn3xujqW/2HYMgq4VuqtfJacMpAchmA3GKzxOThlFyyu0U+uVPqeHTubR/5wpaeaZeAtnGC73evBEr6/IvUs71AEZOUT3wxXfLvda5m5nZcFudR36+MO1sqD5Cx6s+IO/8sbphmwrAynsziyj55O2GIDwI3BNvo8TkYRSc+zCd9rxJW47uJpg/7LpAFeL/Io0llCE98rurOb9ClV0N4A5fgDw6y6JY6fEA6GwyYHbY0XNWSTuZD0K4rvYYnVzxDoVfelgcdDUmCYA4Od24NjwIxDe1ZcA49tQPqK7kZcVcsSySm/Sj+TDnZs4BgU96o1XzKZG7qwG8sVHf1RMJQqzadFM0PgNBFoAvckKYWcR2/9bj89L+rR7FtJBWc00BUfPfHU6w96YCqpn3EpNuo9DzP6EjVUtoRVuzq+fG7rXB8/8VKPKpwz0NSle+ZE5zLYARqqhn0pSyKRZuusF2y+PdoP4OEvFUxt0LX9hQq8vfoOSceyzVdrOBWohJIpXd+Ilh1DNtOJ1Z/LTilcEDE/kdY5vHFS36yt0j2CrVppbb3nMlgJu7/YRyJtwArrY2uxmi1NRg5XkO+Fa4FL5rq49S84dzDG2kZYOp0c8BSqMbdDzaMkwUXW+OV1zjJGSNQTbTuCl5hHVmTzvS7n4IuxLAVfX6TA+4xck0+WY+Q45eHuCqvwP4elxodlhTf4qaP3zaVm03E6CT02+nuEEvCR4I4zsAcfcbY2jLsT2WrSkz69HNvy0Lxai4ml+24ZqG6uZu03rV/XUdgA+368u2X9kcsExQAFHYcNVwzfZc0XxdBt/l7a1Uv+xFR2m86UDcM2M4xZ8w5qrGC2EFxJOGUcdbkwgXJTdDz2l993Tq8w92uynCVQBu8/p1pZgsq/NTScSakkIItECocDbgqj9324ZbSTBER9Z9RMk59zpW600F4p4ZRZaaI9Sg7pk6nGpKXiVPV6cEsSCf4gqdJY1OdLhXC3YVgPV6PVjl7wuPByPJdZa7yOa76eQBCr72mKvAq4ZxrjRhBcZP3EaRp35Au3evkRAWAGG96Ss9dT7q9LkTwq4B8AmdAReVbdZlOENpILVmy/PcLRnNyv1+qi19zbXgVUNY8RXOgTliQCOedBu1vTOVVradkSA2CWIoT9yb7DU+2nrGnRtyrgBwlz9AuMrxTghMD1b5+640sOmGcvNOs7Wl6g8S4IRe+XlewJeBODl1uHA/4QHgpnBdg/05OuteJew61RjL9/g9KPS6ptV0ug/CrgDwjmadPr8W1XRDBWNsovFovOw7qONm1cVAlDAj6uvomiUpE+EwkLn5mHhSfLBGRgjDW2LSMGr89JdU7rduE1jU/Du1nWVhfaHKy+u85HNZPUvHAxgZkHg1X3zPqvy+SoIdnWHGsBM7Hb4ebxe1vjc9r7TeVBcLADEbNEV/Dr9k/0uPKikynQo5p/fLo9MUcbDVXVqw4wG8roHf9FCKvBAWRbvptfvCQwKeEk5e4GtrT1D45UfyHr4AMjblrAzUyAjvWffQ9oNbHL0WnLxO9XhFlClhyu7ZkHM0gE916NN+y7utyWalN9hCCbRwuMfD9kNbXedelkqz1fNecpqALGqp7L4c7/U8eTsd2bhUQtiAUoKsaXrqycFkqQ52cPJzxwIYSdb1VDaubLamCgK02O06/X1XOnzT7cDmMkP23p6n76GzL/6Uzr4+gs4tGEdn355I596eRGcXTqCzb4yivpd/Rn3P/MDRGjUi2TJqqxwwNfp7/HdN6atUHJaZ1vRq3J5OfQl7Gl1SUdmxAIYth9f2i6sjfAf1TirP9zfodDlbm+i1pB88feX5zolV7+oGZN8LD9G5t56g80tm8z0WTaE+eFOkqG6hR2O14rs9M4tyEimXFtKThlHL4qeoJGhdeDzPOnDjd1BCjJcJaxvcUUfOkQBGqrlSHfXdKjqs8fmFJsu8GXiOm5PO3XTDZiASj+uC2vM/ovOLnuSDbio4vz+D+l5yno05OdU+UwTAjHSX7e9OpVLpIaFLWSnzx7gBDFDDhOlk8wP65kgA727hv9KV1fss8TSA6UGPyxm+69QimoBvbcmr/PCdfQednTfCOHg1MIaJovfpu/n/35LcwYPrzMVt8IpQa8WAcOdbEyWEddqEK1r501aurPeR3+9sCDsOwKhyoSfVZIVF5YX0mh6wUefU27rqivn88Jt9B51bOF4YfAfMFu9OpV4H5ZRQMqdZaO9Vwzbdc3hltL8zlZBzw6lrx2n9gqmxRMfdsdPzRDgOwHoKbKKonxULBBUqeEwO7Dvrk861++qy+VoF35sa8TlA2EGasB2+wVoYow8ti2fJenQ6NGE9Ze1X1PnI7+DgDEcBGLk9S3SUJikPid9NRsCFnixn+C5+Y8WFwGybB7eU8mu+s4qEmh0GNF+NOQJeE70GKiLrsl1zmjCQK0ILRDtewxxRV/yyI9eQ2TVoye8jCSrXkRP8mIMTtzsKwHpCjhEnbsXkIm8D02x5jk4tKQQ/3z49XgjYcNPA0qrXZ197XNeFwQr4sjadoAUD+okpt9ORNUssWdNWyIndbXq6+ZP1VNZ6yedQW7BjANzmQ9AFf5mhkqB47Re5Hnigy76D6Di7F2Kq/19Xe1xfkMXsIjr/rglvB73gXjzLMfZglDKyQ+tN9Z/wzti1d50j11SqdWbne9hYhgmS1y3tqEO1YMcAWI/2a1W+Bz0l5bc61PTg6erSXRIewRVWabvp2j07f7SDtGDrK2ikAm6q9xJP3U1r609KCHOY9Tw+HVpwnY98fudFyDkCwIrnA6/2W+2lUguCLvRuvDmxlDyymrW9N0032GCXTQdKy97/YBb1zr5Td1+Z6UDk0aqqyqkAm+09eEaEXvoZlXd3SwhzQLi8gV8LPulAv2BHAHifDr/fyjbxtl/czmzRkekMLmp23n6l++9jVYv1A23OvbmH702TxdmXHtbfX84NNj2Atj06TuMOh5DllsWzHbnG0q09u97Xk7h9db3zouNsB7AXydaRxYzH+6EaIcfibb+oVsHsutmOTg242HDqkL5Nt5sgQ6SaZVpuFtvwuTfHOALAgLWdOSJSacXQyg9sq5AQ5tGCdYQo13U5KzDDdgAfaeePequwoMyQXrez1Q4MuCj3+ZTbVj1aH/sukujYBeDzi6Y4BsA9NmZKSwVgVNaAPbiqqUZCOAuEy3XYgp1WRdlWACNMEFnsubTfGh+VhsQn3AFQs2m97HNsvMFcYdftVrr/rdMTZqy5hdeVZCeLRqsb5B/MdgyAe+1O0qMxQyhQnjSMuhaMJ9j20829fL9fHj06bMEtXudowbYC+HQnvwHd0yw+6g3ar55Uk06sarzp+D5TEDv/zmT7NOAlsx2zEYc7guQU+1JVptSCJ3yfYIo4tLlEAjiL4lPRxe8R4aR8wbYCWE+1izJ/VPgi1KP9OrG8UGkwSMFXHjUF4HPvTJEAvnlX4DgzBAI0FFPEPbSypUn4+s8n7Rl3pkpFHI69JOSa6XJIGXvbANyqBF7wbb4hD6joxaJX+/XEksL7YPacUEiT2XKNHm1xQVOZMnpnD85SZvQ8RPwOZYvSaaJ2vq94RSx5ynHrz+z6Ff17T3uI25x5uN0ZZgjbALxXh+sZCvOJniw92u8GBybbWdHWTMk595gH8Jtj7dOA39fvsywCtJnacEposhb4PdOH05aju4XLgWi5srM9VFHmLV20yiEuabYAGHHZvK5nZfXWaL96Eu4gRNnOhZXqvxs+nWsavgDR2VcftQ3A596aIOQcMgFV72dOtAMDxkjY43t9pCxnlM0WrCNfcIMDyhbZAmA9xTY9neJzperx+13vwKAL5HrQC5Z03+97/oe2AfisSft1unMy876TckNotWDkiti7a7XjlIFUCoJd78FTiterygmbcbYAeEMjn+23uFp8mXkY6+FOxlzLsh2dqP02LxbrvnXuvWm2QLjnmXuFXUjMQFf9256ZzrQDK1rwxNso/PIjMndwFi3Y08TnXVVa46Num7Ok5RzArV4dgRcWpJzUk/PBiYnW11cfEQ6ts6/9IucARkVlNfic9Bz5GLTap1NeQws+sL1SasEZIFyhI1XlkTZ7E/TkHMAHdFQ7LvOJdz2DO1k2rZd97kTtFzkChMPq6bvp/OKZOYVw79wHxZ+HJsjE6DjB3uoU4Gr7gYtD+MWHqTgsXjbsMhsI/99Ignszrqrea2vhzpwDGLuPPDaa8gbxm2968v1udKDnw+qmGuqzqJoE7LG6I9lU7mR6fnsORToFwdKKdhJP2ls1WQtd7Wslb/C+9VILzqQF69iMa/PapwXnFMDN3TrMDxaUml+X7OXWfisc6PlQW6qjsrFuwN1BOfEJfn8G9Qpwn7MCvKxNAE4LPSe9hobuXTBOAjgDgEsD/CXsP7PRDJFTAO9r4dN+URkD1U9F3pog8IK3zPyWnj6h/y3iPDzeLuvBNeceOve+hRtyMJ842PTAAAyfWycBN1VfeqbfThtPHXLcOhWx1kW1gQAunrvtNQ0FogGjQinPgFRYkPdBj+uZE0vMH9hclpPb9r5nf0Dn3p8u3hyxeBb1vfhQTs6BgdTo0akRcWoQIzquvvglCeAMWnBlV5iLN2ASCgIHbKienDMN+IwO84OnKyx8YUGrZZtrmY4I0HBixjP/vBG5g9cz99G5RQJzRLw/g/rm/jh3/ddtfhkaDo10kGrgOfF5Yvbd5PF5hcuKKA3U7nZwF81bZ/Jgqz1acM4AzF31otpLxRGxKR89cf5im6iKbPfC0f7/Bgtcz7Jqh7PvpLOvjzStCZ9FtNvT5kOms/ZXAHTV/5GY6LzMaNqLQPLJYdIlLYMGDDkq5zRD2FUtI2cAXsHp/VBxRnzaybUJ/s230iwTqoVjLl6fqlxom/bY9+z9dG7BWDq/eLY+GL8zifpecJfWqwZw3MGuaAzEcEnreGey4xSGXMgE739UdPIn6LHDDJETAOPEeGy/+A7yevIOLs/3YE7gzfvgRNezZZE4RV5wgO306Xuo7+Wf0bkF4+h8qo2692cQkrufffUxgh1ZDTM3Pk9Odr4GDBD3Ti+i5R1tQmWGR67c8p2SCH9osh1BGTkBME6MD8BeQkYjkZOrJ/LNiZWON5466EyYwR/56bupB+aFp5xR3Vgk6J2alIdpv+yIfh7YUiZUZkTKnxPa4vWG2NiY+6KdOQHwpiY+ACOGW/SEIZw406Yb+wyVMZy4+XZy5TvOBLBgm6tIeIpoKznF2b7ADMAwQ7S9N0243IiWQzvb4zVDlNR4yevP7Wac5QDGCeHEeDRgDJTIidLj+4sgDZH/Laot/+sjJYBtgD1KATHIOf2YnHUnlQXEKy+i1rDd7ZQE+YMyajvzDMA4IR744julNpofnFjxAknXRWhzso2hbmbZxsRVAJ56O237bLsjFQi74cv+H6kNeDi0pyXPAIwT4jlxK3I/8JofnFrteM+u1RLANmi/gLOT8wJrNXIEZZyuXCABnMGDqYIzN8TKHFfKsNwEgRPiAXBFm1jzA+y5vKHHVQ70/cWV29rcD/q1wmxaYz597vR8EIMg/MRt5J0/VgI4A4DLffxVk3PpjiYcwF5/kBo6w3SsNUwHz4RpS73q0RCmDXUhqqoPUnndYNc0DBC7XRBx1OP94MS0kxiDwLzHpQYsNWAuW3TvrDuo3C/twGnZkSVF5Yq6AK2rD9Gm+jDtbQrTZ82R/kdLhA63hOlkW5hauoPCw5WFAri+I0R7mqK0syGS9bGrMUpr60NUUgsThZeWCo5+W8cZfAHzQ9pJy3BFtfo3SvIdm+CTT5qs0XNxYon6QVrvhO8PAjM09s3H9zlyLVstK7ztVzYPVvpwZ+6p89OW+lBWXjGmHWqOUJdPHIiFAbi6nf8k2MnguKkhQqKj3/QEXzgx9BgLCsJkFB7yd+bNK8g2lgl4TvsM/sCfbS6RAM6gNFV0DI6Kq6jx0w4OZVHNKzzf0xihDq8YCAsBcHNXkPsKoj0ZvN7QItb8oCfxuhO9HwDgXGU/k7BODWs3pKQcdBGYdJvMjpYBvpCpMv9gd7Rt9WHD3NrfFKZA0DyEhQD4YHN2k0Mq8LL3djRGqCTL4PHeZuB7qxM9XMEXTs18hnOoK7Ey+Xpq6EgY3xqXpMs0YGRv880fLTXgTBxR2YGr6swpjWBXQ2fItE3YNIA7feZPBCez0r0GRH4AACAASURBVCcuBHlTki/1JOzEesCey+92OrxsT77D2nUa8ITvU89TdxNyh+Rynbrtv1hY8uYG49ovUxyPtETsB/CZLmO2X3YS7Li2KyZk4SjRbz1nuTTg5fGkkP+0YhHGfuneTGL5AGdXAnj67TIxTyYNOJqgirag4ha7o5HPWYDxKdVxb5MDAAw1PFXn9L63rkMMgPW4nwHWVsDTbJulgaDcgLPZA8QNVTEG2YAnfJ/gCbHh9GeOXNNmZULU78u9EaVisl4+pfr+7sao/RqwKACvFwRgeDWwBDuZjihPL2pSRbeD6sf5oEW6+RySLqgLNwTAU4bRrr3rHLuuRcuJkfaQbbGk1idEaZQATqHBAqyZwMs+Wx13XuULtqA2ndgvASw1YN1ucIlJw+jgJumKxuQo3bGs3i8BrFXpRWjAeuy/TnU/w6LZcWCTBLDtAC7SDUCtRprr1yijdHz1+1IDTqGYqWFc0SzGcUBqwJqBruCs/baj56wjc/+yRbJ/+3IJYAlgQxeAmrJ5EsAaLjC5YscKg0FjWqVRAlgz0DArMBNDpqOT7b9YJIfXfyoBbDuAhxsCYK61Xu3/NX30rASwhgsMvOzo8Zn3gACMJYA1A72BM/9DlYPtv1gkR9csMQ3gnplF1DO9iJLTiqhnahElnyyi5FSkWex/v2fGraADN2+WWdX3npnuBHDLuzMkgDVcYOBlx9JQXNqAteq8CBswb/HNSgf7/2KRHF/1Hj+AZ/bDNTGpiOLjiyg2poiiI4soMoLvER1dRLGxRRR/oogSk/vhbBXU3NSuWTe02ITbKD7uNoqNHUax0bdTdBQewykycjhFRgyn6Ag8L+p/jMCc4fXN742+vf93426jONrRJN7J9Lp1wSQJ4CwARq4YLX+MvJYasGqgEcqcyeyg/kxk2DO7qoo81lQuyAhgaLbxSUUUHcsHWV4YD3xvZD/MkwDyzMLUlHHemUA39LN+2EbHDLsJWVFzM5wio4YT2o0pQB6cBU3bj9jT90sAq7iQSi4lgFNkIDKrAVfEklwAhpacalKc9B6qGwzRFmcWEbRcaLgDoOTUck19n8F4aoGBmBfA426j6GhotTmal5FFFIWGnA7GEsBZ5VsC2AIAr+LcgNvg0OKb6guAuhKyou2Oz5FwZ4PIqP6LQCFoxZlswLHxgC40XXvnBWaL2BikzbxlpojM+VFWAKnXWiE+lwC2AMC8CdidWn5ILQjHqz5QNsti4+wV8HRaXXRUEcUn5rt5IsUm3PjvK9onbLjpxsaW96EVj+3PXxya86AEsDRB6E9PadYEsZkzAxpyRahh57TnnrY26nhutLMEPI1mDBBj426IucRmFzIh/VGbIADeMbc7fk6wsRd+8gdUHBKbX9tpMmK2P1IDtkAD3s4Zglya5epodnKN/n5ZJEZ715RTaPz9jhd0rZYHuzTc3YSAzynwvglgeDHYbWrQjne21x2zR9CGwwccrWgYlRMRv5MAFgxghCCrvRwyPcfgi5hEkW2saGqi1ufGuw68WhAkJuYPhOEnDbcw7Tm66XX1uy9RmdfvuPUuUnaMtCUBLBjAvCWInFiAc8uuzRSc4D6tNx2I4FPs9iCP5JQignkl3Tm66f2umY9R1ekTEsIqxUsCWDCAkVg9k9bLPtvoIA+I4nCMjn+yQJyQj7mHkq/Por7y9+nCrvV0ueEUXQ1007VElK5fOE83rl+jGxcv0LVknK4GfXT5TA1d2LuZzlZ+SD0Ln6GoyIvAqP6oO9eZJGB2eMIa8MZmPErJ+U9R7wevUN/ShXS2YrEy9n3Fb1PvkteoZ+GzFH96JEVG3yVuTTDb/Zh7aO/aCgnhmxCWABYMYN4acOscAmAkXG+Y/7RpQYvN/gWdW72MLjdV040rV+jGjRvGH9ev0ZW2Rjq/sZISv5xgum+wmyamuMckAa0d2rsI7TY6+cfU+/7LdGH3Brra3UY3Ll/in5dr15QL5MXPdlHfpwsoNvNRIX3CeZ34cL4sWRRNKIm4jES+aX8jI+FuXtHWcuaAAKiN2IxE/qa820vNcycZF6px91Ff8Tt0pbWBX6gNgPmqr4POrviYopMeNN7XEf1+w47XhGcUUdRkgEv0iR8StNkrLfXC5+VqoIvOrvqUYjN+bmouAOGaBc9RSbCwvSSkBixYA17PCeAVNifh8XR2UQduM9mtoY5j9IkH6NzqpXS9r0e4gGfUnC9dpPNbV1Fs6k8N9Rvn6uTNOQS6IB+GkTnBb+JzRtHFgzvM34FwXiQv1x6n5LwZhvuLPp95eSqV+gO2KyMiFRs9bUkACwYwbxVkhCvrmSiR3y31Baj1eQOeDiPvVOy618+fzS14tUC4cpnOrS+nyNh7DQm/I/2FofkahG98zmi6dGwf3bh+3ZZ5gaadfGOWobkAhBtfmV6w/sISwIIBvIUzCAPeEiKhyttWcShKDa/q11oSL02hK12ttgh4Oq34WiRIPW8/Z0jwnWQThs3XkNlh3H10ftNyunH1qiPm5eLRvRSb+rCh+ah5e25B2oQlgAUDmDcIw64saPDH1HWLO/IOZXNN8VzQaqIOeX1h90aKjLlH53k5xDtiprENN3iZXItHHAFe9QXy+sXzimeFrjV20/x17OOFtiglvMqLFd+TABYIYGUwe89yuaHhu1ZMaKY292xcoQtS2EG/XH/ScUKuFnj2/GpXK8WfGqHr/OAd0Wtzisv4BJ02X1wQ15TYZm5g453tePHwboqM/4G++RhRRDu3rMm5XGSSGas/kwAWCGDeKDhoyVZPrLb9qupTFB7LryXGZj9O18IBV8CXweD62V6CqUSP9gV3L7s8IxBkoaev0fH30+W6E66Zk6tBL8VmPabrHINj76OVdbU5lw+tvOTqtQSwQADzJmLPdRQcdpk7Zz7OLQjwvb3em3CNoDMAK8dLF5VgDj1gQza1XENYsfvqSCEZnfITutLZ7Lo5ud4Tp7jODV9458A/PVcQtPN/JIAFAhjJdVikW6YjNupyOenHPn2LG77x58aS7V4OZm3LV69ScsEc7nMGrOEClksI66kgEpv2CF0L+10HX3ZhvH7+HCVemaprPrBmcykjdv2XBLBAAPPmgUC6ylxNeFXtaYqO4gspRaQTwoOZ4Lj6eOkiJV6czC30uTRFwA2OV0OPTvwRXfV1un5Orp/ro/izY/jPe9RdtLr6VM7kJFfyqP0fCWCBAPZwliLKVSl6TC5vpBuip5CXwdXQ1WjOCBSJzeI3vaDunNVaMCp4RHiT64y915JoNrvmGLlA9ETQtcydqITqaqGVT68lgAUCmLcWXK4S8ezYuo5b47h04mBewZdBBnbTyOi7+cZhlPVeEXq8Hi4e3J53c3Kls4UiYzjnA14Rm1bntRYsAZynAF4WiVPnbD7t72z5B3kn6AzAOF7YsZYPwBbni4Cdmdf00Pvx/Lydkws7+RUD77RHCMFD+aT1qs9FAlgkgB2UinLbrs1cwo60gzeumsxeprn1V8PPKc+RfpEHfsi9a5VvMK/2G396BN24dDFvAYw10bNoLtd8YM7yWQuWAM5DAGNS2+bwbXggV69TIGllP2Df5r31tSJXBNzOeMsJFcKcwB7MG6gBF0qUyVJrjvnyXALYBgAjYY+VC2jjZ/u4tAsk5LYSetq2L1++TF1dXdTW1kY9PTnOpHbjBp2rKuYaF0ULFlwPjje5eu/iV3M6J5ijixcvUmdnpzIvZ8/mLtESMtvx3JXgO7ijs1Jm7GpbAlgggHm9IKwG8Ol3X86+sEfdSUhmo4Wk6NexWIzmzZtH//Kv/0qf/8IX6L997nMDj//9R39EEydNouPHj1veD+W8Ll3kzincM1WsRwSX9jvmHrqWjOVkLPx+P73wwgv09//wD/S5z39+YE4wP9/88z+n6TNmUH29+HzCg9bXtWsEcwsPhBvmzZIATsEqlphdJmSPJogXwFa6oSHVZHDcfVkXde/Hb1gq6NevX1fA+5tf+cog4VYDWP38Rw8+SIGA9aHPShpLjtzHsNeKcklLTuXbfOsrfdfSOQH8rly5QnOeeYa+/Ou/nnVecMF8/Be/oETCuqjIiwe2ZV2rADR82T1t7XkHYakBp7iqrO8wZm/iDcTYYmEuiJ3bOHb8R96h1GgbpI0I3Ejr6+uju+6+O6uAqwGM51/7/d+nY8eOWQohRPnx1JwTuRkXH8cB4NF30bVY2NJzj0aj9H/+/d91z8uf/tmfUWNjozV9u3qVUKOORwvet6pEAjgFr6AFSw04miDeUGQrc0E0vD4762KGR4BV8L127Rp9/7bbdAs5gzE05qamJsv6h/PuK1mUdYwAhOSTArRgBF5waNy9H86z9JwvXLigmBvYOOs9/s+vfY1gtrBi3ZzfVsU1Rm3PjZMAlgBOn0aSNxnPNos04JJgmEIcVSIufrbTEkGCcM6aPdswfBkU/uyb31Q2hqwQdrR5pbWRS+BFmCEAcR4AW53287HHHzc9L//4T/9EMC2JnhdELEZG3ck1ThVtrXkFYWmCSHFFMWqCUAaTIx/wjp6zliyiDTzeD+N/YJmPaXt7O33xS18yLegAMTbuRAu6uj2e3MEivCF4fH+RbMfKckLY5GQXN7PHZcuWWTIvvJVNdmyuskR2pBdEgH4FmzBmHg2dIWK7gmaORgGMSQRcM2VCY58B1qIn/VDFR1m1iJ73X7JEgAC3sePGCRP0r/7O79BVC0vtnF35adaxguZqNiiDp87b2colls0J5uUH998vbF5wd6K+kIl6riRw5zDVnHz/VeFyI1oO9bQnNWCBGjAGHuYFBtlMRytKEsFVJ9vt7oXdGywRIAgi7IRmNSz173futM5Uglv+bGOFz5E03ag3hBJ8wQGVy7XWbTzC9svj8aAe92zP6+rqhK8hxQzBMVYIr9cDOKd/VwJYMIDh4ZAJvOwzT1x8UU7vlIeyQgVVCkRpLep2amtrhcIXEJj9lHWbhQj15UnSE59kHMBc7mej77LMJIT52bFjh/B5WbBggSVrCLmos10UoyPvILhaOh2svP2TABYMYGQ6Y5DNdKwUXBW5vKs7++Kd8hNLBAeCvnbtWuGC/uCPf2xZf9FnniTh8fHGAcyT9xd9UF/IRD9fsmSJ8Hl5YuJES/qMpFDZAIzP1544KgGs4ZZ0Q7tp012X4APwyniP0EW05tTxrIs3OW+GJYIDaFRUVAgXdPgSiwaSur2+pQuzjllsjHEA82zA9ZW8Y+k5vvXWW8LnZcTIkZb0+cL+rVnnAwDesX29UNnh1Vat+J7UgDVXEmzemdmEq4r3cGnAVQmxAN7Ckf2sr/htSwQHUNu0aZNwQX/4kUcs6y/6fH4zR5VoZEczmBcixhGAAR9Y9UVB9POlS5cKn5ep06ZZ0ucrLfVcAD64/BMJYA23pAZ8UwNeleAD8Lpkr9BFtGfd8qyL9/zW1ZYIDqCBZC7ZNm/0fv7yyy9b1l/0+dKpz7KOGTQuwwAek90H2MoNOJzjkSNHhM/Lxx9/bMm88G7EnfhovlDZsUKz5W1TasCaK4lZDRi23Uy2X/aZ6KoYBz3ZXdCsDMCAsP/lt74lVNhPnz5tiaCjr3jwBmQYdUXjcUGzut4bAif+x+/9ntB5sTJnR2TMPVkvitVv/VICWMMtqQHf1IB580GIDkc+UvJe1oV76eQhS4E2d+5cYYL+53/xF5b2FQAG/Hg2fYxWTI5ylJ23Ov8DznP8hAnC5uXf/+M/LJ2X6OQfZ52ThtdmSgBLAKcOpCjmLE0PTRi3H7y3Ktm+x1N6/nKDtRplb28v/c7v/q4QYV+5cqWlgg4wAX5WApgnBSWqBaMvVj6Qw0GUL/C+ffss7StPEdUzL08VJjfZ5Mrqz6UJQnMlMWuCwITxBmNAWxY1wTwAxiaHlYKOtktLS00D+I4777S8n+jr9d6k7QDOVTmo+fPnm54X5JOwev3w+AKfeWGyMLkRJX9G25EAtgDAyPfLbL2ZjiJ9gY8Uv5sVJpfrTlguQBDQGTNnGhb2b/3VXxE0aasFHe1fiwSyjhk0ZES0GdmI49KAL5zPybnifB997DHD8/LP//IvdOnSJcv7ypOj48zL0ySANdySNmCVOYHXF3i1QFe0Q2VLssLk0vEDlgsQA+drr702pNJCNi+I//re9ygej+esj1e727KOmSkAj8ruBYHaaGzMrD5iQ87IxfH+Bx6gc+fO5aSf0Sd/mnVO6ufNlgCWAE5vvwVYM2m+7LP1Al3R9qzxZF24qD5gtZCr2z906BBBc8oGXuzSL1q0yNLkO+p+sedXmuuyjhkAbET7xW+QTS2bjflqoDunc4Jz37ZtG337O9/JOi9/+I1vEPyI2Xjl4hjhqOZSvehFCWAJ4PQA5nVF2yKwOOf27RuyCvu5dWU5FSYmsIcPH1byOqAu3Df+1/+i3//61+lvvv1t+vmjjxI2286fz91tOOsTjjwZuODJYBjAY7MD+HJTjS1zgvPfu3cvPTl1Kv3Td79LgO3X/+AP6G//7u9o5KhRtH79+pyYHNTzcePihaxrGBe0Yx8vlACWAE4P4NJYgksDhiYMrwmjBnz179YfP5x18fYuec02YR8kaBbv+vP+17m1pVnHDL68RgEcG58dwBf2bpJzwvyyO1uyzgcAfGBVsRCZUcuPXc/lJpzmSiLCCwKTuZ1zIw6FPEVMPioFZLvdTbxgTRIVXuA57XsoAZ9tzBBObBTAPKXorc4F7LQxz9QfnjsSzNfWnZuEyIwIuTPbRkk4LiSHudyE02iyKD3PbL2ZjiKT8gSfeCAzUMbdRzcsTHKeSbic+Fn8mdGZx2tEEQGiRgHMkw0tuWCO1IBvasDnVi/LOh8AcFX1qbwBcLk3IgEMrVf9MJOMh10R13KmpYTHBPuN2eOZF6dkXcC58AV2Imy1fbrem8g6VhD2hImE7Mlp2U0Q0fH3041r1ySEkR701WnZ52T0XVQcigiTGbMyZ/b3lR1iqvhIDVijAa/gzIomciPuyNLs1X7PrS+Xwo4NuCN7sgs7fICnG9eAkUOCxxcYOSm0F4iCe60kyL8r65zkW2XkiubAIOVPrQjqeS4BrAEwb04ImCdElSfasmdb1gWcfM26nMBuggZPLmDA06j5gf0uypER7dwGT8ED+HJt9nzWuCM5/smCvNF+oT17Gv0SwNorjQgTBHY3eTfiREXElXd7KToqixYx8g66Fs+d878joXzlCkUn/ijrxcpMNQwG4PjE7GaI+HPjCh7AfZ8uyDofADDyXpu97XfK74ujcSqplQAecgUSAWBM8gbO6hhI4i5qUTTPnZR1IZ/fVFnQAo+IQAhztoeZgpwMwFx14UYU0VVve+HOyeVLFJ1wf9b5gHJR7vUKkxVRMme0nXJfhIprfEP4o1UIeV5LE4TGBIFJ4Y2IQ+4Io5Oo/d2+quy+rfE5owtX2G/coJ63n88q7DA/9Mw0b4KAHZgnIu5s5YcFOye89vh8ygEBufW0BSWAU11dRGnAFXG+5Ow7esQFZHja2rObIUYU0aWaowUp8Aj9jYy8IyuAEUTBtFizR57acDCJXL9oT0Sg3WaixEvZvXdwt7Jz02phiopWcbHjtafJLwFsJYBhBwZcM/kBs89E2YGxkBrmzcoKGKur8dot1On+v/fjN7KODYQ9+aQ4APdwuKPhP89vWl5wF8XLDae45iM09l4qy7Ny9CW1PglgKwEMGPKmplwr0B94+46NXIva6gTt6SBo1/tK+slRd2YfGxTiFGF+UBXz5DFDRKf8hG5ctj7lo13jn+p/k/NmZp+PEUVU884LeaX9lgVjCnylDVgThAEgizJBAMCrOf2BRZYoKglGyMeR1k/Zfb9eOEEAPYvmcgl7wkT0WzpzRWJS9k0/aMHnqooLRgvmLYqKcdlw+EBeAbiiKywBnEr7FQ1g5HpgZoZsRyTxEWWL2ru6jAs2VpdFT6X12PHepdNHuMZD8f01mIA9HXzxPjb0eLTgyJi76WrIl/8QvnSRYjMe5ZqTlrkThcmFKPky205lc/8GnNSAU2jAG9qiwiZcjz+wyLwQpf4g+SdlL3CIUNhr8Uh+C/zFCxSb9RiXsJvJ/ZAJwPgsweETrNif5z+V3/Nx4wadXfkp13xgPDbv3ylMHs2CU8jvIwli9l8J4BQA3tgUFjrhGzjzQuB7Qib4pkvcgRVLuRa5siGXx/kIej+cxzUOEHaj5YeywZdpwTyhyejH+a2r8hbClxtPc3miYBza5owRWrxWpHwZbas8EB0wP0gApwJwo1gAQ7PNZn7A5zsE5gfG4igJhKh7xs+54HN2xcd5KfAX9m3hOn8IO6LWeEBq5jtxTltwZPRddKUt/3JEIAkST9khzAcemw7uEaqUGIWmyN9VtoUkgNPZfxUbcH2ISsIxYRNfqqNUvUh3NCwa3L6xxZztePHo3ryCMDK/Rcbey3X+ZhKv6wIybMGj+TbkYjN+TteSsfyZkytXKDlvBtd8YK3WLHhOmAyKBKjZtjwNgfwE8JkuMand1tYFydMlVgvewpmgXWSdOLZQ6ufP4Vv0o+8m+GXasUkm+j+v+ru48j2wi5JIv99sQOYNT0bfUKb9+vmz7p+T69ep570X+dbhiCIKjruPKltb8w7ASMAOs4P6kUkZ5P1sT2OEAoGAqcevmG2g3RsUEle9ui5IFWcCQie/irNQJ8wQ2Lhj8BRxXN7STFmTtd+85cOm3JX2JlcL/LVoiGLTH+EWdhFJd7JBV/t5fByfFgwIJ1+bTjcuXXT1nPQVv8M9HzjnfatKhMqACDkS0QYUOzV88XxrQ9g0tw41OwDAAPjepsHJ1XmvIOx7uxqjVFbrV3Ypl0XiwhaBnvSUlXExZYrUC2brnq38AjD+B3S5/qQrBf6qt4NiU7OXNmeaL1zDhOR8UAVdaGGb6jW3W9rNC2Pi5Sl0/Vyf++bk2jXijT5kc9L42gwSKXtqObD7eWXzYPMDAFxVZ15xrOkImdJ+wU7TGjAaqTeZYX5D/S0DuadbbOZ9BFvwbMaJrJKhXnDHPn2LH8Kj71aSlos2DVjZ3uUzNRR94of85ziyiFC1IhUgc/GeEqI8kl8TRhIlV7kMXrpIPQuf5Z+PEUXke/Ih8nR0ClN81Ovf7ufFkTgVV3uHaMBQ+HakcAZgSmG2I8wPvkDQGQAGhI+2GFPptzVGqFRlnxFthlhjoxkCiw+lXFqen6BLIJSikS6oI3d+62qC5wDToniOqNmWC9Bm+g/eCDl2PghXvlx3wvGa8NVAF8WfHatrPqKj7qT1eRbxpoa+p6s//aTWBIHXK2qDhLvvbLDVfo7fNHeZh68wDRgNBQJBOtGqD8Kb68KK6WHw4HgJSZPVg2jmuZ6ouOUWmCHQd2gXXZxBCUzoka0KdlUrtVejbV8/28uXXlKT/9fKgItMwE31GU+2NDYX7IgClk6tJXfx4A6KjLtPF3xxXnvWLxcma2bk1KrfepqGmh/UvFlRG6DtOjRhaL6i4CsYwP27ge3eEJ1oC9P+MxHa3YhHdOCxsymqnOzG+hAtr00/MBUCzRDYXNvGaYYQHZShXlQrmpvIO+UhfQIy7j5SErk7SBu+eGAbRSdnj/Zj0GJHkakmUwHVyHsxHZty7DyQy8NJRVavhQPUs/AZfevq5oXxkOfDvIZvcQrvBzV82XOYI/acCRI21QBYNbPwHO/hs9qOkBCzQ7/C2s9LITZgdYOZnlfWDrXFsEFQH20zQ/SIqxWnhi97jtLevJ4RTOBxhB3yUvURW7XhK60NhOg9db94nwN0RgBp+W/gHzyW3x6sPt/eT9601TZ8/fw5OremhCJj7jE0Jyc+nJ/X8IXMqZPvqPmS6nlztzl3skzcy/RZTgG8t6U/GXKqARj8npeWhcWZIfR4Q6xKiCtVxMCrPlbVVSubHmph5n0e/+UEunRsP924fj1nMEb6zOTr2XMdpzsHxd1McJpJkWBGGHTMIIRh/0ah0Wthf87m43pfj5K9LfrEA4bAi3kCfPPV40Eta9nMD4w5q+p9pjfTMkE202c5BXBTNy+AfVTRGRJ6heYNyticFFeqSL0Y1M9XNJ+hzpmPGxYgZLSCPfJq0JoMXtcSUTq/eQXFnx1juI8QdCfZfDNCe2YRwUSS7iKS9f2Rd1By/lN08bOd1vgOX79Gl2qOUe/iV7mjDNP1+VDZEqFypV7XTnpeosr9y0Cb7nigtUAAjCvB8jo+MwRKR4ucUN5acXBZg8Ys8r9TteXp7KLmuRONCz3zVf3lBDq7/CNFQG9cvGBME7tyhS431Si3tIqZgaN8UDoBZ+/D0yAj9HT68OaiLSMbc+x8B47jf0DIgXx+xxq66uswNh83btC1WIhgb+/96A2K6t070Gx+om/wdsj3DTe1nHlab6WeTAde9n6rzx7zA3iYUw0Yf7ivlV8LLvOLS1GJvL88/sD4zjrBGdLUC0P9vDgUpSNLF1FUAPAUAIy8k2KzH1f8QM9WLCG4iV3Yu1nxLUYibuSdQKIc5CM+u/ITBRSwL+t1JRuATUpBLyKE/eYCmFb8B9zkMp2f3s9QeTjx4iTq/fB1OreujC7sXEcXD26nSycO0KWThxSt+cLuDXR+Y6VizkAEHtze9P5Ppu9j8zefXc3UMqU8jySotG5w6DGDrfa4usE+7dcWALd403s/aAenoiUoVBPdlOQLyhCdIW3IAtGEPW/ev4sCE38kVOgyCaRVn8GW2mtBYnUrQJupzZ7p/Ml7rBpLUe0iwq2is0OoHGVbz3Z/7vGm9/3VMuZwm982+68tAMafrm3guzopCZQF+gSv4ExRCS1YZKJ2ngXpaWujmrf5yveIEk5R7SC02AkBFpmgqvuzmUUkxCSR4i5B1Lhnaic49j7av6qkIDbbtPKVKvRYC168LqnxUpffPvODbQA+3s5vhhCZIU2PTzAKe2onNhevN3y2jzpn/8I12nBsgvhimrphaaE9GWHTsTFizRKZwCni3UE3PAAAIABJREFUs7oFz9Ly1hZb1m8uZCTTfxTr2HzbesZe84NtAPb6/VR+szx0qiuT+r3yBrGbcbyhydCCPRZFxmVaQPgM4cuB53/OncNWhNDqbQPmhh4X23r1Qh4aPld9OZs0Xsxf94yf0aaDuwsSvEymKtr4N9/quuzVfm0DMP54VzOfGQIwRjkRNsBmj2U6CnZakSeYt/8tH8xUNrIUwedMJq4Xoka+D3ctO5Pp6AWn0O/P7De18CZ3NzK+Rn4DDT05pYg2nsivKsa8ssK+V6yp+6ZW5LTP4Y0FDtn9yLkXBDvhM938m3Gw6bBBFnGEeYHHI2KHxZFxmc6l4ZNfDvIkgGeBnny2RgQ53W8AHBS3tLJ2m1BQWmiSYP1MTDERwCFIS0aQi9rjZE39KaFykml9OvEzPZFvB1vt3XxjHLQNwOjAGs7NOFy9SgPiyhXp2YyrilsbGZduIdeUvz4IwEzwkdMWWrGSx0BHWsV0cE33PqCLTSi1gLM+yOMtNzt4TMDnOVdaMUw/mP9UF8OVrU0FC2Ds78BcqdV0U76u9lKHjb6/DL442gpgPZtxla3iXNL0bMYhkQ++nw6UVr1/YtW7KQE8CH4z+wEJAMA0YBgCI/s3mhTgTikiQGXQ/+RAo8yH/1NgjIujmbnQaMfRMf0XQmjc2ZLYl3d353ydWrX+9barx/Vs6xlnaL+2A9jnD1Alp8N0cY2XUNtJ78Sk+/5qB7ukoc+H139iDIIz+wEKzRVCCzgPeUwuItRjQ3LyVJpUPsDQCecAYGKMk5P7TTi4wOHOBVoskgDhged4wJyAz1ElGvNmxM5eLLCobTq5cer7iJxNqe2qco2zz5tsSryj1nzZc1s1YHQCthg2MNmOFW3i8kOURBMEGy+PLTgX+SG0C/vA9kpjAJbaakGOW+KZ+4QpJ9q16PTXZb4oN0PW2Rz5xsDLjrYDGI7QpTV8+SGUwAyBWjDKEPEAGN8pzrEZYtfedQUJEidorm7sQ/jFhwsWwLxZz6Dgne5wjvkBELYdwOjEbu40lT6qFKgF60lTmWsAbz2yUwJYavPca8D/xsiCBHC5n1/7XWlj2kmm8WqPjgBwm5Ifgl8LLhFYOZknPwQKe+b6NmzDqUPcwudGjU32WexGZ+fbk3K+RnMtE6n+z9PEb8I82u4s7dcxGjA6gp3JbDZg9nmFQI+ICo7ADKSyTDX5Vr63pvG0BLDUgLnXQMvi2Tlfo1auf562y7382q+n1kfY9NdqoHa/doQGjEFo1pElrbjaRyUCd3zh65vOFrwx2WuLG9qKtmZu4ZPapFht0o3j2bD0hcIDsA7Ph0MOCbzQAt8xAEbH9GjBla3iPCJwtUVwhrpqBvx/4apmhw8w+lPu80kASw2Yew1UV+R/jTe1VlyuI+VkRZ2PvA7UfsE8RwFYT65g+AWXBcVFx7HJxWYbXNTsAi/rB2p29c2+g1sA3ai1yT6L09yPr36/cDTgSILKdWi/h9udZ3pgmrCjAIxObdNhCxadI4LBzynH+HP3SwBLLZhrDRzeuKxgAKwn58Pyej8h+yIDntOOjgNwmw9Jevg8IrApB0O8U4Apuh/hlx/hEj6pSYrTJN06lvt3rshbOVDLVXEkTiUpotvYBr326ETPB/VFwHEARud2NPN7RJTV+2lpJPe5GtSLwqrnvvmjJYClBsy1Bnbt31gQAEZOGC1k072urPU60vPB8QCGXzDKhaQbWO37lV3hvFx8He9M4RI+t2ptst/iNPctR/M/ETsyImplP9NrJPtSw86Jzx2pAWOg9uqIjlMqoAoMUbZKo9XbbsuHT0sASw2Yaw1sqD6Sl0qIWmY8Z/hziK92YNRbqguAYwHsDQQJ7iOZrnDqz0Smq1RPup3P64tf4hI+qUmK0yTdOpZVTTV5DWBPN3+lY3Chvsv52i+A7FgAo3PHdBTvxKB7/Pm1IXe6coEEsNSAudbA8o62vAUwNt7K6/n3hTY32V9sM5W2m+o9RwMYHa7SUTWjrM6fV2W4j1Ut5hI+t2ptst/iNPeygNiyXXbe+Wn/W8/GW0m1l7CHlAp2TnzP8QBu6OK3+0ALFpknQrsQcv36s80lEsBSA866BvqeuitvtV89+R4g//ta3GF6YBcDxwMYHdUTooxJKA+Jj5DLNXzxf/t2rswqfFKLFKdFunUsY8//KC8BjGhQ7jpvNT6qrEPQhXu0X7DNFQBu9/qprJZ/Qw7lSfLBN3jngc0SwFIDzroGgq88mpcAxt0sFCrex0mHJVtnWm6moysAjBM40sZvhMeEVbSJK+Jph/aL/4Rvp1u0ssjsu6n36btd01+3jCtPP70LxuUdgMuUROv8sQAbG92z8aYGsmsAjE6v1bEhp5giXO4Vsa76iGuA1jLrfmo/uIN6n7rTNX3mgZsbvtP+7tS8AvCysD6vB9wdtzukzLwarjzPXQXg5m59EXJwXcFk2qXBmv3fVU21roFZ1/Q76caNG3Sheh/1PnWXa/qdDrDn3p1C5z6Y7orzOPPRs65d46lkpKJZ38b7ERdEvKWDsasAjJPY38JvE1JMEc3uNUVUdLS5AgCAWHDqMLp06ZIC4StNx6j3mftc03cthM998gxdv3SBDr841hXnUF/ySt4AWG/AxRqHVTlOB9p077sOwCgrsqpeH4Q9XRFXLtDSYNAVAADAEjOHU0NDgwJgaMLXus9Q34sPuab/DMIXVr9DN65dU85j9+yfuaL/p5a/5cr1rdV+S4IxUiqfc268ISsacoing5sb3ncdgDGoDV3YkOM30GNSMbnaCXfD696n3XM7v27t2gEAA8LXk2E6+9YEV0AMG4iXD28c1P8dY253Rd+PrFniyrU9SP4iCdJTYBN3twccWmZID/hdCWCc4H4dyXowWZ4Gd0bJxec+6AoIQIN885UXBwEMEL5x5RJdWPGmo8+hb97jdM3XPKjvyWSSdv38Xxzdb6a1H9xS6noA63U5g+nBH3C39guOuRbAGHxMAuDK+6hocZ89OPjaY66AAGAw6v47BkFMATAgfOMGXT65k3qfe8Bx53Jh9dt049KFIf0+cOAAffaLf3Ncfxl01cc9u1a7GsAVOhPtwOuh1euuiLd0WrFrAYwTwiToCdAAqFHOZNCtT9TZydy7F4x3BQQAhLu+9Yd04cJQmDEQX09G6NzHcxxxPmdfH0FXW04OAS/r60svvUStE7/niL6qYZvq+faDW1y1ptXyhxy/euy+kGE35PlNB1zt+64GME4Gk8GrAfd/z0vlAffYg1vfneYKCAAMj/3tN6iioiIt1BjcrlTvpb6XHrbnvJ67ny7tqqAbV69k7Of3vvc96nFJFN6m4/tcCeBiFNds0Ce/W8+4M+BCC1722vUAxolgUvRAGAncS1ziH9z00bP2gMoAfF78z7+gO+7s9wdmsE17vHxRAWHOzBLP3EcX1y+h62d7MoIX/Y1Go/S1r/yGa8Z9Xe1x1wEYVcf1+vtW1vmo22W5Hhho0x3zAsBd/gAt15G8HbBGvgi7S8+rb8XSPa8tedU1IKh84O/pC7/6q9TR0ZEVcgNgvtBHl3ZVUt9LP7XkPKFpX9xeStfPZQcv69PChQvpr//v37SkP6lMCGbfW9nS4DoAe3TmeYDXEzIjpgOZW9/PCwBj8Ju6/VSqY0MOEK44E3A8hE8uf9s1IDg1+j/ov33uczRm7Fh+AN/cpINJ4ErtATq/bK75nBLP3k/nPa/RlfpDAz69DK48x7/81rfonr/4mmvG3dPV6SoAezrDuu5YIaufteXHppv2QpE3AMaJ6bcHOz9/8JF1H7kGBAjG+OIXPk9f+rVfo87OTv0QZjC+eJ6u1H9GF9a+RwgJ7n32/oxj0PfyI3Tuo6cUTfdq6+ms9t1MEK6srFQuItP/5U8z/qdZrVXk70tC7gk0KvfpKy0E+CIdrRZc+fI6rwCMSdnZrM8erGjCDvaMOLClzDUgAFT+7mu/pQDsnnvvNQ5gBmLV8XpvjK4FO+hqRz0Bste8zXQt4qUbly8K+58rV67QX/zlXyr9//Dub7ti3JNz7nGN9mvE4wFRr27L8avn4pB3AEaoclU9f5QcAIxHuc+Z9eR2717jChAwjW7MP/xvBWAwRVRVVQmDYyatVdRnL7zwwkDf9z72r64Y98jcn7gCwCXhGJXpqOsGmSyr8VKry0ONs8E47wCME+7wBcijI4E7Jhu+iMhBmm4zzK73tx/a6goQMAB/cs93BiD221/9KnV1dbkCwjU1NYrpBBeOX/vVL1BsxnBXjHtg3i8ct2a1sgJ3M0+DvgxnkMnTLkywng242s/zEsA4SZSlRrIOTCTvA+5puE3SLiA7X286ecAVIGAArhv3nwMABsz+8Z/+iS5eFGcmEKXtqttJJBL0x3/yJwP9/u4fftU1Y9658AlHrVetrBRH44rHEa8Msu/ta8kvf18teNnrvAUwTvBEh/6rLiorlzkocc/auhOugQGD8J989b8PwAwQvvOuu+jq1auO1IRxcfjP//qvQf2d/N0/cc2Yt3ww07EAhpsn3D0ZVHmP+RZswWCb6pjXAMYJ680fjEVSWuujUocEaqxqaXQNDBiAx//jHw0CGiD84I9/TJcvX3YUhAHf24YNG9JX+DOzc3H6seGTXzoSwIBvpc7E6pC9dQ0+8uVBkp1UsE31Xt4DGCe9/Yz+qzA2DLBxoL2lyvVrj7fLNTBgsFr3k38cAjVAGJpmb2+vIyAcDofpX//t34b0E/ZfJJdn5+L0Y03ZPNvXqFYm+qPc9BXUBHxX1udfpFsq6KrfKwgAwzNifSO/LZjdKiFO3e6Q5eJw1DUwYLCKzxhOX/m/vjgEboDwN//8z+nkyfRJcNS2WaueHz58mP7wG99I2b9hf/p7rhrvE6vedRSAjcIXm+b57vGgBi97XhAAxskihlxvJQ2AGDZhu5O5J+a4r7zP43+bGnCA8Be/9CV65ZVXCH63VkE2VbswOcyYOZM+/4UvpIQv+vb28L92FYAPr//EOQCOxJXoUqbA8B4RwYoiCwxKhXQsGABjUlE5tbJWv4+wYo4I2lfcM+LC0j47f/bPaSEH0OHxZ9/8Jq1fv95yCF+7do0+/vhj+oM//MOMffrVL3ye2ie5IwUlu9s4sK3CEQBWNN8z+je9i6u9VN1ZmPAFkwoKwDjhNm+AKusM2IRtdFHzzxvhKq2MweFPf2ewNwQDr/b4N9/+NpWWlg4U9UylvRp5LxaL0euvvz7IxUz73+rX97oo/wMb411719kOYMXP14C3AzTkU535l2BHjwZfcADG4KC8vUdn9jQsFvgVl/lzvzHX+dZEVwJ43ve/lVHjVMMPz3/zK1+hxx5/XNGKe3r4s5ep4dze3k6LFy+mojvuGAis0P5PutdVP/5/XTfOWw/vsBXAxZE4lRuEbz4lVtcDXfV3CxLAGABkTyvXGS2nQLjWR+Xe3EbMtXwwy3VggIYWmnY7/faXv6QLwgyOn/v85+nb3/kOPfKzn9HcuXOpuLiY1qxZQzt27KDdu3fTxo0bafny5YTUkZOnTFHyEP+P3/s9Q/+F//yj33ZP/l+m/eK44dQh2wCMDWojfr6QoyN5mt1MDVee5wULYAwODP+lOqorY+GwRy5L3TcsnetKAAMQs//tzwxDkcE4F8dFRf+PK8d4TeNpWwBcFojqzu3AZOeQhO/AhmNBAxgQru8K6M4jzBZSRVtuinxWl7/hSjgAwJ2Tv5/WJS0XYOX5j2/81q8TXOfUmqVbnq9oa845gMu9ESoxqLigmjmPZlgo3yl4ACuacHdAybzEwKrnWNEcpKURawt7nlj1nivhwCD2yn/1p3jkgaEd33nHZa5nbFxxLPf5cgrgCgPJ1Jk8HWqV8NVeWCSAb4Y9NnYZswljcXma/FRsYejy4Y1LXQ1gaJd//NXfcKQpAvmL3VJ8Uw1ePO+bfQcti+TGPVJxM9NdRuiWye5oe2F7O2jBy15LAKvizlu8Aaow4B0BCJfX+6k8ZI2HxP7ty10NYMACHgZ2aLeZ/vNzn/scuSXvrxa+eJ145r6caL/wdNBbQJNpvThKb4f0Fx8JYBWAcVVqQ7CGQQijcGBFl/jyMLv2bXA9gAGMUX9/K1l7JjDm6rMJ//jHrh7X6AvWJ2M3s9kGt81THenhw7TAQj5KAGsArEDY66cVhiF8s86cwFvDrUd2uRoUTHuDW5o2VWWuYKv9n7///d9y7cYbG8/Aa49bqgFDmSiuvmVGUGu12Z5jk666ABKqm714SACnADAGtcsXUFLjZVto6T6Hc7qoRD4bTn+WFwAGOI6O/D/0m2kS9WghadXr3/ryFwmJ4xnI3HrsWjjBEgDD3lvZpj+bGZMFmPGauqXmywNnCeA0AMbgIS8pKrKyhaX3iAobHgG15qoaa1wPCzXkYA/+wuc/b4tN+Mtf/AJte+S7eTGerRYkY0fiKWQB1LvW2fdX1vmUcH8e+MjvFGAuCCOTvq/F+ILEwqxsC5narV7R0ZIXwFBD+IM7/4awCWaVlpuqXSTbWfWg+8KN1eOmft647AWhGjCCi1AbkcFU7xHJ1Lv8UvPVwxipAWfQgNUDeazdT8jcpHdRsu8joxo2NLTJq3lel/v9eQdggOTTe79DgGIqWIp+77//2q/S6jyCL8bvdOUCQ+tJu+YULwcjmcxUkaHbzvgIebfVMiOfZx8PCWBOAGMx1Xbpr7bMAKwcq71U0REi2Ni0QpDpNb7f99SdeQnhVT/6B4JNVjRw1e19/Te/TId+8W95N37HqhbrWkep1hjymqAE16B1qgIrz/sHZICF4QuPBLAOAAPCrV4/ra43t2CVDTqd+YXjzz2QdwBht9PYEPuHr/+2JRB+8K++Tl1TbsvLsftsc4lhACOFZKWJwAqAGcmspKdDdi03052ABLBOAGMwcauFWy4e7SD9d7xU0R7iDmMOvfLzvIQIgzCi5V793l8K04aRi9hzv3uKa7Jx0HPct2uVIQCX+4wn0mHreXWDX262GWCHFsYSwCYGEeGVcDZni9LI0dMQ4Mox7J0/xrUhs3qgguQ9T/7zn9Dv/savGdKI/+Z/foU+vOvblJxZlNcXLIzpzgObdQG4OGQuoo2tb5SN9/plXgctTI28lgA2AWAMOFJaGo+cuwVvZFbDbWEqOx3e63h3at4DRQ1qaMQl9/0tPfjXX6c/+MqX08IY9uP/749+V0l7eXzUvxfMGPXNKqLNx/akXS/adYSgCjMeDgp8q710WKaSNGzvTQVoCWCTAMagdvoCtNFA1WWmUbAjPCXS5Rlu/nBOwcBFDWL2vHvKbcpG2paHv0tbH/4uHRnxf6j5if8q6DFZV3M0K4DLg7H+ZFEm79SW13kLtnBmKnCKek8CWACA2WQcaUeC91taLQOr3iOqDGhd1uqLXy5o2DAQy+Mt08qqptq0AEYUptlNNrZut5/xk1e6mAnVfBkzJIAFAhiDioxq2KBgi9fMsaI1OBDOfKpyoQTwrFvwkSAuooqO9qEAjsTJ0x4yb2646eVwSuZzsAS8EsCCwcsGFEeEMO8xGT3HwI2kJvCWOFXxlgSwBPCgNVAavFWRBb7inu6wqTBituZwXNfoo3afORcrtUzI56nHUmrAFoIYgRuVtcaj59QC0TJ/GvVMv32QAEotsIA14qfuGtB+Pd4IeRoDQu66YEKTlStSw9KKi4gEsIUAxoTBdrZbgDbc9fwIik/4PiUmD6Oeme6sXyYvGOIuGPE59xH8ec0kzlFf4BWtt8Gn5MO2AjSyzdRQlwC2GMBs4cFdbXWD8Q0639MPKwAGhPFIPgkQixNoCUd3jWXs2R8K0XgBXkS0IdcJW6vymBqWVoyLBHCOAIzJQwTdgVafoYqywekPDAKwog0/ARBLs0QhXjxiM+8TAuDNTT7qkLZe2y4+EsA5BDC7gsJTYn2jPk+JyOS7hgCYacOJJ26jnmkSxIUAYlxwE098n2KTbjcF4OV1PjotPRxsAy9jgQSwDQBmgw8BgIO71haX6nV84vC0AJYgdpf5wMiFIjntdkpM7Dc/9d/9DONaN9q1VFrjpYOt8OuVJgcmh3YeJYBtBDAmHi5rEIiyTCkBq70ELZeBNttRasT5A+SeacMpMXHo3CcmDqPS0526IIwEUtLckDv7Lg/YJYBtBjCbpA6fn3Y0pzZLrN5/khu+ajgrIJ56O/VKrwnXue+lA696ftftPMAF4DUNPmrskhovkzUnHSWAHQJgtiiauv1D8kpsX11lCMBMWAHi5JRh1Cu9JhwPYsXUMGmoxsvmUn3c4ynNCOCV9SgLL8HLZMuJRwlghwGYLRK4rW24uVF3+KNFpgCsFtok/IinSz9iI3ZYy34zczglp2JzjQ+8bD5PLJqXEsAr6nx0vN1Pfpm/wfZNNibP6Y4SwA4FMJuwhu4AnZk/RxiAmfAmJt1G0LakecI+e3HPjOHKnQm8Gti86DmeeenJQQBG1CX8ef0OX9NsbcujrIrs+CskFmn0xfGGBJRXmJXoOqkV58w8gTuQxKRhpue0a+YjCoCRj/pou18WxXThhUdqwC6YtPAzYyg6ajjFdd6i8gKYfQ+77UqE3QxpohBuboCZ4clhQucwPPFuOtkhNV43a9ISwE4HsN9PkbH3UmREESWnFCkBF3GVPyiDp+ijYqKAB4XNME4Vbq1+r2dWkRKSjSOg2TPLQRePmUXUg8AJzk01vXMYGzuMAu1trriLczMkrey7BLDDARysPa3AFwBOTL5lr4SbUi5ArEABXhTIPSGzsWU1Uyh23anDLIMum4/Y2NspMmI4hQ7vkwB2uAxnArgEsMMnL7R9/S0AT7oFYHaLjBBkvbvnejUt9fexYZSYfBv1TL1dZmVjWvf0fvNCqoAJ9diJeM7cCSMji5R1EVpTJgHscBmWAHbxBIVL3rsF4IlDAXwLxKkjpkQIfaY2EB6rbOJNu52g/bH+5PMR54kLEM4709iI/Az/pTYH4Y4Ij/AHr0oAu1i+pQbs8MkLvzZjAMDxJ9IDmAEPO+xxi2yOXEB54jZlhx8miyQ8K9we/DFzuGJ6wfmI8FzgGsObKUfxXfznkAvbzH74KhB+ZowEsMNlWGrALp6gyMQfDQA4Nj47gNUgzqWGlhEsgPLkYZSYMkwJOIDZxGlJ5ZWNvenDlU1O3OYrG2cWe51kGjOtxsvmFceeGbcAHB1zNwW93RLCLpVxqQE7eOJC9dUD8IW2ExvHD2AmsAALwBc36OyfCRKmP0OfYMKYdBPO0JphWwagoT3DpCFCg4Y3AswGsNVOu52SU4cpm4rKRWHibTm1oWcbsyTs61lMOT3TbwEY6yJ0ZL8EsIPlWGrALp2c0MYVgwE8Vj+AGYgR8aaEu6bIrJUNCk75XIkYY8DEUfOI33yNi43R6DJbzlXJ1cFvQ++ZNhjA4RWfSgC7VMalBuzgiQu//8pgAI8xAWBVRWG4kyEnhC2wUdk3C/3/sYGpaPw6tfzkkxoAvz5bAtjBciw1YJdOTmTGzwcBODpaDICZVgzzBAAAzbHQYZjL84fpw0wFk8SUwQCOPvEABfw+CWEXyrnUgB06aUGN/Re2vuhIsQBmIFaOMxBpNyxl8u9cwilv/0sJ88bmo/k5RECO4gFx0xUNz4NHDkgAO1SWpQbswokJVZUNETII2iBoqswKIt/HJlACblc2egHkBYhhi55iTttNNa+JiUMBHC77QALYhXIuNWCHTlr41empASxAg0ol1H1P3ZUS7oCx1Iz1pYtUPBmm3yHGgyPFRRb+4FoNGAmbMmla8jNnlSJi8yEB7EAAB9tbKTL67iFCBqGDD2gqgJp+74WHsrarwBgRYEilKLXjW3Zz+Dkrmq4qEpBjPI3OWXzCUAArZoj6aglhB8ozg22qowSwAycstL4yJXwVAE+zBsDJ+WOyAngQMJQIsZvasYDctm4zOWRL3al7PFNouoPGW/V5fHxqAIcqPpQAdqA8pwIve08C2IETFp47MT2Ap1oD4MT7M/QBWAUEBgol0AG248m3OTPww4QLnJKec8rt/eHVKc6djQE7Jj6YaXo8WVvaY2xsagBHZj0mAexAeWawTXWUAHbYhIVOH0sLX2jA8AHVCqSI14nil4S3q5gspt3MFAYou8TdTQnwmHwzKi9LVFq6sU8se5H6Zt8hfEzxf9ExaQCMqLgDOyWEHSbTqcDL3pMAdthkhd99KSOA4QOaTujNvB9b8Y4l7Wr7BDcsaMrIJqYk7EGOCIA516HS8FCY1G+7TT55e399PIH29Xjpq9Tz3A8tGdNMAI7MmykB7DCZZrBNdZQAdtBkBeuqKTr6rswAViVl18LNzOvopmWWwEJvn6A1K4Cefns/pAFq3PrDRxkPAHtyf8Y15TkgiofyXv8RUX74vgJW/J7ll0DbBjVavecR97xByVcftWRMEZCDu6F0j+CxgxLCDpLrVOBl70kAO2iiwvOfTitUTNgSKZKy64VDqu9H96yxBBap/qsQ3otXvEk9bz1hyZiyZOxsTWiP2ENgAi6PznQ/Y/MiAewQAIe2r8sKXwgaT05gI4ALH91lCSyM9CUffhNf/hYlF8+2ZEy1wE31OlxVKiHsENlmsE11lAB2wCQFTx2j6IT7+QA8wRobcKjuhCWwyAeYGjkH2NSxEWfkt5l+Axt6KuAOeW/M3bJenANkOxV01e9JANs8SYjhj0z+MZ9QQQPWkZQ9kyBrPwt1tAqHhfY/Cul1bPX7FK9cKHxMtbmAh4BXZRtGkp7Q/h1SE7ZZxtXA1T6XALZpcoJeL4VL3s266aYVMPiACgfZnHsp4POJb5fDX1b4uTjkP2NVH1Bs7YfCx1SbC1i7PrSvoyPvoNCHb1Cws0OC2CZZ10JX/VoCONeT4vdRaNMqisx4lFvrVQtV1AIA97z4U0U48xWGdpwX4Bvd6hEO4ORUThOEShNW1s+UhwgVlIM+rwRxrmU+w/9JAGcYHPWVyuzzYN1pCpWUAFMlAAAc0klEQVQvpsj0nxkCL4MwfEBFAyX5xmhFKPueTp2QR/T/FUJ7sQ2fUmTfevFzpckFzNYF7zH65EMUWraIgqePSxDnSPYzsUMC2Owk+HwUOriLQsWLCLH4yOOAUkKhteUULn2fwgufo8i0R0xBVy1c0VEWAPjdqf0a8Jx7hAOjEGCb6hyjG5eRFZ4lSZMAHrSWnnyIwgue6V+7a8ootGG58ghXfkyhZe9QcO9WgqksE0DkZ+bc3CSAzQKY/b6znUKeJRR54ofCYKsWFjyPjrqTwuWLhUMy8fFz/QB+9n4xbT99t5h2cm3PFXgBim0ppXDtMeHjkHh7atpMedr1YuR1dPz9/fBta5HgZbJt4VECWPDgBrs6Fe03MvMxsSCe+dhA9dt0uXtTaWI878XL5ynCJip0FjZlq/Ig8JyP0e/0vPwzYcCMbi2nUEuDsPbYOWFzL3TqKCH/rxHApv3NtEcotHIpBTraJXgFMyHTXYIEsFWD7fdTaN92Cr/1PEXG3GNcWMbc06+RdHcNCEbP82JzDMBlCoukd+6DQoCRfGMU9bpQC04unCDk/AHL6I7lFPR2C2uPARimDUWgvV7F5AWNNS1UtRtxmtfRMXcToi9DuzYpXjCZQCE/M2dqSDd+EsBWAVjVbrCjrd/z4a3nCb6ZPAKD74XhPtTUMABeNok9r/xcqGBHNxUr/9EjKIl4ctEU6n3mPqF9ZACy8pgQGLkW2bmi/6ImeByiN9tlayHY2kzhpW9TZNKDXOsqMu6+fuhuWE74LWtHHq0BbLZxlQBWgTLbYAn5HJt2p48pG3XhTxZS+O1fUviVaRR+bSaFFz5L4ZL3FI0kqNJ4tf8rOtl3ZNeqfgC/9IgQaCY+nEM9zz0gpC0rgattO17yirA+R3dX3RzTh4W1if5G9m9IDU2vl4J7tyl7BBHcdc2b2b+uFj5H4Y/fpNC6Cgoe/0y6oeVa3rP8nwRwlgHSws8Jr5OLnhQq1OFDW/thISh7lwIyQeYMLSStfB1b/Z6wcY3uXaeMqfCL5dFdqQHswnXsBFmyuw8SwC5cuIkPnxYGCgAtdLK/pHnPa48LaTe+4h0SZc6wErjatuG5oH3P6GumqSbenSasTfQlfPozCWAXymw60EsAu3AyRVevCDf2F3PsweaZANev2PqPSaRHgYg+8bQR3btWyPnjvyIHNyugjH/ynLA20S6bq3QCLd+3x5ZrdNwlgF0IYOSa5QEK73eQiAcLSNTtcnRbhWXJyHnPycj3Ioe2UK8gX2hm1kFidiN9SfebYJvcODMKOyf+TgLYhQCGL2g6AdX7PnyK2cJMLhwvpN3I3nXUM2+EkLb0no+Z70c+2yZMc48c6a/NFqt6X+g4yFwO7tJwmWylO0oAuxDA8AU1A5pBv5374C0AC6rgEDm6ixRfYAHmjEF9tbg9pd/zxwgZW4QhQ+iim0uEtKeMA7LWuXC9yj6nv2hIALtwQcMXVBSYeub9YkCok+9MFtJuuOYIJd8cJ6QtUefJ0074+B5KvjtVSL/DJ/b1A3h3lZD2lP6/8NDAXEmopYeam8ZGAtiFAMYOOw9QeL6TfPtW/TBR8AmdqbWsHhrPORn9TvjkAUp8/KyQsWWeJTBrGO2P9nfqi6WbICP7mv5iIQHsRgALrN+WWPLUgFaVeH+6EFgEu9pJlDathZCVr+HiFS99TcgYMHex8KlDQtrDeaPIp4RZepi5cWwkgF0IYAi3KBDFi18aEGoRRSSRUxiCIEqbFnWePO2Ea49SbOUiIWOLtjAOocZqIe2h/4n3ZwzMlRthI/s89OIhAexCAIcaTwsT6viKtweEOrFEQIDHzU09wIIHek76DgqTRjd8IqTfobr+hOfBzjYh7SkA/uT5gbmSMBsKMzeOiQSwCwEMX1BR4ELQBFu4iY+eMd0uounQXnKJNSXZRZ13qnZwYUMWs1Sf6X0v1HB6YFxFVRqBeYTNlTxKAMvFYBO84QuqFwjpvh/dXjkwj/FPnjfdbvKmnRIJedL9p1Pfx+ahqA1OmB4YJHvn/ljIWCDEm7UpjxLAcjHYBGAIX++ce4UINctZgDYTS18w3SbsyEpbAmCea1AjgXr42G7TY4B+h5rrBuSj53UxQSmxdR8NtCkBLAEsF4OdABaUuzd8bM/APGJDziz0AHHAIb50rum2zPZF7++DbWeElREKtjQOjKsoj5DolrKBNiWAJYDlYrARwPAJ1QuYVN8P1R4bmMd46aum20SeCkUDLn7ZdFup+mvle8iJIaqMkDpng6jsdSzHsIRvfsAX8yg34WyEqBlBgk+oCBgFW29pavHy1023iTwVOC8RMBdxfnraCHZ1ULC70/QY4D9DnW23LmyCEr2HD24ZaNPM2pG/dQ7AJYBdCmBRbl7q5C4isqwhp64CYMFZwPSA1Oh32ViIqGcHmDPQxVa8LQTqLLyZtSuPzgGp0bmQAHYrgEVscj17/wAksIDiyxeaBgW7TRYBc6MgNfq7gN+vjEevAPs6CnIyoYxt+NT0uOKc1OYi1rY8uhvCEsAuBbCIkFkkTVcLcGzFO6ZBEf5sm9ImAjyMgtCO3/XNvmNgLER4LQT8voH2hPkWN9cPtKmeN/ncvRCWAHYrgAXAEhnL1MIroiYaS0IjKqQ3ZzB++u6BsUi+Pcn0xUM9rpEDm0y3h3EIdrYP9FHdvnwuASwXRo5BDp9Qs3BC8h218MbWLDbdJosAE52I3Oy5Zv39M/cNjAUSFGX9fobcxCwfBhvb8PG9ptpDX/qeunOgf6xdeXQveNncSQ04x+BkA2/2CJ9QM5DAb+Of/nKQUMfWfmi6zWB7f8mc2Jolptsye356ft/z3AMDY2G65p4mcTpyTOjpS6rvqvtndu3I3zsH3BLAbgWwgETfMc8bA9CBUMbWm0tEo9hRb9o+kWMiFUgc+56qMki80uRmpGZzM9jaZHostPZ6CVHnQNTMXEgAuxTA8Ak1CzOYHNSLJ7pxqbk2VVqk6bYy3OKbPe9Uv+9RVZuIrTWnvfc8/8NB4xrw+cyN66wiSr4xenCbLl236vUmn8tADNcuaviEpgKJnveYzy4TBLP1y9Ramtm29JyHiO8O6rtZ887cHw9ZV73PPWBqvpKLpgxpk82bPLpXG5YasEs1CfiEmgVPdM+aQUJt1q6cfHPsQHvRreWm+2f2/PT8vufVR2/1fe9aU31Xa9MMjj2vPGqqTXXlEtamPLoXvGzuJIDdCuDmelMCDThFDm8fgA4WRHRbhak2E+9OG2gPaS71ANDu76rrrWFczPRHrU0zQUsuHG+qzcSyFwfGlrUpjxLAclHYBHD4hJqBBH7L6pYxQY7uXGmqzYSqYkNEYOVms+fJ8/ueN0YNrGWzddzU2jQb28QHM02Nbcwzf6B/rE15lACWi8ImAEP44BvKA5d03wk11Qyav8iuVabai5fPG2gPIcnp/teJ76vNJ2bruLGqIGpAmk3PCb9qdXvyufvhizmUJggbAWpWiOAbagZm2sgq2ITNtBdbtWgAEhGTdlQz/TDyW3XFYaSlNNIG+41am2ZzbDY3BrxKWFvymB/wxTxKALsZwC//zDAo+lSht0ygI/vWG24P8Ilu+HQAEpEDG021xWCWq2Py7YkDfUdSHjN3F8n5Y261dXN9mY0yRD4JNk/yKAEsF4MDwA3fUMOAeuEnQ+bQbM6C6M4VA21GDpn3UzZ8bgZ8iJOLnhzoOwAHX16j/59cMDjHBtoz62GCi6MEb/6Al82l1IAdAFI2GXqP8A01Cglk/NL+n9ngDgCctRn5bJvhvhk9JzO/S7x3y4MD54CNNKPtscKkbCxwjJo0yUSO7BwYW3W78rm7oSwB7GIAm0kagzplWuE1634VPn6rvlzk6C7DADMKPjO/Sy6eNWg8zLiNpRzbIztNjYfWY0U7d/K1O0EsAexmAC970bBQo06ZVmjNQlOdMBwwNgPEtL+dc48l7WoDHcxUHEm+O3XI2IarD5vqd6jx9JA2tfMnX7sPwhLALgYwfEPTgiqLHTRe8soQgUaFZKPt4XcoaMkgED6531RbafvxxihL2k189MxA33EOyBSXtg9Zxlab5hPthc7UGm4P/VAX+WRjLI/uA652ziSA3QzgqvcNCzXqlGkXQ/iEOWgGvV0DbZoNZkgHP6uKfcZVQSQYl7iJmnZacwbaQ424dOfE8z6rV6edM/na3RCWAHYxgKMblxkWatQp0wpv+NRBw+31zrlnUHvhmiPG28qgYWIzy6z/cyrgaUN9Y6uNX9y05gw2zoaLfWryC7P25NHd8MX8SQC7GcA7lhuGXCq/UjN2Sm0CGhHJglKBEhU3YGNN9ZmZ9+LFLw26gEQ3Gb+4ac0ZDJSGi32++NCgvrH25FECWC4MGwEe2b/BMIgQKKEV4LCJDGva6K9QwynDfUsL0puJzuMC6uFp/wNFTtXjETGRFyP+yXOD2mLt9rw+0tCYqBMFsbbk0f3wxRxKDdhGgJoVIjNeC2qXMdYPM6VztK5XZvMpaAGJ18l3+nPimvWpTdU2bL5sHHA0E0iCvA/qtthz9D/Vf2d7Tx0mzdqSRwnglItMLozcLQz4hmYT3nSfq13G2JzB1Snd97O9n1gy2K0t1FxnuK10/xWvXKCsOZgh0n3H6PvI1cDGAUczG5KoKaduiz2H65+R/iGTGmtDHnMnX7kYa6kBu1gDDjdWGxJoQCDY0jhEqJEdzQgg8ButDRXtG20r3e+QrY0JRe+z9wttP67xCjFzN5DKxQ/9xvvpzi3T+1oPDTYG8uh+GEsAuxjAZrJ2Bb3dAzBjghwykeQ9vvytQe3BbzUTVIx8Biiyvhq9nU/3v7GVtzK54T+CrcYvIOq0nKy/OALy6f4/0/vx8tcHzlvdnnwuASwXhs0ARyXiTMKb8rM0bk1mtNbYuo8GrYVQZ5v+fmVwP+t95j4K3Ky4rMCscoHQ9rX5duF3m3LsMvXx5mfaatMMlLF1xipFwyWOtSGP7oeueg6lBmwzQNWTofd5sLvTECRQnyzVf5nRWlEDTt2m2cADLfy0CW4iu1cbOndtu+y1tkI0zgXQZ5/rOTJbtXo88NxolZB45cJBY6ttV752L5QlgF0MYKMCra7dphZeMyaN6N51gyBhRoNMBTutl4IZG22q9qGdqscCz3teetgYgDX2ZNZu+PheQ+0pF0yfd0j/WLvyKAEsF0eOQY5Is57njOWsTadRBbuM15kbki7R7zMEm1RwxHuoVzcINGjfoIaa6j+iGz4Z3H4gQEmDeSe09mTWbzMXOMWzQmWCYW3Ko3vhi7mTGnCOwWlaYPz+/uTeJuCTLrk3cjmkghPPe6nSJRqyT6exsYZrjw4F5FsTDfdXe07RTcVD21/0pKH2M9lsEVSh/W/e19h4lFnR3A1crfxLALsFwH4fRfauI0Sc8Qpsqu/1PX0XQRPTLgTltc+41qot8In2UPYoVR90v4fyST7fkD5js0t3W2kAH9tSNqR9hBQbaT9W9cGQtth4wz5spE32G4wpzDHIrsbalEf3QlkC2OEADrU2EjwMekzUf2PCi2Ni8eyMgqv+rp7nwc62Ie32zrnXFGzY/yM5eirIGLWBs3bVx+g2z5D/MOq3G1v74ZC2WP/NBM+o+9v31F2EwI7woa2DvEPY/8ijO6AsAexAAENDRbKcxLtTTRWHVAssez7EVqs5//+/vbN9kqOqwvhfKGahiFKWZYFUSVGKH3z5ANmEvIgJGoUopIqqRALRRVKRaISQABI1JrGigSqMGJKsKWs3u7MzszvzF7T1O5OGuz23Z7rv7Zme7X0+bPXL9ty+9/S5T597+pznhBSjBAx8E76/p5pkie6vvyh3794nhrsilUe69ZETQdmZ/r/MtnN22J/s9puIjjLtjb12/yMJmXxk77n30f7sg7AAOANAdSktMbjt8wsJZN64CcZOupyl9KjfZQtP+sYaRJm4d6d34scUtnTH0b7whrd93BLQYLrXhu5DvpOVR+dsWNzuuBLyrQmWa+od+FqCa4Z7+Nw22THquF6QFgDXCMBYcCxXN174dlLlBysvCM3PJXAojJtwIW6D3sFHve329321EnD0feBLx4HsvOMt+YJqf/jW0BgA/pC2fR/00v6mW1K3Q9ou8xuiZKjsQYggiTHpvbWtF3Rd+QuApwjAJCes/e1cQqpqaIxpmQmYXgu4Q13pPvi8/SAAfvE73rbhCE77ELrlo9OoahDIMrRt93fZOGbkQ7SIe03R/SIATMRJVS+PIv1iVUUVbYj4fURMefqg85MFawHwhAF49V//SNp//JX5c4OW9yUtuaHJ+MwDVhK9yESCH2Lo9wXuv5HD1lXFh8ONw094wT0dD77bkD5nf+N7QYW6CkZFQaT9ZotVCo1nti/TOMZVwUdGxu37gOr2U/uTA2EBcMUAvLJ4y5Z83deeS1DyaUymvHsQsjZq+Z6dWKEliVjmZtvimAyuvL4VPZ/HLJbeL6aKh9sHViZpm+k2tKxSlpozbc+3xbrvnH5pYn5/d4x5+2YdH3kqIR179folRVVUjAm+556eEwBHCpsJhKVE9tPGz5+sPGohb9KMOk/lBUK07pVMX+2++UIQYOaRz/QOPRrUnju2tic+N1VetpbyXEG8sYVzZXQhuJLxrh35sdaZe6RjwT9vYW8VfVR0ZVh2n5p7xEDD76HEj8lZvzx7AXDOhEgnxtB2edmsSkKN1l/+fhLiMy07IfKux3LhQwuWLpyxpNOu3viCsnGo7yPGakxogWFjeWFXvZ88Hg3AZpGN6DdjxE2RJ6Oi59euvjdkAQPuhNgVbcO9rvO7l4faK/I8IFhau/SOhZURhmirqIisR7dPofu9H309YUXXvnjGaDqLjEPXFANuAfCYyZ1VpNVb/07w6wJ01D3DQoAYnRI8ZINhNVENwq7j2tufGvn5yu3/JCt3biYwjq0s8nfLrCRifvEF4ocb/C0mK3cXE3gZ+Ghnf/+7mzAxN/2VtG6z43CPAZoYfl0LefLIMTpr7+kvJW6pe7fP7n5owoQLSJR3cttM90PBHeD2gXrabunt8vLm55/qQ6ojpi/3dQf9uXvH9Mr0Cx37723TOdM99BB9vK+b6Kjp62c3BrqLDqPLptcfW/TM6o3rCQRI6H7ZlVXpsXp0qaltCIC30cP2KTEvgpgqw1jgALiv7VDwSoERAPe1mz1H/HT6m9Bt69pF7734oBbaJqujtT//3ttudgw6LmYxNk1OAuBtDMAsKfsH4kLF8pjVmCikEAeDF2nTJw4UAq/Qj4du31r//Iv3XqxmYhNj1l/dbxZm08BD44l/aQiAtxkA4+4gwSC0RLoLWv3dD470CVLNd9P1BULa3Ovb5173gmJ24hM+FwuSLb7+5+gCJYHcfgXt7/py0j15MGl9dDn3Pnn31/l4oJtVGQqAcybdrD6w0v0iSuOjywnJAetHf5hUGYucrYKR7dtGJF1knlWavQ/Hody9KZhiRfva5RwvrSpDCgnP6ywcTtYuvT3yBZbXH51vDiALgJsEwMtLluUEeTmUhZZpNaGwpiLugY0j3w22HCEF4gNkUbBZf+254HsBwuMsU3NzVMTuloJ+ugXcYTYjLZ0Pd/jli45b121tMBYAb2EAJgIDPy4csxtHnqq0QkQKDr5t9/ieQl/CY3zAvUOPlQKhzrsn4wA4xwfsAhxMcrhdfDKp+hxZhOvH9lhoYevahxYV4/ZF+1sbeNPnJwDeIgBMqBDxoWRNUdONYPmqJ/249vCz+opXpsqU3caQ8eRl12XvkR63rv81Sh4+Mp60bXdrpaAiqlqMk3He/1kR9J5/3D5MQh6PRZ4XfeL2V/uzDdQC4BkEYHyOWFsQsZPWWgWpTd7ELnoeC3vcMt2d7MSLFm3bd904Skf3XuwTIx3CZZzem0SDbJt5x3z0I9Giypp0aT/KbCEq2vjZkwkfCXE7WYzu8nLhceSNT+enB9oC4JoBmMlMthdf/Luv7ktI3504NWXRaIRnHjDf5NrV90tP6tjIgbzkjlHggIVYBsA2XTs/Zwkyo9rP/o+kms5bRyurVrKpP0WfUfa63Q8a61n31BErYaXSRdMD06x+FDkWAE8ZgFk2EvIELSDlgSwOd/dDFp1QN/DaMvfQY7bMhaCc7KkiSpS9hhdKaAovIIQcQhi6iLeNAbGybg933FSjoBgnpPf9GtxD2XFbWN78nLmqLFUdK/niGct0c/ut/XoBWgA8ZQAeq/BLS7actvTkOzcHKaKkhZL2/Mm1BPYvAI4QLaxErNPW5XfNPwx/LZNs7U+nbUnafu+3VmUDQhssbELR2u+cSNpvnxgcn18YXH/1fUutrsKnSPpqbHLHxk+/FQT8jDcLRGWPR9VzG/vsHF2CW4PnRKhZ+4NTCX7bz2XPMzj3+uDc+d9YXDa0mrz08EXDTQxNJAxtrSsXzB1Fph5+btxAVIgmLdhS4G9+Mkh1X7w1SF/PyUos03ddOz1QFgA7k0aKF6d4AE4s+AKYoSCIS6CKSsywwt1bHq7CLP2I0w/Jb1h+AmABcJC1uWkywWl75pVqkjyogHH70+A+4UYoa/X6rqdwZiiz3CbZSL+Cn+V2kKMAWBMkaoKwVKYmnA/EQs6RQBIz8YgEiImGcPuMNU21YVjsYvqk3w5bfpLJQCYCYAFwaXDBV4yfOZZu0gU729+7s3Qkgm8iA+JDbWejBcoc79phlYZFTi4g9elbzDkBsAC4MADzEbD75otJf99XqgW4+2BYFXUjfMq9g/HlkLIgTnQGJPx86CR8MGbi6bcCc3RAACwAHgkkEHHzUaxyazdjgbLUrxKUrJ7bJNOGdz9kcdtEKhQhja9ybGqrOeAtABYAbwI+cy/8/QOzdKv07WatSfd4/fizyb0JZHAZd0MF9eLcvnr35+eS9VeetnAyJT40Bxyn8aITAAuAE6xFUn8pLz/t9NruyUMTDfkifnbavBm9579pPmO4O4jnnsZE1j22JvALgLchAONWgMsXtq3+3sn4c72Wout22LXD+jAN4KDiMBWrx/bJ7V9F+0RkwArXITX4yoVSFJvTkI3uUS9wC4C3AQCTRde+sGCVk/v740oQVQFiEMPzEpjq5CdW+Q/Hkj5p3xWBa0g7pAgTY9w5/csB928JzuOpymsbzItZkKcAuIGKRiws6cf4VmcBcAEqiyA4+gNLq61T8Ynp7Z76RdJ79uFagTgFbwCZ0k1YyKSUh3Bg1ClP3TvOghYAb3UAXl5KWh9fMZ4Bqir09+6cCWBJQZelP5WFcQPM0mQljAzeBXtJzQB5zueAjMvi8BOWAEKSi5JA4gBulnTO1xcB8FYD4KUlI3npnD02qPFW45LaGM/m55L+/kcsTG39pe8lMJJ1zh4f+DvvfDZToOubAHYOhjpeYpDmLBw2ljqs0t6PvzFgNptGJMUItwjVQfhYaWxmEWnauePfanOgQf0VADfoYQ5NMEK7qvxrsqzKjq1KuU4gBG9IF8qOT9dPxXgQAEvRpqJoAoRmL6X1fMOerwBYACwAlg5IB2rSAQFwTYKXxRBmMUhukluTdEAALACW9SMdkA7UpAMC4JoE36S3uMYiq1Q6EKYDAmABsKwf6YB0oCYdEADXJHhZDGEWg+QmuTVJBwTAAmBZP9IB6UBNOiAArknwTXqLayyySqUDYTogABYAy/qRDkgHatIBAXBNgpfFEGYxSG6SW5N0QAAsAJb1Ix2QDtSkAwLgmgTfpLe4xiKrVDoQpgMCYAGwrB/pgHSgJh0QANckeFkMYRaD5Ca5NUkHBMACYFk/0gHpQE06IACuSfBNeotrLLJKpQNhOiAAFgDL+pEOSAdq0gEBcE2Cl8UQZjFIbpJbk3RAACwAlvUjHZAO1KQD/wdLpBbt3sUyQgAAAABJRU5ErkJggg==;" vertex="1" parent="1">
          <mxGeometry x="657.4300000000001" y="745.36" width="70" height="89.29" as="geometry" />
        </mxCell>
        <mxCell id="vaxw1P1ZyCaPooBw2lOU-85" value="deploy" style="text;html=1;strokeColor=none;fillColor=none;align=center;verticalAlign=middle;whiteSpace=wrap;rounded=0;fontFamily=Verdana;fontSize=15;" vertex="1" parent="1">
          <mxGeometry x="580" y="753" width="40" height="20" as="geometry" />
        </mxCell>
        <mxCell id="vaxw1P1ZyCaPooBw2lOU-86" value="ArgoCD" style="text;html=1;strokeColor=none;fillColor=none;align=center;verticalAlign=middle;whiteSpace=wrap;rounded=0;dashed=1;fontSize=17;fontColor=#333333;fontStyle=1" vertex="1" parent="1">
          <mxGeometry x="649.52" y="846.88" width="90" height="20" as="geometry" />
        </mxCell>
        <mxCell id="vaxw1P1ZyCaPooBw2lOU-87" value="" style="html=1;fillColor=#5184F3;strokeColor=none;verticalAlign=top;labelPosition=center;verticalLabelPosition=bottom;align=center;spacingTop=-6;fontSize=11;fontStyle=1;fontColor=#999999;shape=mxgraph.gcp2.hexIcon;prIcon=container_registry;rounded=0;dashed=1;" vertex="1" parent="1">
          <mxGeometry x="414" y="819.4399999999999" width="62.64" height="55.62" as="geometry" />
        </mxCell>
        <mxCell id="vaxw1P1ZyCaPooBw2lOU-88" value="" style="html=1;fillColor=#5184F3;strokeColor=none;verticalAlign=top;labelPosition=center;verticalLabelPosition=bottom;align=center;spacingTop=-6;fontSize=11;fontStyle=1;fontColor=#999999;shape=mxgraph.gcp2.hexIcon;prIcon=container_registry;rounded=0;dashed=1;" vertex="1" parent="1">
          <mxGeometry x="467.36" y="763.8199999999999" width="62.64" height="55.62" as="geometry" />
        </mxCell>
        <mxCell id="vaxw1P1ZyCaPooBw2lOU-89" value="" style="html=1;fillColor=#5184F3;strokeColor=none;verticalAlign=top;labelPosition=center;verticalLabelPosition=bottom;align=center;spacingTop=-6;fontSize=11;fontStyle=1;fontColor=#999999;shape=mxgraph.gcp2.hexIcon;prIcon=container_registry;rounded=0;dashed=1;" vertex="1" parent="1">
          <mxGeometry x="414" y="763.8199999999999" width="62.64" height="55.62" as="geometry" />
        </mxCell>
        <mxCell id="vaxw1P1ZyCaPooBw2lOU-90" value="polling" style="text;html=1;strokeColor=none;fillColor=none;align=center;verticalAlign=middle;whiteSpace=wrap;rounded=0;fontFamily=Verdana;fontSize=15;" vertex="1" parent="1">
          <mxGeometry x="770" y="819.44" width="40" height="20" as="geometry" />
        </mxCell>
        <mxCell id="vaxw1P1ZyCaPooBw2lOU-91" value="push" style="text;html=1;strokeColor=none;fillColor=none;align=center;verticalAlign=middle;whiteSpace=wrap;rounded=0;fontFamily=Verdana;fontSize=15;" vertex="1" parent="1">
          <mxGeometry x="509.36" y="597" width="40" height="20" as="geometry" />
        </mxCell>
        <mxCell id="vaxw1P1ZyCaPooBw2lOU-92" value="notify" style="text;html=1;strokeColor=none;fillColor=none;align=center;verticalAlign=middle;whiteSpace=wrap;rounded=0;fontFamily=Verdana;fontSize=15;" vertex="1" parent="1">
          <mxGeometry x="681" y="597" width="40" height="20" as="geometry" />
        </mxCell>
      </root>
    </mxGraphModel>
  </diagram>
  <diagram id="NTBLZ1hbljyqdPVsHPvq" name="CICD流程">
    <mxGraphModel dx="1434" dy="844" grid="1" gridSize="10" guides="1" tooltips="1" connect="1" arrows="1" fold="1" page="1" pageScale="1" pageWidth="827" pageHeight="1169" math="0" shadow="0">
      <root>
        <mxCell id="0" />
        <mxCell id="1" parent="0" />
        <mxCell id="1yqx0HoOWYaMXiN1H1UK-1" value="" style="rounded=1;whiteSpace=wrap;html=1;fontSize=25;dashed=1;strokeColor=#3399FF;strokeWidth=2;fontColor=#3399FF;align=left;verticalAlign=top;fontStyle=1" vertex="1" parent="1">
          <mxGeometry x="375.76" y="1040.65" width="140" height="130" as="geometry" />
        </mxCell>
        <mxCell id="1yqx0HoOWYaMXiN1H1UK-2" value="" style="rounded=1;whiteSpace=wrap;html=1;fontSize=25;dashed=1;strokeColor=#3399FF;strokeWidth=2;fontColor=#3399FF;align=left;verticalAlign=top;fontStyle=1" vertex="1" parent="1">
          <mxGeometry x="555" y="580" width="140" height="130" as="geometry" />
        </mxCell>
        <mxCell id="1yqx0HoOWYaMXiN1H1UK-3" value="" style="rounded=1;whiteSpace=wrap;html=1;dashed=1;strokeWidth=2;fillColor=none;fontSize=17;fontColor=#333333;strokeColor=#6666FF;" vertex="1" parent="1">
          <mxGeometry x="565" y="1200" width="120" height="115" as="geometry" />
        </mxCell>
        <mxCell id="1yqx0HoOWYaMXiN1H1UK-4" style="edgeStyle=orthogonalEdgeStyle;rounded=0;orthogonalLoop=1;jettySize=auto;html=1;exitX=0.5;exitY=1;exitDx=0;exitDy=0;entryX=0.5;entryY=0;entryDx=0;entryDy=0;fontSize=17;fontColor=#333333;strokeColor=#333333;strokeWidth=2;" edge="1" parent="1" source="1yqx0HoOWYaMXiN1H1UK-9" target="1yqx0HoOWYaMXiN1H1UK-8">
          <mxGeometry relative="1" as="geometry" />
        </mxCell>
        <mxCell id="1yqx0HoOWYaMXiN1H1UK-5" style="edgeStyle=orthogonalEdgeStyle;rounded=0;orthogonalLoop=1;jettySize=auto;html=1;exitX=0;exitY=0.75;exitDx=0;exitDy=0;dashed=1;strokeWidth=2;fontSize=16;strokeColor=#007FFF;entryX=-0.013;entryY=0.372;entryDx=0;entryDy=0;entryPerimeter=0;" edge="1" parent="1" source="1yqx0HoOWYaMXiN1H1UK-6" target="1yqx0HoOWYaMXiN1H1UK-1">
          <mxGeometry relative="1" as="geometry">
            <Array as="points">
              <mxPoint x="240" y="269" />
              <mxPoint x="240" y="1090" />
            </Array>
            <mxPoint x="370" y="1062" as="targetPoint" />
          </mxGeometry>
        </mxCell>
        <mxCell id="1yqx0HoOWYaMXiN1H1UK-6" value="" style="image;html=1;image=img/lib/clip_art/people/Tech_Man_128x128.png;rounded=0;dashed=1;strokeColor=#333333;strokeWidth=2;fillColor=none;fontSize=14;fontColor=#333333;" vertex="1" parent="1">
          <mxGeometry x="580" y="220" width="80" height="65" as="geometry" />
        </mxCell>
        <mxCell id="1yqx0HoOWYaMXiN1H1UK-7" style="edgeStyle=orthogonalEdgeStyle;rounded=0;orthogonalLoop=1;jettySize=auto;html=1;exitX=0.5;exitY=1;exitDx=0;exitDy=0;entryX=0.5;entryY=0;entryDx=0;entryDy=0;strokeWidth=2;" edge="1" parent="1" source="1yqx0HoOWYaMXiN1H1UK-10" target="1yqx0HoOWYaMXiN1H1UK-2">
          <mxGeometry relative="1" as="geometry">
            <mxPoint x="625" y="637" as="targetPoint" />
          </mxGeometry>
        </mxCell>
        <mxCell id="1yqx0HoOWYaMXiN1H1UK-8" value="" style="shape=image;verticalLabelPosition=bottom;labelBackgroundColor=#ffffff;verticalAlign=top;aspect=fixed;imageAspect=0;image=data:image/png,iVBORw0KGgoAAAANSUhEUgAAAGYAAABeCAYAAADR9mGiAAASdElEQVR4Ae1dCXdUVbbuX0OFhITME0kIIQQSJoFmFFvEp4CQkAmIYRYVbAZpaZ8gMoUEEOEZUURBG22Rx9BPbBsUxRZJVZLKPKdSVeec7619KzepSmq4U5JKr9RatU7ljnvv7+zx7HvzB4x9glICfwhKqsaIwhgwQToJxoAZAyZIJRCkZBmvMZyDNTeCt7UCQgQp28aQJXpsYI31gL3HmAu6XcVYYBhD55WLqCv8Exq256Ln/nf/seDw1ma0vLMHdeufRsvhP4N3tLmJVf9PQ4FxPP4F1jV/RFVmKKqyJqD5ze1gLU36qQzCK3R9cQmWOfGomjoe5pwodH39GQRzGkapocB0fHQGlnmJErFEcO1zM2F/+INhxAbThRq256Fq2oQ+Xht3FUJ0dxlGomHAiK5ONO7ehKppYX3EmrPC0fnpBcDAmWQY5zou5KypQvWiyX180iSsXpIB55NfdVzV81TDgCHNsL44z4NYIrhxVwF4R7vnXUf5X+3n3oN5ZrQHr+ZZMeioLDfMpxoDDOfovPwBzDmexEozaVEaHFW/jXIo+skXtm5Yc5d4WAbi0zwtDA1b10HYbP0H6/hlCDAUkTS9UeIxg4hYieDsSHRcLNNBYnCd2vP9HVQvTPXKa+3KWeh5cM8Qgg0Bxml+jJqnM70SSz6nLn85hMNhCMEjehHO0XryEMzZkV55tcyORfu5Y4DgusnUDYxw2NF5tRJVU0O9EktaY5mXBPtP/9RN7EhfgDVY0VC6yiefxGvDznxwA1IE3cDw9lbUb3rBL7Hm7IlSEjbSgtV7f9vdb1C9NMMvrzV/mg47JdY6P/qAEQL2n+9LCZbsU7yOmaGwvrQIvLlRJ7kjd7qw96Ct4gjMWf25i1des8LRXlkB4dRnunUBQzdvqzjsdwbJxFcvTEP3zS9HTrI67+y0VqO+xL9lkHml6EyvOdMFDJkxcuwyQf5G8/RwtLy7DxilQYDt+9uSr/THo7zPMjcBjkc/6sppdAFju3sD1YvTFQFDRNdvWAmn5Xedc3cETucMrSfe8ijByCD4GikJpeqz1o92YCh0fHdfYP/Sm88QA9ULJqH72y91zSStjOo5T9i6YF2z0FWcdePHFyi03bp2sbT8ofW+moFh9VbUFz+nWFtkJlqPHQQxOpo+tnu3QDmKzIOSkSrOPd/d0pzTaAam+8YXqAkQOnpjwJq7FORIR81HCDTv3Qzz9AhVwFRlhaPl8BuAU9tSgCZgKHRsPfZm4NDRi9pTsY9802j5sMa6gLmLtwlI2+rWLQadr+WjCRhnrQV1RSvUzSAZJFpA+8srWmgdkXM6P/8QNJl8Cd/fdloa6Prqiia61QMjBMjmmntX7/wR5nVfZihqlk8D7+rQRPBwnkTlpqbXigdVkr3yJU8893F6hDQJtdQJVQNDC2Ktxw+qilAGMmKeGYOuv10eThlruhflIrUvPqVJW2Se69Yvh+OJ+mUP1cA462pQu3K2LmKpH6B+82qAM00CG5aThHCtMc2J08WrZX4yuq5/CkBdx5A6YJgT3d/+DWa3tW55ZqgdKTF1/P5oWGSs5SasrQVN+7fqsgySTDJD0fzOHtX9AKqAoWaDpr2bdc0gGUAyZ+20gBakvWeOXx6g9oW5hvBKnUPOGrOq+aEKGKflCWqWZxlCLK3fNOzIA+8Mwn4AztD5eSWovidPJD0j5UDdt/8OMOWmWxUwnZcvwKLT5rozWPv8bFdToKq5NPQH8+5ONL6+Qb8Zc4vQmg9sU9UUqBgYCh0bXy3UlFS6g+H+25IThfYPy1XNpKGHBXBWP1FVnHXnyddvy8JU0BK8UtOtGBi7gTbXnXiamdTrHEwfalw0z5hoiBlz55Xah4XCEo1iYNovnIRlrqsl1P1men9XL5sKAj1oPoJL/chVmf2Ni3p5lM9v2LoW1P6k5KMIGAodG18tMtTmysSSg6UZCq6/s0QJw4GOsf/8L1ie6m/zlek0YqTASekkVASM87cf0Vi8DNZFicZ/Fyeh5fV82H/8HiSUkf62nzyAumWpxvO5KBF1z2Wi68rZQHND2h8YGO4Ae1gJ+75s2Demwl6cZPx3Yyrq8hZLNTSqo43U17rmKdg2TTWeP1lmr2XBea0UsAd+ZCMwMLZG8K/zwE4mgO2IA8szgeWOM/TrzA1BS5G+mpQRpqbxhQw4CiIN5a1PVhsjwE6kgH2UA1F7M6DW+AdGCIim+2Dn48FOm8BPTAbbEjcEhJtgK5w0JJGQUsDM0yeg7cUEsPww4/kjUE5NAysPAzsTDv7D24Dwv4DmHxinDeLBMbDT43q/IeBHJoFtijGceGfueNStnGF4iKoUmNqFiegpSDacL1YUDvbXFLDTYX1y5NdXA121frXGPzC2BvDPlvRdUAKoLAzsr5PACicYy0TeeLStnTIkkZ8ScBqejodzY7yxPOWHgL0RD1Ye7SnDi6kQdXf9Vpx9A0NmrPYm+LkBF5W0JxLsQBpYgbFq3/1SJKrnJQy71phnhKPtxSRj/Sf54tcSwM4kS26g3+qQ9TFBPDgKOH3nNH6AYRD/2A1W0a+CHhc/FQ2+OwUsP9SwWWYviEH9CuV9ako0QckxNbMjYS+dahgfksPfkQBe5g0Ul1vgny/1a858A9NlBb+y0Avasr8xgR2PBdsWaxhDzrwQtK6MRZVBVV0loNAx9UviwQrCDeODbYoEO06gjPc0YX2+epwUBICiMx+PbPgG5vFl8AvktGQgvI0hYMdTwEqiDWOquyANNQuG15x1vjwTLNegNGBDOPjRNFcE5ld24ySLBKf3HjvvwHAH+K2tvs2Yxw3Hgx9NBysxJlJzFEShbqG2rhSlGuJx3IxwODYlGQNM0QSwQ2lgFRMDTOhec/bxTKDTe4+dd2BaH4FfWaTo4q5IbTzYX5IghYa6k08TWl/KMGyRygMEt/UReXvzuhw488br13iKwPYkgJVHKZfbuRiIxx97DZu9ACMgHl/qTSq9mS8f28oiwf6cZEgwYCueDEu2ys5HL0KXhe9zzAyFbXM2WF6IfmB2xoFXJPrxyV7kVhEKcbME4IOTzcHAODrA77yiHHU3s8bLEsBeT9EddtIMti73fI7ep3C1ANJ7DiWVjjwDnP72BPCKyWCnQ1TLjX8yB2gb/H6AwcC0/QY62L/T94K+BJAJ/Hgc2Day2XrqaSa0bzCmEcIfoK3rpoHl60yUX44GO0YRmHpQJBmfT4D4uXyQOfMEhjshqq6ClYdqBIYACwF7LwmsJEoXOPb8GJhnDX5vgD9Bq9lnzo5A55pYfdpdHAb2dhJY+QTt8ioPAb9RDDg8O1M9gXF0gt87oP0mfWYtFOxIOthG7ZVaqjg3rJszZFWA+uWp6ClK0D55CkLB3koFOxejW17882UQbZ7dmoOAEf88pPtGrkgtDOxgCnhxhDbm80zoyEsZstpZ0zOxcBZN1EYbmem9KYNrYH0T05ep976dX3sGaH/iYc48gREcou4fYP9DjsykHyCK1CiEXK8t6ulZF4GapWmGa0317Ch05uoIUnbEg5XFGSOjc1Hg378JcLsfYGgXs0E8eh+sMhOsXKND85g5iWC7tJXTHevD0fRfxtfOaudHw1Gaqk1btsaAnZlsjGzejwG/vQPosnqAQn94aoy8m/VA1N0Bv75KYfbvXUVdkZ0J7EQ8+HYNgiBztip+0JuO1Dh5b8c2PTcJzvUaiq+lMWDvUZnKTw3MY1L6kosJ7KMZEL9eAHqaZal7jN6BoUOouNZpgeRzLqbqnCEhYEcTwCi0VBlG2wqTYV2cbJg5M2eGort0hvoSTFEY+CGdERi5B9KSv+cDjT8MMl/uyPgGRj6KOyAs10GRAy2LastvxrmKem+ngBWrS+ic+eFofDrOsCCgenY0nMUqK+K0trIvCfxsrHb+SZMqM8H/dRjoaZGl63MMDAydStrT/jvEd3v1hYdlEeAH08EK1S2wta/PgHmm9zceeTNV/ra1b5qnXlv2Z4CVk7P3ZZoCbKdc5auXIKy3AK7sVSbKgJFxtbdC/H4F7PJ8sAptSRU/FQm2e5KqxM5enIyauVG6zRm9B8axZZrye5OmvJIIVkaaoiFKJUA+nOJqvuis8bn2IovXfVQHTK/2iPbH4DdL1Rc6pRlncoWaOxJV+BsTGp/3/9Yjf1oi76t/Nh2UuCr2c5sjwU6SX9EQnVaEgl99BsL8hWIt0QeMfDZpz78vgn88U4OKm8BOJYNtVxpGm9BZkqNbYzqKZyivJJdMBDuWrs0yvB8HcW+/ZP6VdvfLYpVH9Rojn0kjs0M0/gD+TSGY1LShRt1DwI4kgr2sbIGNcprqBdqjs+q5MbCtVVi/KwwDp5YjtTWwignSOhaZezjogSx1z126i1YfMHQlelTP3gbx43GwyiywcjUxfhjYW4lgtPIXMIwOQXPRAs1a0/j8FDgKlU0Ctm8SWEWkOktwPl4y76L1kSpf4g6G+2/9wMhXo2jDehv8q7UqwYkEOzhFgUM2obsgCeYZ6hfQzFlhaH0+XlGXJd87GeyMq/NUcRT2yVyIXy8q6kmWxRVoNA4Y6U4CorMa/P4RMCkpVag9FKm9kRHQ/jtyw2BdMU211tTOj0N3wST/WkkR2KtJ4GVKQaFkMRb8xgaIxvuaHLw/cAwGpvdWVNKpuQF+7VmwsxEKTAIFA9FgOwM0ReSFomVNuupks25xLJwbA5T4Sye6qhMKF7z4pWzJfLuSRe2+xBc4QwMM3Y06OdufgFNSKjWlB0jCqGmdVgIDNK13rYmC5SnlT7ZJZmwVVZL9hMlFYWDvUneLgsoGOfiv10HU3QaE8qeQfQHga/vQASPf0d4OUXUN/NMFCgqi48HeSfXbp2YviAUtcsm5SaDRkh0O+5Ys32ZsfQj4f08Fqwig2ZTLfJgBcf8IBFWDh/j9BEMPDAFEryahpPTWNrDzgTpJaIEt2WdfNDVqtDwbK/0blECg0H7rQj9dlrROtJ+a8wKAQlpybQVE9dcAM/6f+Mhz2H0cHmDkOzo6pFJ3wGaP8kjw/ek+Z3lXQTosc5W9ca9zi5/a2O5EsDMBFrwuJEPc2wvRQW+2MN6XyKIZOA4vMHR3qlY3PQC/WQJ2ljoWfSSlZdHgezO9htGOgmhY5wdu1KAHbx0lXqIxqQZGTd+TfJdbKsJAjd9khv115Q8UqFF/Dz8wEuVCKn3zh+Vgl7LBKnx05ZyIckVqJEiPBNSElrVZAaOz5rU+mvlejgQ/muwblPNJ4Le2A63/HlIH7w/EEQKmlyTBIKx3pCjHe8uUvMA2uJTSvTFwUbOrxEslOc8ETgGG1+q4CfzT+a6VRR/N3v6EaeS+kQVG5qSrFvynE2AXqT41sJIbBnZ4CtgGz24bZx69KXCqz+isdmES7HkDumDWm8COzAA746Xcci4G/H9LIZp/MqSkIrOmdQwOYIh6SkrpCbYvV/b6Hve8h5Z1Mwb0RZvQVuK7dta8OgPOfDcw88eDvUlNFAMjMBP4pRyIh6dd6+9DHAYrBSp4gJEpppKOlJRSWO0OTjgY1bHcnmOxF8Z6fZEodVl2rKJH33uTSvJRu+LATg3oxD87UVpZRAP9W8jgeDOHLIbgA4Yoc3ZBWL4C+2zRANMWA77HHRwT6lfPGmTOrEuT0VPsttazNRqszN1MmsApWfzpJISN/h3k8IXBsuADjcEJDFFNzYdtj8HvvAr2QVJvWG0COxYHtqP/QdaO3DTPt7xmhqLpmTiwYldHDt8UAX5iSn8/Nj1n/+VKiJpvpR66QAIaqf3BC0yvRISjC/zRBbBP5vaaNnrXQALYJpdj71k7ETWLUvq0RjJjuWmu8Jr8yhECpbfKfTEN/P/2AN0NIyVvxfcNemAkTiisbvkZ/Pa23npbb6SWZ4IjPxJNK/ufpameFQFnKZm7cWBUAzsTIQHDry53lVS8PCSkWFrDeODoAEYWSE8L+C/vu/oMyiPB3s4BK5iAthfiYM5xtTc1rkiRtrEDFIFFg32QDH53F0Dd9ENYDZZJNGocXcAQ1+R7Gr4Du74GrJwitXTYNqSj9o+ud4z17JwHtise7FQC2OW54L9Ven2UzigBDtV1Rh8wsiS66yEeloOfz4Fz92Q0LImDZU6M62m2M9PB7+yEaKVH6IIv4pJZ8DeOXmCIK26HsN4F/6wUba8sQ9uWxWCVq8Fp/Z3aUIMkWfQHgK99oxsY4oqE32WF45sKOK8egmh6GHTJoi/h+9s++oHp5U44eyDs3t8y4U8AwbrvPwaYYBWwVrrGgNEquSE+bwyYIRaw1suPAaNVckN83hgwQyxgrZcfA0ar5Ib4vP8HRCvDcLHDXx4AAAAASUVORK5CYII=;" vertex="1" parent="1">
          <mxGeometry x="591.9599999999999" y="400" width="66.07" height="60.88" as="geometry" />
        </mxCell>
        <mxCell id="1yqx0HoOWYaMXiN1H1UK-9" value="Developer" style="text;html=1;strokeColor=none;fillColor=none;align=center;verticalAlign=middle;whiteSpace=wrap;rounded=0;dashed=1;fontSize=17;fontColor=#333333;fontStyle=1" vertex="1" parent="1">
          <mxGeometry x="580" y="294" width="90" height="20" as="geometry" />
        </mxCell>
        <mxCell id="1yqx0HoOWYaMXiN1H1UK-10" value="Gitlab&lt;br&gt;源码库" style="text;html=1;strokeColor=none;fillColor=none;align=center;verticalAlign=middle;whiteSpace=wrap;rounded=0;dashed=1;fontSize=17;fontColor=#333333;fontStyle=1" vertex="1" parent="1">
          <mxGeometry x="580" y="460" width="90" height="38" as="geometry" />
        </mxCell>
        <mxCell id="1yqx0HoOWYaMXiN1H1UK-12" style="edgeStyle=orthogonalEdgeStyle;rounded=0;orthogonalLoop=1;jettySize=auto;html=1;exitX=0.5;exitY=1;exitDx=0;exitDy=0;entryX=1;entryY=0.5;entryDx=0;entryDy=0;strokeColor=#333333;strokeWidth=2;fontSize=16;" edge="1" parent="1" source="1yqx0HoOWYaMXiN1H1UK-13" target="1yqx0HoOWYaMXiN1H1UK-3">
          <mxGeometry relative="1" as="geometry" />
        </mxCell>
        <mxCell id="1yqx0HoOWYaMXiN1H1UK-13" value="Harbor / Nexus" style="text;html=1;strokeColor=none;fillColor=none;align=center;verticalAlign=middle;whiteSpace=wrap;rounded=0;dashed=1;fontSize=17;fontColor=#333333;fontStyle=1" vertex="1" parent="1">
          <mxGeometry x="734" y="850.44" width="162.48" height="39.56" as="geometry" />
        </mxCell>
        <mxCell id="1yqx0HoOWYaMXiN1H1UK-14" value="" style="html=1;fillColor=#5184F3;strokeColor=none;verticalAlign=top;labelPosition=center;verticalLabelPosition=bottom;align=center;spacingTop=-6;fontSize=11;fontStyle=1;fontColor=#999999;shape=mxgraph.gcp2.hexIcon;prIcon=container_registry;rounded=0;dashed=1;" vertex="1" parent="1">
          <mxGeometry x="573" y="1217" width="50" height="40" as="geometry" />
        </mxCell>
        <mxCell id="1yqx0HoOWYaMXiN1H1UK-15" value="" style="html=1;fillColor=#5184F3;strokeColor=none;verticalAlign=top;labelPosition=center;verticalLabelPosition=bottom;align=center;spacingTop=-6;fontSize=11;fontStyle=1;fontColor=#999999;shape=mxgraph.gcp2.hexIcon;prIcon=container_registry;rounded=0;dashed=1;" vertex="1" parent="1">
          <mxGeometry x="573" y="1263" width="50" height="40" as="geometry" />
        </mxCell>
        <mxCell id="1yqx0HoOWYaMXiN1H1UK-16" value="" style="html=1;fillColor=#5184F3;strokeColor=none;verticalAlign=top;labelPosition=center;verticalLabelPosition=bottom;align=center;spacingTop=-6;fontSize=11;fontStyle=1;fontColor=#999999;shape=mxgraph.gcp2.hexIcon;prIcon=container_registry;rounded=0;dashed=1;" vertex="1" parent="1">
          <mxGeometry x="625" y="1263" width="50" height="40" as="geometry" />
        </mxCell>
        <mxCell id="1yqx0HoOWYaMXiN1H1UK-17" value="" style="html=1;fillColor=#5184F3;strokeColor=none;verticalAlign=top;labelPosition=center;verticalLabelPosition=bottom;align=center;spacingTop=-6;fontSize=11;fontStyle=1;fontColor=#999999;shape=mxgraph.gcp2.hexIcon;prIcon=container_registry;rounded=0;dashed=1;" vertex="1" parent="1">
          <mxGeometry x="625" y="1217" width="50" height="40" as="geometry" />
        </mxCell>
        <mxCell id="1yqx0HoOWYaMXiN1H1UK-18" style="edgeStyle=orthogonalEdgeStyle;rounded=0;orthogonalLoop=1;jettySize=auto;html=1;exitX=1;exitY=0.5;exitDx=0;exitDy=0;entryX=1;entryY=0.5;entryDx=0;entryDy=0;dashed=1;strokeColor=#FF8000;strokeWidth=2;fontSize=16;" edge="1" parent="1" source="1yqx0HoOWYaMXiN1H1UK-2" target="1yqx0HoOWYaMXiN1H1UK-6">
          <mxGeometry relative="1" as="geometry">
            <Array as="points">
              <mxPoint x="930" y="645" />
              <mxPoint x="930" y="253" />
            </Array>
            <mxPoint x="661.3599999999997" y="673.625" as="sourcePoint" />
          </mxGeometry>
        </mxCell>
        <mxCell id="1yqx0HoOWYaMXiN1H1UK-20" style="edgeStyle=orthogonalEdgeStyle;rounded=0;orthogonalLoop=1;jettySize=auto;html=1;exitX=0.336;exitY=1.015;exitDx=0;exitDy=0;entryX=0.5;entryY=0;entryDx=0;entryDy=0;fontSize=15;strokeWidth=2;exitPerimeter=0;" edge="1" parent="1" source="1yqx0HoOWYaMXiN1H1UK-2" target="1yqx0HoOWYaMXiN1H1UK-25">
          <mxGeometry relative="1" as="geometry">
            <mxPoint x="602.5" y="736.1199999999999" as="sourcePoint" />
            <Array as="points">
              <mxPoint x="603" y="780" />
              <mxPoint x="441" y="780" />
            </Array>
          </mxGeometry>
        </mxCell>
        <mxCell id="1yqx0HoOWYaMXiN1H1UK-21" style="edgeStyle=orthogonalEdgeStyle;rounded=0;orthogonalLoop=1;jettySize=auto;html=1;exitX=0.65;exitY=1.008;exitDx=0;exitDy=0;entryX=0.5;entryY=0;entryDx=0;entryDy=0;fontSize=15;strokeWidth=2;exitPerimeter=0;" edge="1" parent="1" source="1yqx0HoOWYaMXiN1H1UK-2">
          <mxGeometry relative="1" as="geometry">
            <Array as="points">
              <mxPoint x="648" y="711" />
              <mxPoint x="648" y="780" />
              <mxPoint x="815" y="780" />
            </Array>
            <mxPoint x="647.5" y="736.1199999999999" as="sourcePoint" />
            <mxPoint x="814.5" y="844" as="targetPoint" />
          </mxGeometry>
        </mxCell>
        <mxCell id="1yqx0HoOWYaMXiN1H1UK-23" value="推送" style="text;html=1;strokeColor=none;fillColor=none;align=center;verticalAlign=middle;whiteSpace=wrap;rounded=0;" vertex="1" parent="1">
          <mxGeometry x="630" y="340" width="40" height="20" as="geometry" />
        </mxCell>
        <mxCell id="1yqx0HoOWYaMXiN1H1UK-24" value="通知构建" style="text;html=1;strokeColor=none;fillColor=none;align=center;verticalAlign=middle;whiteSpace=wrap;rounded=0;" vertex="1" parent="1">
          <mxGeometry x="630" y="540" width="56" height="20" as="geometry" />
        </mxCell>
        <mxCell id="1yqx0HoOWYaMXiN1H1UK-25" value="" style="shape=image;verticalLabelPosition=bottom;labelBackgroundColor=#ffffff;verticalAlign=top;aspect=fixed;imageAspect=0;image=data:image/png,iVBORw0KGgoAAAANSUhEUgAAAGYAAABeCAYAAADR9mGiAAASdElEQVR4Ae1dCXdUVbbuX0OFhITME0kIIQQSJoFmFFvEp4CQkAmIYRYVbAZpaZ8gMoUEEOEZUURBG22Rx9BPbBsUxRZJVZLKPKdSVeec7619KzepSmq4U5JKr9RatU7ljnvv7+zx7HvzB4x9glICfwhKqsaIwhgwQToJxoAZAyZIJRCkZBmvMZyDNTeCt7UCQgQp28aQJXpsYI31gL3HmAu6XcVYYBhD55WLqCv8Exq256Ln/nf/seDw1ma0vLMHdeufRsvhP4N3tLmJVf9PQ4FxPP4F1jV/RFVmKKqyJqD5ze1gLU36qQzCK3R9cQmWOfGomjoe5pwodH39GQRzGkapocB0fHQGlnmJErFEcO1zM2F/+INhxAbThRq256Fq2oQ+Xht3FUJ0dxlGomHAiK5ONO7ehKppYX3EmrPC0fnpBcDAmWQY5zou5KypQvWiyX180iSsXpIB55NfdVzV81TDgCHNsL44z4NYIrhxVwF4R7vnXUf5X+3n3oN5ZrQHr+ZZMeioLDfMpxoDDOfovPwBzDmexEozaVEaHFW/jXIo+skXtm5Yc5d4WAbi0zwtDA1b10HYbP0H6/hlCDAUkTS9UeIxg4hYieDsSHRcLNNBYnCd2vP9HVQvTPXKa+3KWeh5cM8Qgg0Bxml+jJqnM70SSz6nLn85hMNhCMEjehHO0XryEMzZkV55tcyORfu5Y4DgusnUDYxw2NF5tRJVU0O9EktaY5mXBPtP/9RN7EhfgDVY0VC6yiefxGvDznxwA1IE3cDw9lbUb3rBL7Hm7IlSEjbSgtV7f9vdb1C9NMMvrzV/mg47JdY6P/qAEQL2n+9LCZbsU7yOmaGwvrQIvLlRJ7kjd7qw96Ct4gjMWf25i1des8LRXlkB4dRnunUBQzdvqzjsdwbJxFcvTEP3zS9HTrI67+y0VqO+xL9lkHml6EyvOdMFDJkxcuwyQf5G8/RwtLy7DxilQYDt+9uSr/THo7zPMjcBjkc/6sppdAFju3sD1YvTFQFDRNdvWAmn5Xedc3cETucMrSfe8ijByCD4GikJpeqz1o92YCh0fHdfYP/Sm88QA9ULJqH72y91zSStjOo5T9i6YF2z0FWcdePHFyi03bp2sbT8ofW+moFh9VbUFz+nWFtkJlqPHQQxOpo+tnu3QDmKzIOSkSrOPd/d0pzTaAam+8YXqAkQOnpjwJq7FORIR81HCDTv3Qzz9AhVwFRlhaPl8BuAU9tSgCZgKHRsPfZm4NDRi9pTsY9802j5sMa6gLmLtwlI2+rWLQadr+WjCRhnrQV1RSvUzSAZJFpA+8srWmgdkXM6P/8QNJl8Cd/fdloa6Prqiia61QMjBMjmmntX7/wR5nVfZihqlk8D7+rQRPBwnkTlpqbXigdVkr3yJU8893F6hDQJtdQJVQNDC2Ktxw+qilAGMmKeGYOuv10eThlruhflIrUvPqVJW2Se69Yvh+OJ+mUP1cA462pQu3K2LmKpH6B+82qAM00CG5aThHCtMc2J08WrZX4yuq5/CkBdx5A6YJgT3d/+DWa3tW55ZqgdKTF1/P5oWGSs5SasrQVN+7fqsgySTDJD0fzOHtX9AKqAoWaDpr2bdc0gGUAyZ+20gBakvWeOXx6g9oW5hvBKnUPOGrOq+aEKGKflCWqWZxlCLK3fNOzIA+8Mwn4AztD5eSWovidPJD0j5UDdt/8OMOWmWxUwnZcvwKLT5rozWPv8bFdToKq5NPQH8+5ONL6+Qb8Zc4vQmg9sU9UUqBgYCh0bXy3UlFS6g+H+25IThfYPy1XNpKGHBXBWP1FVnHXnyddvy8JU0BK8UtOtGBi7gTbXnXiamdTrHEwfalw0z5hoiBlz55Xah4XCEo1iYNovnIRlrqsl1P1men9XL5sKAj1oPoJL/chVmf2Ni3p5lM9v2LoW1P6k5KMIGAodG18tMtTmysSSg6UZCq6/s0QJw4GOsf/8L1ie6m/zlek0YqTASekkVASM87cf0Vi8DNZFicZ/Fyeh5fV82H/8HiSUkf62nzyAumWpxvO5KBF1z2Wi68rZQHND2h8YGO4Ae1gJ+75s2Demwl6cZPx3Yyrq8hZLNTSqo43U17rmKdg2TTWeP1lmr2XBea0UsAd+ZCMwMLZG8K/zwE4mgO2IA8szgeWOM/TrzA1BS5G+mpQRpqbxhQw4CiIN5a1PVhsjwE6kgH2UA1F7M6DW+AdGCIim+2Dn48FOm8BPTAbbEjcEhJtgK5w0JJGQUsDM0yeg7cUEsPww4/kjUE5NAysPAzsTDv7D24Dwv4DmHxinDeLBMbDT43q/IeBHJoFtijGceGfueNStnGF4iKoUmNqFiegpSDacL1YUDvbXFLDTYX1y5NdXA121frXGPzC2BvDPlvRdUAKoLAzsr5PACicYy0TeeLStnTIkkZ8ScBqejodzY7yxPOWHgL0RD1Ye7SnDi6kQdXf9Vpx9A0NmrPYm+LkBF5W0JxLsQBpYgbFq3/1SJKrnJQy71phnhKPtxSRj/Sf54tcSwM4kS26g3+qQ9TFBPDgKOH3nNH6AYRD/2A1W0a+CHhc/FQ2+OwUsP9SwWWYviEH9CuV9ako0QckxNbMjYS+dahgfksPfkQBe5g0Ul1vgny/1a858A9NlBb+y0Avasr8xgR2PBdsWaxhDzrwQtK6MRZVBVV0loNAx9UviwQrCDeODbYoEO06gjPc0YX2+epwUBICiMx+PbPgG5vFl8AvktGQgvI0hYMdTwEqiDWOquyANNQuG15x1vjwTLNegNGBDOPjRNFcE5ld24ySLBKf3HjvvwHAH+K2tvs2Yxw3Hgx9NBysxJlJzFEShbqG2rhSlGuJx3IxwODYlGQNM0QSwQ2lgFRMDTOhec/bxTKDTe4+dd2BaH4FfWaTo4q5IbTzYX5IghYa6k08TWl/KMGyRygMEt/UReXvzuhw488br13iKwPYkgJVHKZfbuRiIxx97DZu9ACMgHl/qTSq9mS8f28oiwf6cZEgwYCueDEu2ys5HL0KXhe9zzAyFbXM2WF6IfmB2xoFXJPrxyV7kVhEKcbME4IOTzcHAODrA77yiHHU3s8bLEsBeT9EddtIMti73fI7ep3C1ANJ7DiWVjjwDnP72BPCKyWCnQ1TLjX8yB2gb/H6AwcC0/QY62L/T94K+BJAJ/Hgc2Day2XrqaSa0bzCmEcIfoK3rpoHl60yUX44GO0YRmHpQJBmfT4D4uXyQOfMEhjshqq6ClYdqBIYACwF7LwmsJEoXOPb8GJhnDX5vgD9Bq9lnzo5A55pYfdpdHAb2dhJY+QTt8ioPAb9RDDg8O1M9gXF0gt87oP0mfWYtFOxIOthG7ZVaqjg3rJszZFWA+uWp6ClK0D55CkLB3koFOxejW17882UQbZ7dmoOAEf88pPtGrkgtDOxgCnhxhDbm80zoyEsZstpZ0zOxcBZN1EYbmem9KYNrYH0T05ep976dX3sGaH/iYc48gREcou4fYP9DjsykHyCK1CiEXK8t6ulZF4GapWmGa0317Ch05uoIUnbEg5XFGSOjc1Hg378JcLsfYGgXs0E8eh+sMhOsXKND85g5iWC7tJXTHevD0fRfxtfOaudHw1Gaqk1btsaAnZlsjGzejwG/vQPosnqAQn94aoy8m/VA1N0Bv75KYfbvXUVdkZ0J7EQ8+HYNgiBztip+0JuO1Dh5b8c2PTcJzvUaiq+lMWDvUZnKTw3MY1L6kosJ7KMZEL9eAHqaZal7jN6BoUOouNZpgeRzLqbqnCEhYEcTwCi0VBlG2wqTYV2cbJg5M2eGort0hvoSTFEY+CGdERi5B9KSv+cDjT8MMl/uyPgGRj6KOyAs10GRAy2LastvxrmKem+ngBWrS+ic+eFofDrOsCCgenY0nMUqK+K0trIvCfxsrHb+SZMqM8H/dRjoaZGl63MMDAydStrT/jvEd3v1hYdlEeAH08EK1S2wta/PgHmm9zceeTNV/ra1b5qnXlv2Z4CVk7P3ZZoCbKdc5auXIKy3AK7sVSbKgJFxtbdC/H4F7PJ8sAptSRU/FQm2e5KqxM5enIyauVG6zRm9B8axZZrye5OmvJIIVkaaoiFKJUA+nOJqvuis8bn2IovXfVQHTK/2iPbH4DdL1Rc6pRlncoWaOxJV+BsTGp/3/9Yjf1oi76t/Nh2UuCr2c5sjwU6SX9EQnVaEgl99BsL8hWIt0QeMfDZpz78vgn88U4OKm8BOJYNtVxpGm9BZkqNbYzqKZyivJJdMBDuWrs0yvB8HcW+/ZP6VdvfLYpVH9Rojn0kjs0M0/gD+TSGY1LShRt1DwI4kgr2sbIGNcprqBdqjs+q5MbCtVVi/KwwDp5YjtTWwignSOhaZezjogSx1z126i1YfMHQlelTP3gbx43GwyiywcjUxfhjYW4lgtPIXMIwOQXPRAs1a0/j8FDgKlU0Ctm8SWEWkOktwPl4y76L1kSpf4g6G+2/9wMhXo2jDehv8q7UqwYkEOzhFgUM2obsgCeYZ6hfQzFlhaH0+XlGXJd87GeyMq/NUcRT2yVyIXy8q6kmWxRVoNA4Y6U4CorMa/P4RMCkpVag9FKm9kRHQ/jtyw2BdMU211tTOj0N3wST/WkkR2KtJ4GVKQaFkMRb8xgaIxvuaHLw/cAwGpvdWVNKpuQF+7VmwsxEKTAIFA9FgOwM0ReSFomVNuupks25xLJwbA5T4Sye6qhMKF7z4pWzJfLuSRe2+xBc4QwMM3Y06OdufgFNSKjWlB0jCqGmdVgIDNK13rYmC5SnlT7ZJZmwVVZL9hMlFYWDvUneLgsoGOfiv10HU3QaE8qeQfQHga/vQASPf0d4OUXUN/NMFCgqi48HeSfXbp2YviAUtcsm5SaDRkh0O+5Ys32ZsfQj4f08Fqwig2ZTLfJgBcf8IBFWDh/j9BEMPDAFEryahpPTWNrDzgTpJaIEt2WdfNDVqtDwbK/0blECg0H7rQj9dlrROtJ+a8wKAQlpybQVE9dcAM/6f+Mhz2H0cHmDkOzo6pFJ3wGaP8kjw/ek+Z3lXQTosc5W9ca9zi5/a2O5EsDMBFrwuJEPc2wvRQW+2MN6XyKIZOA4vMHR3qlY3PQC/WQJ2ljoWfSSlZdHgezO9htGOgmhY5wdu1KAHbx0lXqIxqQZGTd+TfJdbKsJAjd9khv115Q8UqFF/Dz8wEuVCKn3zh+Vgl7LBKnx05ZyIckVqJEiPBNSElrVZAaOz5rU+mvlejgQ/muwblPNJ4Le2A63/HlIH7w/EEQKmlyTBIKx3pCjHe8uUvMA2uJTSvTFwUbOrxEslOc8ETgGG1+q4CfzT+a6VRR/N3v6EaeS+kQVG5qSrFvynE2AXqT41sJIbBnZ4CtgGz24bZx69KXCqz+isdmES7HkDumDWm8COzAA746Xcci4G/H9LIZp/MqSkIrOmdQwOYIh6SkrpCbYvV/b6Hve8h5Z1Mwb0RZvQVuK7dta8OgPOfDcw88eDvUlNFAMjMBP4pRyIh6dd6+9DHAYrBSp4gJEpppKOlJRSWO0OTjgY1bHcnmOxF8Z6fZEodVl2rKJH33uTSvJRu+LATg3oxD87UVpZRAP9W8jgeDOHLIbgA4Yoc3ZBWL4C+2zRANMWA77HHRwT6lfPGmTOrEuT0VPsttazNRqszN1MmsApWfzpJISN/h3k8IXBsuADjcEJDFFNzYdtj8HvvAr2QVJvWG0COxYHtqP/QdaO3DTPt7xmhqLpmTiwYldHDt8UAX5iSn8/Nj1n/+VKiJpvpR66QAIaqf3BC0yvRISjC/zRBbBP5vaaNnrXQALYJpdj71k7ETWLUvq0RjJjuWmu8Jr8yhECpbfKfTEN/P/2AN0NIyVvxfcNemAkTiisbvkZ/Pa23npbb6SWZ4IjPxJNK/ufpameFQFnKZm7cWBUAzsTIQHDry53lVS8PCSkWFrDeODoAEYWSE8L+C/vu/oMyiPB3s4BK5iAthfiYM5xtTc1rkiRtrEDFIFFg32QDH53F0Dd9ENYDZZJNGocXcAQ1+R7Gr4Du74GrJwitXTYNqSj9o+ud4z17JwHtise7FQC2OW54L9Ven2UzigBDtV1Rh8wsiS66yEeloOfz4Fz92Q0LImDZU6M62m2M9PB7+yEaKVH6IIv4pJZ8DeOXmCIK26HsN4F/6wUba8sQ9uWxWCVq8Fp/Z3aUIMkWfQHgK99oxsY4oqE32WF45sKOK8egmh6GHTJoi/h+9s++oHp5U44eyDs3t8y4U8AwbrvPwaYYBWwVrrGgNEquSE+bwyYIRaw1suPAaNVckN83hgwQyxgrZcfA0ar5Ib4vP8HRCvDcLHDXx4AAAAASUVORK5CYII=;" vertex="1" parent="1">
          <mxGeometry x="408.24999999999994" y="830" width="66.07" height="60.88" as="geometry" />
        </mxCell>
        <mxCell id="1yqx0HoOWYaMXiN1H1UK-26" style="edgeStyle=orthogonalEdgeStyle;rounded=0;orthogonalLoop=1;jettySize=auto;html=1;exitX=0.75;exitY=1;exitDx=0;exitDy=0;entryX=0.637;entryY=0.003;entryDx=0;entryDy=0;fontSize=15;strokeWidth=2;entryPerimeter=0;" edge="1" parent="1" source="1yqx0HoOWYaMXiN1H1UK-27" target="1yqx0HoOWYaMXiN1H1UK-1">
          <mxGeometry relative="1" as="geometry">
            <mxPoint x="496.28999999999996" y="975" as="sourcePoint" />
            <mxPoint x="466.26" y="1068" as="targetPoint" />
          </mxGeometry>
        </mxCell>
        <mxCell id="1yqx0HoOWYaMXiN1H1UK-27" value="Gitlab 部署资源库（deployment resources）" style="text;html=1;strokeColor=none;fillColor=none;align=center;verticalAlign=middle;whiteSpace=wrap;rounded=0;dashed=1;fontSize=17;fontColor=#333333;fontStyle=1" vertex="1" parent="1">
          <mxGeometry x="331.28999999999996" y="876" width="220" height="71" as="geometry" />
        </mxCell>
        <mxCell id="1yqx0HoOWYaMXiN1H1UK-28" value="2. 更新image及相关配置" style="text;html=1;strokeColor=none;fillColor=none;align=center;verticalAlign=middle;whiteSpace=wrap;rounded=0;fontSize=15;" vertex="1" parent="1">
          <mxGeometry x="418.2" y="743.06" width="173.76" height="30" as="geometry" />
        </mxCell>
        <mxCell id="1yqx0HoOWYaMXiN1H1UK-29" value="1. 推送镜像" style="text;html=1;strokeColor=none;fillColor=none;align=center;verticalAlign=middle;whiteSpace=wrap;rounded=0;fontSize=15;" vertex="1" parent="1">
          <mxGeometry x="661.36" y="753.06" width="120" height="20" as="geometry" />
        </mxCell>
        <mxCell id="1yqx0HoOWYaMXiN1H1UK-30" style="edgeStyle=orthogonalEdgeStyle;rounded=0;orthogonalLoop=1;jettySize=auto;html=1;entryX=0.25;entryY=1;entryDx=0;entryDy=0;fontSize=15;dashed=1;strokeWidth=2;strokeColor=#EA6B66;" edge="1" parent="1" target="1yqx0HoOWYaMXiN1H1UK-27">
          <mxGeometry relative="1" as="geometry">
            <mxPoint x="430" y="1038" as="sourcePoint" />
            <mxPoint x="386.28999999999996" y="975" as="targetPoint" />
          </mxGeometry>
        </mxCell>
        <mxCell id="1yqx0HoOWYaMXiN1H1UK-31" style="edgeStyle=orthogonalEdgeStyle;rounded=0;orthogonalLoop=1;jettySize=auto;html=1;exitX=0.5;exitY=1;exitDx=0;exitDy=0;entryX=0;entryY=0.5;entryDx=0;entryDy=0;strokeWidth=2;fontSize=15;strokeColor=#333333;" edge="1" parent="1" source="1yqx0HoOWYaMXiN1H1UK-1" target="1yqx0HoOWYaMXiN1H1UK-3">
          <mxGeometry relative="1" as="geometry">
            <mxPoint x="448.76" y="1129.29" as="sourcePoint" />
          </mxGeometry>
        </mxCell>
        <mxCell id="1yqx0HoOWYaMXiN1H1UK-32" style="edgeStyle=orthogonalEdgeStyle;rounded=0;orthogonalLoop=1;jettySize=auto;html=1;entryX=0;entryY=0.5;entryDx=0;entryDy=0;strokeWidth=2;fontSize=16;dashed=1;strokeColor=#FF8000;" edge="1" parent="1" target="1yqx0HoOWYaMXiN1H1UK-6">
          <mxGeometry relative="1" as="geometry">
            <Array as="points">
              <mxPoint x="370" y="1110" />
              <mxPoint x="220" y="1110" />
              <mxPoint x="220" y="253" />
            </Array>
            <mxPoint x="370" y="1107" as="sourcePoint" />
          </mxGeometry>
        </mxCell>
        <mxCell id="1yqx0HoOWYaMXiN1H1UK-34" value="接收到Jenkins的push事件后主动通知cd部署" style="text;html=1;strokeColor=none;fillColor=none;align=center;verticalAlign=middle;whiteSpace=wrap;rounded=0;fontSize=15;" vertex="1" parent="1">
          <mxGeometry x="508.76" y="960" width="131.24" height="59" as="geometry" />
        </mxCell>
        <mxCell id="1yqx0HoOWYaMXiN1H1UK-35" value="每隔三分钟自动检测指定项目的资源文件是否有变化" style="text;html=1;strokeColor=none;fillColor=none;align=center;verticalAlign=middle;whiteSpace=wrap;rounded=0;fontSize=15;fontColor=#EA6B66;" vertex="1" parent="1">
          <mxGeometry x="262.5" y="1010" width="100" height="69" as="geometry" />
        </mxCell>
        <mxCell id="1yqx0HoOWYaMXiN1H1UK-36" value="k8s 集群" style="text;html=1;strokeColor=none;fillColor=none;align=center;verticalAlign=middle;whiteSpace=wrap;rounded=0;fontSize=16;fontStyle=1" vertex="1" parent="1">
          <mxGeometry x="584.49" y="1330" width="85.68" height="20" as="geometry" />
        </mxCell>
        <mxCell id="1yqx0HoOWYaMXiN1H1UK-37" value="pull image" style="text;html=1;strokeColor=none;fillColor=none;align=center;verticalAlign=middle;whiteSpace=wrap;rounded=0;fontSize=16;" vertex="1" parent="1">
          <mxGeometry x="719.5" y="1217" width="85" height="20" as="geometry" />
        </mxCell>
        <mxCell id="1yqx0HoOWYaMXiN1H1UK-38" value="通过helm / kustomize / jsonnet部署或回滚集群应用" style="text;html=1;strokeColor=none;fillColor=none;align=center;verticalAlign=middle;whiteSpace=wrap;rounded=0;fontSize=16;" vertex="1" parent="1">
          <mxGeometry x="230" y="1187" width="200" height="50" as="geometry" />
        </mxCell>
        <mxCell id="1yqx0HoOWYaMXiN1H1UK-39" value="通知当前应用状态" style="text;html=1;strokeColor=none;fillColor=none;align=center;verticalAlign=middle;whiteSpace=wrap;rounded=0;fontSize=16;fontColor=#FF8000;" vertex="1" parent="1">
          <mxGeometry x="262.5" y="220" width="225" height="20" as="geometry" />
        </mxCell>
        <mxCell id="1yqx0HoOWYaMXiN1H1UK-40" value="通知构建结果" style="text;html=1;strokeColor=none;fillColor=none;align=center;verticalAlign=middle;whiteSpace=wrap;rounded=0;fontSize=16;fontColor=#FF8000;" vertex="1" parent="1">
          <mxGeometry x="687" y="220" width="225" height="20" as="geometry" />
        </mxCell>
        <mxCell id="1yqx0HoOWYaMXiN1H1UK-41" value="构建完成发送通知" style="text;html=1;strokeColor=none;fillColor=none;align=center;verticalAlign=middle;whiteSpace=wrap;rounded=0;fontColor=#FF8000;" vertex="1" parent="1">
          <mxGeometry x="728" y="610" width="56" height="20" as="geometry" />
        </mxCell>
        <mxCell id="1yqx0HoOWYaMXiN1H1UK-42" value="回滚指定应用到版本" style="text;html=1;strokeColor=none;fillColor=none;align=center;verticalAlign=middle;whiteSpace=wrap;rounded=0;fontSize=16;fontColor=#3399FF;" vertex="1" parent="1">
          <mxGeometry x="262.5" y="280" width="225" height="20" as="geometry" />
        </mxCell>
        <mxCell id="1yqx0HoOWYaMXiN1H1UK-43" value="GtiLab / Jenkins" style="text;html=1;align=center;verticalAlign=middle;resizable=0;points=[];autosize=1;strokeColor=none;fillColor=none;fontStyle=1;fontSize=16;" vertex="1" parent="1">
          <mxGeometry x="549" y="630" width="150" height="30" as="geometry" />
        </mxCell>
        <mxCell id="1yqx0HoOWYaMXiN1H1UK-44" value="ArgoCD / FluxCD" style="text;html=1;align=center;verticalAlign=middle;resizable=0;points=[];autosize=1;strokeColor=none;fillColor=none;fontStyle=1;fontSize=16;" vertex="1" parent="1">
          <mxGeometry x="371.76" y="1092.65" width="150" height="30" as="geometry" />
        </mxCell>
        <mxCell id="1yqx0HoOWYaMXiN1H1UK-45" value="CD" style="text;html=1;align=center;verticalAlign=middle;resizable=0;points=[];autosize=1;strokeColor=none;fillColor=none;fontStyle=1;fontSize=25;fontColor=#007FFF;" vertex="1" parent="1">
          <mxGeometry x="414.32" y="1058" width="60" height="40" as="geometry" />
        </mxCell>
        <mxCell id="1yqx0HoOWYaMXiN1H1UK-46" value="CI" style="text;html=1;align=center;verticalAlign=middle;resizable=0;points=[];autosize=1;strokeColor=none;fillColor=none;fontStyle=1;fontSize=25;fontColor=#007FFF;" vertex="1" parent="1">
          <mxGeometry x="600" y="596" width="50" height="40" as="geometry" />
        </mxCell>
      </root>
    </mxGraphModel>
  </diagram>
  <diagram id="AZ4HwJ9vvHFc7Mu1Aw6Y" name="案例分析">
    <mxGraphModel dx="1434" dy="844" grid="1" gridSize="10" guides="1" tooltips="1" connect="1" arrows="1" fold="1" page="1" pageScale="1" pageWidth="850" pageHeight="1100" math="0" shadow="0">
      <root>
        <mxCell id="PtRIOJJwnbGD22Txi5j9-0" />
        <mxCell id="PtRIOJJwnbGD22Txi5j9-1" parent="PtRIOJJwnbGD22Txi5j9-0" />
        <mxCell id="PtRIOJJwnbGD22Txi5j9-3" value="&lt;h1&gt;&lt;font style=&quot;font-size: 22px&quot;&gt;案例分析流程&lt;/font&gt;&lt;/h1&gt;&lt;p&gt;&lt;span style=&quot;text-align: center&quot;&gt;1. 复杂来源&lt;/span&gt;&lt;br style=&quot;text-align: center&quot;&gt;&lt;span style=&quot;text-align: center&quot;&gt;2. 解决方案&lt;/span&gt;&lt;br style=&quot;text-align: center&quot;&gt;&lt;span style=&quot;text-align: center&quot;&gt;3. 评估标准&lt;/span&gt;&lt;br style=&quot;text-align: center&quot;&gt;&lt;span style=&quot;text-align: center&quot;&gt;4. 技术实现&lt;/span&gt;&lt;br&gt;&lt;/p&gt;" style="text;html=1;strokeColor=none;fillColor=none;spacing=5;spacingTop=-20;whiteSpace=wrap;overflow=hidden;rounded=0;fontSize=15;" parent="PtRIOJJwnbGD22Txi5j9-1" vertex="1">
          <mxGeometry x="150" y="250" width="190" height="160" as="geometry" />
        </mxCell>
      </root>
    </mxGraphModel>
  </diagram>
</mxfile>
